<svg width="23" height="23" viewBox="0 0 23 23" fill="none" xmlns="http://www.w3.org/2000/svg">
<path d="M22 21.9995C22 22.2648 21.8946 22.5191 21.7071 22.7066C21.5196 22.8942 21.2652 22.9995 21 22.9995H1C0.734784 22.9995 0.48043 22.8942 0.292893 22.7066C0.105357 22.5191 0 22.2648 0 21.9995V1.99954C0 1.73432 0.105357 1.47997 0.292893 1.29243C0.48043 1.1049 0.734784 0.99954 1 0.99954C1.26522 0.99954 1.51957 1.1049 1.70711 1.29243C1.89464 1.47997 2 1.73432 2 1.99954V18.6995L8.17 9.44954C8.26148 9.31342 8.38503 9.20188 8.52977 9.12476C8.67451 9.04764 8.836 9.0073 9 9.0073C9.164 9.0073 9.32549 9.04764 9.47023 9.12476C9.61497 9.20188 9.73852 9.31342 9.83 9.44954L12.93 14.0995L20.13 1.49954C20.2626 1.2688 20.4814 1.10019 20.7384 1.0308C20.9953 0.961416 21.2693 0.996932 21.5 1.12954C21.7307 1.26215 21.8993 1.48099 21.9687 1.73791C22.0381 1.99484 22.0026 2.2688 21.87 2.49954L13.87 16.4995C13.7819 16.6521 13.655 16.7788 13.5023 16.8666C13.3495 16.9544 13.1762 17.0002 13 16.9995C12.8302 17.0037 12.6622 16.9646 12.5117 16.8859C12.3613 16.8071 12.2333 16.6914 12.14 16.5495L9 11.7995L2.87 20.9995H21C21.2652 20.9995 21.5196 21.1049 21.7071 21.2924C21.8946 21.48 22 21.7343 22 21.9995Z" fill="#7979A3"/>
</svg>
