<svg width="24" height="24" viewBox="0 0 24 24" fill="none" xmlns="http://www.w3.org/2000/svg">
<path d="M23.5527 1.59012L22.4099 0.447266L21.267 1.59012L22.4099 2.73298L23.5527 1.59012Z" fill="#7979A3"/>
<path d="M13.267 11.8758L12.1242 10.733L10.9813 11.8758L12.1242 13.0187L13.267 11.8758Z" fill="#7979A3"/>
<path d="M9.83847 13.0187L10.9813 14.1615L9.83847 15.3044L8.69562 14.1615L9.83847 13.0187Z" fill="#7979A3"/>
<path d="M8.69557 16.4473L7.55271 15.3044L6.40986 16.4473L7.55272 17.5901L8.69557 16.4473Z" fill="#7979A3"/>
<path d="M1.83843 18.7329L2.98128 19.8758L1.83843 21.0186L0.695569 19.8758L1.83843 18.7329Z" fill="#7979A3"/>
<path d="M2.98134 22.1615L1.83843 21.0186L0.695625 22.1615L1.83848 23.3043L2.98134 22.1615Z" fill="#7979A3"/>
<path d="M4.12419 21.0187L5.26704 22.1615L4.12419 23.3044L2.98134 22.1615L4.12419 21.0187Z" fill="#7979A3"/>
<path d="M15.5527 9.5901L14.4099 8.44725L13.267 9.5901L14.4099 10.733L15.5527 9.5901Z" fill="#7979A3"/>
<path d="M14.4099 17.5901L15.5527 18.7329L14.4099 19.8758L13.267 18.7329L14.4099 17.5901Z" fill="#7979A3"/>
<path d="M6.40992 9.5901L5.26707 8.44725L4.12421 9.5901L5.26707 10.733L6.40992 9.5901Z" fill="#7979A3"/>
<path d="M22.4099 2.73298L23.5527 3.87588L21.267 6.16159L20.1242 5.01873L22.4099 2.73298Z" fill="#7979A3"/>
<path d="M21.267 1.59012L20.1241 0.447266L17.8384 2.73297L16.6956 1.5902L14.4099 3.87591L15.5528 5.01876L17.8384 2.73297L18.9813 3.87583L21.267 1.59012Z" fill="#7979A3"/>
<path d="M21.267 6.16159L22.4099 7.30446L20.1242 9.59016L21.267 10.7329L14.4099 17.5901L13.267 16.4472L20.1242 9.59016L18.9813 8.44731L21.267 6.16159Z" fill="#7979A3"/>
<path d="M4.12421 9.5901L1.83845 11.8758L4.12416 14.1615L2.9813 15.3044L-0.447266 11.8758L2.98131 8.44725L4.12421 9.5901Z" fill="#7979A3"/>
<path d="M8.69564 21.0187L2.9813 15.3044L1.8385 16.4473L7.55279 22.1616L8.69564 21.0187Z" fill="#7979A3"/>
<path d="M14.4099 19.8758L15.5527 21.0186L12.1241 24.4472L8.69564 21.0187L9.83841 19.8758L12.1241 22.1615L14.4099 19.8758Z" fill="#7979A3"/>
<path d="M14.4099 3.87591L13.2671 2.73302L6.40992 9.5901L7.55278 10.733L14.4099 3.87591Z" fill="#7979A3"/>
<path d="M15.5527 11.8759L14.4099 10.733L13.267 11.8758L14.4099 13.0187L15.5527 11.8759Z" fill="#7979A3"/>
<path d="M12.1241 8.44725L13.267 9.5901L12.1242 10.733L10.9813 9.5901L12.1241 8.44725Z" fill="#7979A3"/>
<path d="M10.9813 16.4473L9.83847 15.3044L8.69557 16.4473L9.83848 17.5901L10.9813 16.4473Z" fill="#7979A3"/>
<path d="M7.55271 13.0187L8.69562 14.1615L7.55271 15.3044L6.40986 14.1615L7.55271 13.0187Z" fill="#7979A3"/>
</svg>
