<svg width="21" height="15" viewBox="0 0 21 15" fill="none" xmlns="http://www.w3.org/2000/svg">
<path d="M17.8622 1.11454L8.23675 9.93818L4.01311 5.71454C3.84431 5.54562 3.64388 5.41159 3.42327 5.32012C3.20267 5.22865 2.96621 5.18153 2.7274 5.18145C2.24509 5.18128 1.78246 5.37271 1.4413 5.71363C1.10013 6.05456 0.908374 6.51705 0.908203 6.99935C0.908033 7.48166 1.09947 7.94429 1.44039 8.28545L6.89493 13.74C7.22626 14.0714 7.67275 14.262 8.14125 14.2722C8.60975 14.2824 9.06409 14.1112 9.40948 13.7945L20.3186 3.79455C20.674 3.46857 20.8853 3.01477 20.9061 2.53297C20.9269 2.05117 20.7554 1.58084 20.4295 1.22546C20.1035 0.870065 19.6497 0.658724 19.1679 0.637924C18.6861 0.617125 18.2158 0.788569 17.8604 1.11454H17.8622Z" fill="#53D47F"/>
</svg>
