<svg width="24" height="24" viewBox="0 0 24 24" fill="none" xmlns="http://www.w3.org/2000/svg">
<g clip-path="url(#clip0_1984_7415)">
<mask id="path-1-outside-1_1984_7415" maskUnits="userSpaceOnUse" x="0.0527344" y="-0.75" width="24" height="25" fill="black">
<rect fill="white" x="0.0527344" y="-0.75" width="24" height="25"/>
<path d="M6.33957 23.75H17.6646C19.5946 23.75 21.3146 22.745 22.2596 21.065C23.2096 19.385 23.1746 17.395 22.1796 15.74L16.6546 6.615H18.4396C18.8538 6.615 19.1896 6.27921 19.1896 5.865C19.1896 5.45079 18.8538 5.115 18.4396 5.115H16.5746L18.8296 1.385C18.9696 1.155 18.9746 0.865 18.8396 0.63C18.7046 0.395 18.4546 0.25 18.1846 0.25H5.80957C5.53957 0.25 5.28957 0.395 5.15457 0.63C5.01957 0.865 5.02457 1.155 5.16457 1.385L7.41957 5.115H5.55457C5.14035 5.115 4.80457 5.45079 4.80457 5.865C4.80457 6.27921 5.14035 6.615 5.55457 6.615H7.33957L1.82457 15.74C0.824566 17.39 0.794566 19.38 1.74457 21.065C2.68957 22.745 4.40957 23.75 6.33957 23.75ZM16.8546 1.75L14.8596 5.05H9.13957L7.14457 1.75H16.8546ZM3.10457 16.52L9.09457 6.62H14.8946L20.8846 16.52C21.5996 17.7 21.6196 19.125 20.9446 20.33C20.2696 21.535 19.0346 22.25 17.6546 22.25H6.33957C4.95957 22.25 3.72957 21.53 3.04957 20.33C2.36957 19.125 2.38957 17.7 3.10457 16.52Z"/>
</mask>
<path d="M6.33957 23.75H17.6646C19.5946 23.75 21.3146 22.745 22.2596 21.065C23.2096 19.385 23.1746 17.395 22.1796 15.74L16.6546 6.615H18.4396C18.8538 6.615 19.1896 6.27921 19.1896 5.865C19.1896 5.45079 18.8538 5.115 18.4396 5.115H16.5746L18.8296 1.385C18.9696 1.155 18.9746 0.865 18.8396 0.63C18.7046 0.395 18.4546 0.25 18.1846 0.25H5.80957C5.53957 0.25 5.28957 0.395 5.15457 0.63C5.01957 0.865 5.02457 1.155 5.16457 1.385L7.41957 5.115H5.55457C5.14035 5.115 4.80457 5.45079 4.80457 5.865C4.80457 6.27921 5.14035 6.615 5.55457 6.615H7.33957L1.82457 15.74C0.824566 17.39 0.794566 19.38 1.74457 21.065C2.68957 22.745 4.40957 23.75 6.33957 23.75ZM16.8546 1.75L14.8596 5.05H9.13957L7.14457 1.75H16.8546ZM3.10457 16.52L9.09457 6.62H14.8946L20.8846 16.52C21.5996 17.7 21.6196 19.125 20.9446 20.33C20.2696 21.535 19.0346 22.25 17.6546 22.25H6.33957C4.95957 22.25 3.72957 21.53 3.04957 20.33C2.36957 19.125 2.38957 17.7 3.10457 16.52Z" fill="#FAFAFF"/>
<path d="M22.2596 21.065L22.129 20.9912L22.1288 20.9915L22.2596 21.065ZM22.1796 15.74L22.3081 15.6627L22.3079 15.6623L22.1796 15.74ZM16.6546 6.615V6.465H16.3884L16.5263 6.69269L16.6546 6.615ZM16.5746 5.115L16.4462 5.0374L16.3086 5.265H16.5746V5.115ZM18.8296 1.385L18.7014 1.30701L18.7012 1.3074L18.8296 1.385ZM5.16457 1.385L5.29293 1.3074L5.2927 1.30701L5.16457 1.385ZM7.41957 5.115V5.265H7.68553L7.54793 5.0374L7.41957 5.115ZM7.33957 6.615L7.46794 6.69259L7.60549 6.465H7.33957V6.615ZM1.82457 15.74L1.95285 15.8177L1.95294 15.8176L1.82457 15.74ZM1.74457 21.065L1.8753 20.9915L1.87523 20.9913L1.74457 21.065ZM16.8546 1.75L16.9829 1.8276L17.1205 1.6H16.8546V1.75ZM14.8596 5.05V5.2H14.9442L14.9879 5.1276L14.8596 5.05ZM9.13957 5.05L9.0112 5.1276L9.05497 5.2H9.13957V5.05ZM7.14457 1.75V1.6H6.8786L7.0162 1.8276L7.14457 1.75ZM3.10457 16.52L3.23285 16.5977L3.2329 16.5977L3.10457 16.52ZM9.09457 6.62V6.47H9.01001L8.96623 6.54235L9.09457 6.62ZM14.8946 6.62L15.0229 6.54235L14.9791 6.47H14.8946V6.62ZM20.8846 16.52L20.7562 16.5977L20.7563 16.5977L20.8846 16.52ZM3.04957 20.33L2.91893 20.4037L2.91906 20.404L3.04957 20.33ZM6.33957 23.9H17.6646V23.6H6.33957V23.9ZM17.6646 23.9C19.6487 23.9 21.4187 22.8659 22.3903 21.1385L22.1288 20.9915C21.2104 22.6242 19.5405 23.6 17.6646 23.6V23.9ZM22.3901 21.1388C23.367 19.4113 23.3307 17.3636 22.3081 15.6627L22.051 15.8173C23.0184 17.4264 23.0521 19.3587 22.129 20.9912L22.3901 21.1388ZM22.3079 15.6623L16.7829 6.53731L16.5263 6.69269L22.0513 15.8177L22.3079 15.6623ZM16.6546 6.765H18.4396V6.465H16.6546V6.765ZM18.4396 4.965H16.5746V5.265H18.4396V4.965ZM16.7029 5.1926L18.9579 1.4626L18.7012 1.3074L16.4462 5.0374L16.7029 5.1926ZM18.9577 1.46299C19.1259 1.18659 19.1321 0.838065 18.9696 0.555281L18.7095 0.704719C18.8171 0.891935 18.8132 1.12341 18.7014 1.30701L18.9577 1.46299ZM18.9696 0.555281C18.808 0.27391 18.5085 0.1 18.1846 0.1V0.4C18.4006 0.4 18.6011 0.51609 18.7095 0.704719L18.9696 0.555281ZM18.1846 0.1H5.80957V0.4H18.1846V0.1ZM5.80957 0.1C5.48563 0.1 5.18614 0.27391 5.0245 0.555281L5.28463 0.704719C5.39299 0.51609 5.5935 0.4 5.80957 0.4V0.1ZM5.0245 0.555281C4.86205 0.838065 4.86819 1.18658 5.03644 1.46299L5.2927 1.30701C5.18094 1.12342 5.17708 0.891935 5.28463 0.704719L5.0245 0.555281ZM5.0362 1.4626L7.2912 5.1926L7.54793 5.0374L5.29293 1.3074L5.0362 1.4626ZM7.41957 4.965H5.55457V5.265H7.41957V4.965ZM5.55457 6.765H7.33957V6.465H5.55457V6.765ZM7.21119 6.53741L1.69619 15.6624L1.95294 15.8176L7.46794 6.69259L7.21119 6.53741ZM1.69629 15.6623C0.668119 17.3587 0.637373 19.4066 1.6139 21.1387L1.87523 20.9913C0.951759 19.3534 0.981013 17.4213 1.95285 15.8177L1.69629 15.6623ZM1.61383 21.1385C2.58544 22.8659 4.35547 23.9 6.33957 23.9V23.6C4.46367 23.6 2.79369 22.6242 1.8753 20.9915L1.61383 21.1385ZM16.7262 1.6724L14.7312 4.9724L14.9879 5.1276L16.9829 1.8276L16.7262 1.6724ZM14.8596 4.9H9.13957V5.2H14.8596V4.9ZM9.26793 4.9724L7.27293 1.6724L7.0162 1.8276L9.0112 5.1276L9.26793 4.9724ZM7.14457 1.9H16.8546V1.6H7.14457V1.9ZM3.2329 16.5977L9.2229 6.69765L8.96623 6.54235L2.97623 16.4424L3.2329 16.5977ZM9.09457 6.77H14.8946V6.47H9.09457V6.77ZM14.7662 6.69765L20.7562 16.5977L21.0129 16.4424L15.0229 6.54235L14.7662 6.69765ZM20.7563 16.5977C21.4431 17.7312 21.4625 19.0985 20.8137 20.2567L21.0754 20.4033C21.7766 19.1515 21.7561 17.6688 21.0129 16.4423L20.7563 16.5977ZM20.8137 20.2567C20.1655 21.4138 18.9809 22.1 17.6546 22.1V22.4C19.0882 22.4 20.3736 21.6562 21.0754 20.4033L20.8137 20.2567ZM17.6546 22.1H6.33957V22.4H17.6546V22.1ZM6.33957 22.1C5.01382 22.1 3.83355 21.4093 3.18007 20.256L2.91906 20.404C3.62558 21.6507 4.90531 22.4 6.33957 22.4V22.1ZM3.1802 20.2563C2.5267 19.0982 2.54608 17.7311 3.23285 16.5977L2.97628 16.4423C2.23305 17.6689 2.21243 19.1518 2.91893 20.4037L3.1802 20.2563ZM4.65457 5.865C4.65457 6.36206 5.05751 6.765 5.55457 6.765V6.465C5.2232 6.465 4.95457 6.19637 4.95457 5.865H4.65457ZM19.3396 5.865C19.3396 5.36794 18.9366 4.965 18.4396 4.965V5.265C18.7709 5.265 19.0396 5.53363 19.0396 5.865H19.3396ZM5.55457 4.965C5.05751 4.965 4.65457 5.36794 4.65457 5.865H4.95457C4.95457 5.53363 5.2232 5.265 5.55457 5.265V4.965ZM18.4396 6.765C18.9366 6.765 19.3396 6.36206 19.3396 5.865H19.0396C19.0396 6.19637 18.7709 6.465 18.4396 6.465V6.765Z" fill="#FAFAFF" mask="url(#path-1-outside-1_1984_7415)"/>
<path d="M15 14H13V12C13 11.7348 12.8946 11.4804 12.7071 11.2929C12.5196 11.1054 12.2652 11 12 11C11.7348 11 11.4804 11.1054 11.2929 11.2929C11.1054 11.4804 11 11.7348 11 12V14H9C8.73478 14 8.48043 14.1054 8.29289 14.2929C8.10536 14.4804 8 14.7348 8 15C8 15.2652 8.10536 15.5196 8.29289 15.7071C8.48043 15.8946 8.73478 16 9 16H11V18C11 18.2652 11.1054 18.5196 11.2929 18.7071C11.4804 18.8946 11.7348 19 12 19C12.2652 19 12.5196 18.8946 12.7071 18.7071C12.8946 18.5196 13 18.2652 13 18V16H15C15.2652 16 15.5196 15.8946 15.7071 15.7071C15.8946 15.5196 16 15.2652 16 15C16 14.7348 15.8946 14.4804 15.7071 14.2929C15.5196 14.1054 15.2652 14 15 14Z" fill="#FAFAFF"/>
</g>
<defs>
<clipPath id="clip0_1984_7415">
<rect width="24" height="24" fill="white"/>
</clipPath>
</defs>
</svg>
