<svg width="24" height="24" viewBox="0 0 24 24" fill="none" xmlns="http://www.w3.org/2000/svg">
<path d="M11.3848 14.5354H18.4701C19.2139 14.5354 19.8174 13.9318 19.8174 13.1872V7.19363C19.8174 6.44904 19.2139 5.84553 18.4701 5.84553H11.3848C10.6402 5.84553 10.0367 6.44904 10.0367 7.19363V13.1872C10.0367 13.9318 10.6402 14.5354 11.3848 14.5354ZM14.1907 6.97766H15.6633V9.51711H14.1907V6.97766ZM11.1688 6.97766H12.9715V9.95516C12.9715 10.3871 13.3207 10.7363 13.7527 10.7363H16.1014C16.5333 10.7363 16.8825 10.3871 16.8825 9.95516V6.97766H18.6852V13.4032H11.1688V6.97766Z" fill="#7979A3"/>
<path d="M17.4635 5.08443C17.784 5.08443 18.0444 4.82404 18.0444 4.50356V0.58087C18.0444 0.26039 17.784 0 17.4635 0C17.143 0 16.8826 0.26039 16.8826 0.58087V4.50356C16.8826 4.82404 17.143 5.08443 17.4635 5.08443Z" fill="#7979A3"/>
<path d="M14.9276 5.08443C15.248 5.08443 15.5084 4.82404 15.5084 4.50356V2.5142C15.5084 2.19372 15.248 1.93333 14.9276 1.93333C14.6071 1.93333 14.3467 2.19372 14.3467 2.5142V4.50356C14.3467 4.82404 14.6071 5.08443 14.9276 5.08443Z" fill="#7979A3"/>
<path d="M12.9725 3.6681C12.9725 3.3473 12.7124 3.08723 12.3916 3.08723C12.0708 3.08723 11.8107 3.3473 11.8107 3.6681V4.50268C11.8107 4.82349 12.0708 5.08355 12.3916 5.08355C12.7124 5.08355 12.9725 4.82349 12.9725 4.50268V3.6681Z" fill="#7979A3"/>
<path d="M22.5223 17.5338C22.1104 16.71 21.122 15.887 19.2278 16.6281C17.3328 17.3692 15.1914 18.3167 15.1914 18.3167C15.1914 18.3167 15.1182 16.9573 12.9724 16.0516C10.8257 15.145 9.01346 14.4448 9.01346 14.4448C9.01346 14.4448 8.27236 14.1 7.73677 14.1C7.20119 14.1 5.9245 14.3212 4.93607 15.4751C4.46755 15.8913 3.42164 16.5227 2.71624 16.9303C2.29474 17.1733 2.07442 17.6566 2.16499 18.1347L2.87561 21.8899C2.9627 22.3462 3.42687 22.6266 3.87014 22.489C4.59818 22.2635 5.64496 21.9822 6.33642 21.9822C7.48945 21.9822 12.0293 24 12.9724 24C13.9156 24 20.5454 20.5409 21.4929 20.0463C22.4404 19.5525 22.9342 18.3576 22.5223 17.5338ZM20.9696 19.043C16.2756 21.4919 13.5872 22.7129 12.9445 22.8626C12.5283 22.7982 11.2124 22.3218 10.3285 22.0031C8.34464 21.2855 7.08624 20.8501 6.33642 20.8501C5.74424 20.8501 4.93085 20.999 3.91542 21.2933L3.27708 17.9239C3.27621 17.9187 3.27795 17.9126 3.2823 17.91C4.45362 17.2342 5.26265 16.6995 5.6885 16.3207L5.74598 16.2702L5.79562 16.2118C6.62555 15.2434 7.69149 15.2321 7.73677 15.2321C7.89614 15.2321 8.29151 15.3592 8.53797 15.4724L8.57019 15.4873L8.6059 15.5012C8.62331 15.5082 10.4277 16.2057 12.5318 17.094C13.7841 17.6235 13.9016 18.0929 13.8041 18.5423C13.7153 18.9507 13.3704 19.3234 12.6284 19.0474C11.8864 18.7713 11.1593 18.4404 10.5723 18.1817C9.98534 17.9231 9.347 17.8194 9.17457 18.2331C9.00214 18.6476 9.32958 18.9577 10.21 19.3374C11.0896 19.7171 11.8795 20.0105 12.4081 20.2178C12.9367 20.4251 13.3329 20.4425 13.8511 20.2004C14.3684 19.9592 17.7909 18.4055 19.6397 17.6818C19.9985 17.5425 20.3181 17.4711 20.5899 17.4711C20.7466 17.4711 21.2256 17.4711 21.5104 18.0406C21.6201 18.261 21.4172 18.8087 20.9696 19.043Z" fill="#7979A3"/>
</svg>
