<svg width="24" height="24" viewBox="0 0 24 24" fill="none" xmlns="http://www.w3.org/2000/svg">
<path d="M21 8H9C8.73478 8 8.48043 8.10536 8.29289 8.29289C8.10536 8.48043 8 8.73478 8 9V21C8 21.2652 8.10536 21.5196 8.29289 21.7071C8.48043 21.8946 8.73478 22 9 22H21C21.2652 22 21.5196 21.8946 21.7071 21.7071C21.8946 21.5196 22 21.2652 22 21V9C22 8.73478 21.8946 8.48043 21.7071 8.29289C21.5196 8.10536 21.2652 8 21 8ZM20 20H10V10H20V20Z" fill="#FAFAFF"/>
<path d="M5 14H4V4H14V5C14 5.26522 14.1054 5.51957 14.2929 5.70711C14.4804 5.89464 14.7348 6 15 6C15.2652 6 15.5196 5.89464 15.7071 5.70711C15.8946 5.51957 16 5.26522 16 5V3C16 2.73478 15.8946 2.48043 15.7071 2.29289C15.5196 2.10536 15.2652 2 15 2H3C2.73478 2 2.48043 2.10536 2.29289 2.29289C2.10536 2.48043 2 2.73478 2 3V15C2 15.2652 2.10536 15.5196 2.29289 15.7071C2.48043 15.8946 2.73478 16 3 16H5C5.26522 16 5.51957 15.8946 5.70711 15.7071C5.89464 15.5196 6 15.2652 6 15C6 14.7348 5.89464 14.4804 5.70711 14.2929C5.51957 14.1054 5.26522 14 5 14Z" fill="#FAFAFF"/>
</svg>
