<svg width="24" height="24" viewBox="0 0 24 24" fill="none" xmlns="http://www.w3.org/2000/svg">
<path d="M1.02535 24V22.638H5.78192L4.21921 21.2148C3.29935 20.3771 2.38014 19.5395 1.46028 18.7026C0.881253 18.1749 0.858224 17.915 1.33658 17.3136L2.30842 16.0937C3.41186 14.7086 4.55281 13.2762 5.66809 11.8628C5.74442 11.7654 5.80495 11.6233 5.8214 11.5003C5.86022 11.2107 5.89707 10.9199 5.93392 10.6291C6.10039 9.3072 6.27278 7.9399 6.68863 6.62459C6.85707 6.09162 7.1025 5.58958 7.33937 5.10465C7.39728 4.98621 7.45518 4.86777 7.51177 4.74934C7.61573 4.53286 7.8197 4.33283 8.04473 4.22821C8.47637 4.02555 8.90801 3.8196 9.33965 3.61365C11.255 2.70103 13.2356 1.75682 15.2852 1.03369C17.0065 0.425058 18.56 0.0914599 20.0352 0.0125017C20.1938 0.00394791 20.355 0 20.5287 0C20.7399 0 20.9669 0.00657985 21.2235 0.0190816C21.8308 0.0513228 22.046 0.280302 22.0473 0.894202C22.0473 1.2357 22.048 1.57719 22.0486 1.91868C22.0506 3.0162 22.0526 4.15057 22.0453 5.26651C22.0447 5.4139 22.0473 5.53694 22.0493 5.6363C22.0644 6.3081 21.9697 6.4522 21.3255 6.73579C21.2367 6.77461 21.1393 6.81804 21.0255 6.87068C20.0056 7.34311 19.0002 7.79844 17.8856 8.3018C17.8652 8.31101 17.8507 8.31824 17.8395 8.32351C17.7763 9.73949 17.1953 10.9976 16.1143 12.0635C15.9715 12.2036 15.8386 12.3622 15.6853 12.5451C15.6839 12.5471 15.682 12.5491 15.68 12.5511C15.853 12.7116 16.0432 12.8886 16.2281 13.0682C16.4827 13.315 16.7354 13.5696 16.9802 13.8157L17.2105 14.0467C17.6829 14.5211 17.6914 14.8369 17.244 15.3462C16.2123 16.5227 11.2011 22.2366 11.2011 22.2366C11.0886 22.3643 10.9774 22.4919 10.8629 22.6235H19.3443V23.9993L1.02535 24ZM2.65715 17.9163C3.08024 18.3025 3.51319 18.6927 3.93233 19.0704L3.93957 19.077C4.97589 20.0113 6.04709 20.9772 7.06697 21.9675C7.57493 22.461 8.00525 22.6715 8.50598 22.6715C8.59481 22.6715 8.6889 22.6649 8.78497 22.6511C9.00605 22.6202 9.06132 22.5992 9.13172 22.5182C10.8175 20.5844 12.5375 18.6223 14.2002 16.7253C14.2002 16.7253 15.351 15.4126 15.9136 14.7698L14.5844 13.4262C14.3989 13.5848 14.2133 13.744 14.0278 13.9032L13.9501 13.9697C13.6067 14.2645 13.2626 14.5599 12.9171 14.8534C12.3756 15.3133 11.8624 15.5673 11.3011 15.6528C11.1985 15.6686 11.0958 15.6765 10.9965 15.6765C10.4727 15.6765 10.02 15.4541 9.75484 15.0672C9.48111 14.6678 9.44098 14.1388 9.64429 13.6163C9.75747 13.3255 9.92657 13.036 10.1345 12.78C10.4497 12.3892 10.7833 12.0063 11.1057 11.6351L11.1136 11.6259C11.2373 11.4838 11.3616 11.341 11.484 11.1982C11.5353 11.139 11.6275 11.0318 11.7025 10.9449C11.0458 10.2804 10.403 9.62961 9.75615 8.97557C8.14409 11.0009 6.52413 13.0347 4.89957 15.0751L2.64531 17.9057C2.64926 17.909 2.65386 17.913 2.65715 17.9163Z" fill="#FAFAFF"/>
</svg>
