<svg width="24" height="24" viewBox="0 0 24 24" fill="none" xmlns="http://www.w3.org/2000/svg">
<path d="M10.1383 10.6298H10.1382C9.85895 10.6298 9.59116 10.7408 9.39372 10.9382C9.19628 11.1357 9.08536 11.4035 9.08537 11.6827C9.08538 11.962 9.19631 12.2298 9.39376 12.4272C9.59122 12.6247 9.85901 12.7356 10.1382 12.7356C10.4175 12.7356 10.6853 12.6247 10.8827 12.4272C11.0802 12.2298 11.1911 11.962 11.1911 11.6827C11.1911 11.4035 11.0802 11.1357 10.8828 10.9382C10.6853 10.7408 10.4176 10.6298 10.1383 10.6298ZM13.8926 10.6298C13.6627 10.6103 13.4322 10.6607 13.2314 10.7744C13.0306 10.8881 12.8688 11.0597 12.7671 11.2669C12.6655 11.4741 12.6288 11.7071 12.6618 11.9355C12.6948 12.1638 12.796 12.3769 12.9521 12.5468C13.1083 12.7167 13.312 12.8356 13.5368 12.8877C13.7616 12.9399 13.9969 12.9229 14.2119 12.8392C14.4269 12.7554 14.6116 12.6086 14.7418 12.4181C14.872 12.2276 14.9417 12.0022 14.9417 11.7715C14.9478 11.6276 14.9255 11.484 14.8761 11.3487C14.8267 11.2135 14.7511 11.0893 14.6537 10.9832C14.5563 10.8772 14.4389 10.7914 14.3083 10.7308C14.1777 10.6701 14.0364 10.6358 13.8926 10.6298ZM18.8914 2.00012H5.10865C4.83106 2.00078 4.55632 2.05611 4.30012 2.16295C4.04391 2.26979 3.81126 2.42605 3.61545 2.62281C3.41965 2.81957 3.26451 3.05297 3.15891 3.30969C3.05331 3.56641 2.99932 3.84141 3.00001 4.119V18.0253C2.99933 18.3029 3.05333 18.5779 3.15894 18.8346C3.26454 19.0913 3.41968 19.3247 3.61548 19.5214C3.81129 19.7182 4.04394 19.8744 4.30013 19.9813C4.55633 20.0881 4.83106 20.1434 5.10865 20.1441H16.7726L16.2274 18.2412L17.544 19.4652L18.7886 20.6172L21 22.5715V4.119C21.0007 3.84141 20.9467 3.56641 20.8411 3.30969C20.7355 3.05297 20.5804 2.81957 20.3846 2.62281C20.1887 2.42605 19.9561 2.26979 19.6999 2.16295C19.4437 2.05611 19.1689 2.00078 18.8914 2.00012ZM14.9211 15.4332V15.4333C14.9211 15.4333 14.5508 14.991 14.2422 14.6001C14.9878 14.4246 15.6473 13.991 16.104 13.3761C15.7339 13.6224 15.3371 13.826 14.9211 13.9829C14.4426 14.1872 13.9422 14.3356 13.4297 14.4252C12.5488 14.5874 11.6454 14.5839 10.7658 14.415C10.2493 14.3139 9.74318 14.1659 9.25366 13.9727C8.99567 13.8735 8.7448 13.7566 8.50281 13.623C8.47192 13.6024 8.44117 13.5921 8.41029 13.5715C8.39481 13.5639 8.38086 13.5534 8.36914 13.5407C8.18408 13.4379 8.08106 13.3658 8.08106 13.3658C8.5213 13.9678 9.15798 14.3971 9.8811 14.5795C9.57263 14.9705 9.19203 15.4332 9.19203 15.4332C8.58104 15.4497 7.97537 15.3157 7.42834 15.0431C6.8813 14.7705 6.40966 14.3676 6.05494 13.8698C6.08833 11.7846 6.59475 9.73421 7.53601 7.87323C8.36436 7.22266 9.37426 6.84529 10.4263 6.79323L10.529 6.91671C9.53931 7.16161 8.61572 7.62166 7.82401 8.2641C7.82401 8.2641 8.05033 8.14069 8.43083 7.96582C9.17021 7.6283 9.95824 7.40962 10.7658 7.31787C10.8234 7.30589 10.8819 7.29898 10.9407 7.29724C11.63 7.20746 12.3275 7.20057 13.0184 7.27673C14.1049 7.40079 15.1567 7.73621 16.1144 8.2641C15.3628 7.65231 14.4899 7.20707 13.5534 6.95782L13.6973 6.79333C14.7493 6.84535 15.7592 7.22272 16.5876 7.87333C17.5289 9.73426 18.0354 11.7847 18.0688 13.8699C17.7111 14.3671 17.2374 14.7695 16.6889 15.042C16.1403 15.3144 15.5335 15.4488 14.9211 15.4332Z" fill="#F9F9F9"/>
</svg>
