<svg width="24" height="24" viewBox="0 0 24 24" fill="none" xmlns="http://www.w3.org/2000/svg">
<path fill-rule="evenodd" clip-rule="evenodd" d="M6 1.25C6.55228 1.25 7 1.69772 7 2.25C7 3.09546 7.45057 3.76519 8.4297 4.41795C9.43926 5.09099 10.8191 5.61416 12.3511 6.18867C12.3736 6.19711 12.3962 6.20557 12.4188 6.21404C13.8687 6.75767 15.4583 7.35367 16.6797 8.16795C17.9506 9.01519 19 10.2205 19 12C19 13.7795 17.9506 14.9848 16.6797 15.8321C15.4583 16.6463 13.8687 17.2423 12.4188 17.786L12.3511 17.8113C10.8191 18.3858 9.43926 18.909 8.4297 19.5821C7.45057 20.2348 7 20.9045 7 21.75C7 22.3023 6.55228 22.75 6 22.75C5.44772 22.75 5 22.3023 5 21.75C5 19.9705 6.04943 18.7652 7.3203 17.9179C8.54172 17.1037 10.1313 16.5077 11.5812 15.964L11.6489 15.9387C13.1809 15.3642 14.5607 14.841 15.5703 14.1679C16.5494 13.5152 17 12.8455 17 12C17 11.1545 16.5494 10.4848 15.5703 9.83205C14.5607 9.15901 13.1809 8.63584 11.6489 8.06133C11.6264 8.05289 11.6038 8.04443 11.5812 8.03596C10.1313 7.49233 8.54172 6.89633 7.3203 6.08205C6.04943 5.23481 5 4.02954 5 2.25C5 1.69772 5.44772 1.25 6 1.25Z" fill="#FAFAFF"/>
<path fill-rule="evenodd" clip-rule="evenodd" d="M18 1.25C18.5523 1.25 19 1.69772 19 2.25C19 4.02954 17.9506 5.23481 16.6797 6.08205C15.4583 6.89633 13.8687 7.49233 12.4188 8.03596C12.3962 8.04443 12.3736 8.05289 12.3511 8.06133C10.8191 8.63584 9.43926 9.15901 8.4297 9.83205C7.45057 10.4848 7 11.1545 7 12C7 12.8455 7.45057 13.5152 8.4297 14.1679C9.43926 14.841 10.8191 15.3642 12.3511 15.9387L12.4188 15.964C13.8687 16.5077 15.4583 17.1037 16.6797 17.9179C17.9506 18.7652 19 19.9705 19 21.75C19 22.3023 18.5523 22.75 18 22.75C17.4477 22.75 17 22.3023 17 21.75C17 20.9045 16.5494 20.2348 15.5703 19.5821C14.5607 18.909 13.1809 18.3858 11.6489 17.8113L11.5812 17.786C10.1313 17.2423 8.54172 16.6463 7.3203 15.8321C6.04943 14.9848 5 13.7795 5 12C5 10.2205 6.04943 9.01519 7.3203 8.16795C8.54172 7.35367 10.1313 6.75767 11.5812 6.21404C11.6038 6.20557 11.6264 6.19711 11.6489 6.18867C13.1809 5.61416 14.5607 5.09099 15.5703 4.41795C16.5494 3.76519 17 3.09546 17 2.25C17 1.69772 17.4477 1.25 18 1.25Z" fill="#FAFAFF"/>
</svg>
