<svg width="28" height="28" viewBox="0 0 28 28" fill="none" xmlns="http://www.w3.org/2000/svg">
<path fill-rule="evenodd" clip-rule="evenodd" d="M20.2599 1.22177C20.4999 1.18457 20.7305 1.16596 20.9519 1.16596C24.6666 1.16596 25.7938 6.39852 23.1413 13.1173C20.3306 20.2379 14.8246 26.049 10.5705 26.7651C7.17762 27.3362 5.88297 24.2502 6.24011 20.0538C6.09874 23.9861 8.05932 25.2138 10.0608 24.799C13.6174 24.0623 18.1561 19.2316 20.6933 13.1173C23.3459 6.72776 22.0643 1.16596 17.8399 2.28204C17.5423 2.36017 17.2409 2.46248 16.934 2.58525C18.1152 1.85607 19.2536 1.38174 20.2599 1.22177ZM14.4357 16.9435H9.28503C8.97253 18.227 7.81553 19.1794 6.43531 19.1794C4.81327 19.1794 3.50002 17.8643 3.50002 16.2441C3.50002 14.6239 4.81327 13.3088 6.43531 13.3088C7.81553 13.3088 8.97253 14.2631 9.28503 15.5465H14.1772C14.2125 14.9308 14.4376 14.3691 14.7947 13.9134L12.4882 12.0197C12.0548 12.2709 11.5525 12.4159 11.0168 12.4159C9.39478 12.4159 8.08153 11.1008 8.08153 9.48066C8.08153 7.86048 9.39478 6.54537 11.0168 6.54537C12.397 6.54537 13.554 7.49775 13.8665 8.78125H21.5563C21.4875 9.23512 21.3945 9.70387 21.2754 10.1801H13.8665C13.7921 10.4888 13.6656 10.779 13.5001 11.0432L15.9276 13.0335C16.2866 12.8773 16.6846 12.788 17.1013 12.788C18.2416 12.788 19.2312 13.4372 19.7148 14.3877C18.9763 15.9186 18.1039 17.362 17.1571 18.6567C17.1385 18.6586 17.1199 18.6586 17.1013 18.6586C15.9183 18.6586 14.8989 17.9536 14.4357 16.9435Z" fill="white"/>
</svg>
