<svg width="28" height="28" viewBox="0 0 28 28" fill="none" xmlns="http://www.w3.org/2000/svg">
<path d="M19.2959 3.22294V9.88432L14.4105 12.9899C14.1601 13.149 13.8399 13.149 13.5895 12.9899L8.70408 9.88432V3.18606C8.70408 2.68335 8.14897 2.37862 7.7239 2.64841L2.59199 5.91117C2.22321 6.14603 2 6.55169 2 6.98841V21.0119C2 21.4486 2.22321 21.8542 2.59199 22.0891L7.7239 25.3518C8.14897 25.6216 8.70408 25.3169 8.70408 24.8142V18.1237L13.5895 15.0162C13.8399 14.8571 14.1601 14.8571 14.4105 15.0162L19.2959 18.1237V24.7657C19.2959 25.2684 19.851 25.5731 20.2761 25.3033L25.408 22.0406C25.7768 21.8057 26 21.4 26 20.9633V7.02334C26 6.58663 25.7768 6.18097 25.408 5.94611L20.2761 2.68335C19.851 2.41356 19.2959 2.71829 19.2959 3.221V3.22294ZM24.7326 20.0763L20.5614 17.425V10.5811L24.7326 7.92783V20.0763ZM20.5614 4.36811L24.2667 6.72443L20.5614 9.07882V4.36811ZM7.43664 4.33123V9.08076L3.70222 6.70503L7.43664 4.32929V4.33123ZM7.43664 17.4269L3.26551 20.0783V7.92783L7.43664 10.5811V17.425V17.4269ZM7.43664 23.669L3.70805 21.2991L7.43664 18.9292V23.671V23.669ZM8.70408 16.6214V11.3886L12.8209 14.005L8.70408 16.6214ZM15.1811 14.005L19.2979 11.3886V16.6214L15.1811 14.005ZM20.5634 23.6224V18.9292L24.2551 21.2758L20.5634 23.6224Z" fill="#FAFAFF"/>
</svg>
