<svg width="24" height="24" viewBox="0 0 24 24" fill="none" xmlns="http://www.w3.org/2000/svg">
<path d="M12 3C10.22 3 8.47991 3.52784 6.99987 4.51677C5.51983 5.50571 4.36628 6.91131 3.68509 8.55585C3.0039 10.2004 2.82567 12.01 3.17294 13.7558C3.5202 15.5016 4.37737 17.1053 5.63604 18.364C6.89472 19.6226 8.49836 20.4798 10.2442 20.8271C11.99 21.1743 13.7996 20.9961 15.4442 20.3149C17.0887 19.6337 18.4943 18.4802 19.4832 17.0001C20.4722 15.5201 21 13.78 21 12C20.9972 9.61392 20.0481 7.32637 18.3609 5.63915C16.6736 3.95193 14.3861 3.00281 12 3ZM12 19.3636C10.5436 19.3636 9.11993 18.9318 7.90899 18.1226C6.69804 17.3135 5.75423 16.1635 5.19689 14.8179C4.63955 13.4724 4.49373 11.9918 4.77786 10.5634C5.06199 9.13502 5.7633 7.82295 6.79313 6.79312C7.82295 5.7633 9.13503 5.06198 10.5634 4.77785C11.9918 4.49373 13.4724 4.63955 14.8179 5.19689C16.1635 5.75422 17.3135 6.69804 18.1226 7.90898C18.9318 9.11993 19.3636 10.5436 19.3636 12C19.3613 13.9522 18.5847 15.8238 17.2043 17.2042C15.8238 18.5847 13.9522 19.3613 12 19.3636Z" fill="#FAFAFF"/>
<path fill-rule="evenodd" clip-rule="evenodd" d="M12 17C12.5523 17 13 16.5523 13 16L13 11C13 10.4477 12.5523 10 12 10C11.4477 10 11 10.4477 11 11L11 16C11 16.5523 11.4477 17 12 17ZM12 7C11.4477 7 11 7.44771 11 8C11 8.55229 11.4477 9 12 9C12.5523 9 13 8.55229 13 8C13 7.44771 12.5523 7 12 7Z" fill="#FAFAFF"/>
</svg>
