<svg width="24" height="24" viewBox="0 0 24 24" fill="none" xmlns="http://www.w3.org/2000/svg">
<path d="M6.8042 15C6.7386 14.8862 6.6512 14.7864 6.54702 14.7064C6.44283 14.6264 6.32389 14.5677 6.19701 14.5337C6.07012 14.4997 5.93778 14.491 5.80754 14.5082C5.67731 14.5254 5.55173 14.5681 5.438 14.6338L3.70558 15.6338C3.47599 15.7665 3.30849 15.9849 3.2399 16.241C3.17131 16.4972 3.20725 16.7701 3.33981 16.9997C3.47238 17.2294 3.69072 17.397 3.94683 17.4657C4.20294 17.5345 4.47586 17.4987 4.70558 17.3662L6.438 16.3662C6.66762 16.2335 6.83516 16.0151 6.90382 15.7589C6.97249 15.5027 6.93666 15.2298 6.8042 15ZM3.70557 8.36621L5.43799 9.36621C5.55175 9.43195 5.67734 9.47463 5.8076 9.49182C5.93785 9.50901 6.07022 9.50036 6.19714 9.46638C6.32405 9.43239 6.44303 9.37374 6.54726 9.29376C6.6515 9.21378 6.73896 9.11405 6.80464 9.00026C6.87033 8.88647 6.91294 8.76085 6.93007 8.63058C6.94719 8.50032 6.93847 8.36796 6.90442 8.24106C6.87037 8.11416 6.81166 7.99522 6.73162 7.89102C6.65159 7.78682 6.55181 7.69941 6.43799 7.63379L4.70557 6.63379C4.47585 6.50134 4.20293 6.46555 3.94682 6.53427C3.69071 6.60299 3.47237 6.7706 3.3398 7.00026C3.20724 7.22991 3.1713 7.50281 3.23989 7.75896C3.30848 8.0151 3.47598 8.23353 3.70557 8.36621ZM6 12C6 11.7348 5.89464 11.4804 5.70711 11.2929C5.51957 11.1054 5.26522 11 5 11H3C2.73478 11 2.48043 11.1054 2.29289 11.2929C2.10536 11.4804 2 11.7348 2 12C2 12.2652 2.10536 12.5196 2.29289 12.7071C2.48043 12.8946 2.73478 13 3 13H5C5.26522 13 5.51957 12.8946 5.70711 12.7071C5.89464 12.5196 6 12.2652 6 12ZM17.1958 9C17.3285 9.22964 17.5469 9.39721 17.8031 9.46588C18.0593 9.53455 18.3322 9.4987 18.562 9.36621L20.2944 8.36621C20.4083 8.30059 20.508 8.21318 20.5881 8.10898C20.6681 8.00478 20.7268 7.88584 20.7609 7.75894C20.7949 7.63204 20.8036 7.49968 20.7865 7.36942C20.7694 7.23915 20.7268 7.11353 20.6611 6.99974C20.5954 6.88595 20.5079 6.78622 20.4037 6.70624C20.2995 6.62626 20.1805 6.56761 20.0536 6.53362C19.9267 6.49964 19.7943 6.49099 19.664 6.50818C19.5338 6.52537 19.4082 6.56805 19.2944 6.63379L17.562 7.63379C17.3324 7.76651 17.1648 7.98494 17.0962 8.24111C17.0275 8.49728 17.0633 8.77023 17.1958 9ZM15 6.8042C15.2298 6.93669 15.5027 6.97254 15.7589 6.90387C16.0151 6.83521 16.2335 6.66764 16.3662 6.438L17.3662 4.70558C17.432 4.59182 17.4746 4.46623 17.4918 4.33597C17.509 4.20572 17.5004 4.07335 17.4664 3.94643C17.4324 3.81952 17.3737 3.70054 17.2938 3.59631C17.2138 3.49207 17.114 3.40461 17.0003 3.33893C16.8865 3.27324 16.7608 3.23063 16.6306 3.21351C16.5003 3.19638 16.368 3.2051 16.2411 3.23915C16.1142 3.2732 15.9952 3.33191 15.891 3.41195C15.7868 3.49198 15.6994 3.59176 15.6338 3.70558L14.6338 5.438C14.5013 5.66777 14.4655 5.94072 14.5342 6.19688C14.6028 6.45305 14.7704 6.67148 15 6.8042ZM20.2944 15.6338L18.562 14.6338C18.4483 14.568 18.3227 14.5254 18.1924 14.5082C18.0621 14.491 17.9298 14.4996 17.8029 14.5336C17.6759 14.5676 17.557 14.6263 17.4527 14.7062C17.3485 14.7862 17.261 14.886 17.1954 14.9997C17.1297 15.1135 17.0871 15.2392 17.0699 15.3694C17.0528 15.4997 17.0615 15.632 17.0956 15.7589C17.1296 15.8858 17.1883 16.0048 17.2684 16.109C17.3484 16.2132 17.4482 16.3006 17.562 16.3662L19.2944 17.3662C19.5242 17.4987 19.7971 17.5345 20.0532 17.4657C20.3093 17.397 20.5276 17.2294 20.6602 16.9997C20.7928 16.7701 20.8287 16.4972 20.7601 16.241C20.6915 15.9849 20.524 15.7665 20.2944 15.6338ZM16.3662 17.562C16.3006 17.4482 16.2132 17.3484 16.109 17.2684C16.0048 17.1883 15.8858 17.1296 15.7589 17.0956C15.632 17.0615 15.4997 17.0528 15.3694 17.0699C15.2392 17.087 15.1135 17.1297 14.9997 17.1953C14.886 17.261 14.7862 17.3485 14.7062 17.4527C14.6263 17.557 14.5676 17.6759 14.5336 17.8029C14.4996 17.9298 14.491 18.0621 14.5082 18.1924C14.5254 18.3226 14.568 18.4482 14.6338 18.562L15.6338 20.2944C15.6994 20.4082 15.7868 20.508 15.891 20.5881C15.9952 20.6681 16.1142 20.7268 16.2411 20.7609C16.368 20.7949 16.5003 20.8036 16.6306 20.7865C16.7608 20.7694 16.8865 20.7268 17.0003 20.6611C17.114 20.5954 17.2138 20.5079 17.2938 20.4037C17.3737 20.2995 17.4324 20.1805 17.4664 20.0536C17.5004 19.9267 17.509 19.7943 17.4918 19.664C17.4746 19.5338 17.432 19.4082 17.3662 19.2944L16.3662 17.562ZM21 11H19C18.7348 11 18.4804 11.1054 18.2929 11.2929C18.1054 11.4804 18 11.7348 18 12C18 12.2652 18.1054 12.5196 18.2929 12.7071C18.4804 12.8946 18.7348 13 19 13H21C21.2652 13 21.5196 12.8946 21.7071 12.7071C21.8946 12.5196 22 12.2652 22 12C22 11.7348 21.8946 11.4804 21.7071 11.2929C21.5196 11.1054 21.2652 11 21 11ZM12 18C11.7348 18 11.4804 18.1054 11.2929 18.2929C11.1054 18.4804 11 18.7348 11 19V21C11 21.2652 11.1054 21.5196 11.2929 21.7071C11.4804 21.8946 11.7348 22 12 22C12.2652 22 12.5196 21.8946 12.7071 21.7071C12.8946 21.5196 13 21.2652 13 21V19C13 18.7348 12.8946 18.4804 12.7071 18.2929C12.5196 18.1054 12.2652 18 12 18ZM9 17.1958C8.88627 17.1301 8.76069 17.0874 8.63046 17.0702C8.50022 17.053 8.36787 17.0617 8.24098 17.0957C8.1141 17.1297 7.99516 17.1884 7.89097 17.2684C7.78679 17.3484 7.69939 17.4482 7.63379 17.562L6.63379 19.2944C6.50134 19.5242 6.46555 19.7971 6.53427 20.0532C6.60299 20.3093 6.7706 20.5276 7.00026 20.6602C7.22991 20.7928 7.50281 20.8287 7.75896 20.7601C8.0151 20.6915 8.23353 20.524 8.36621 20.2944L9.36621 18.562C9.49866 18.3322 9.53449 18.0593 9.46583 17.8031C9.39716 17.547 9.22962 17.3285 9 17.1958ZM12 2C11.7348 2 11.4804 2.10536 11.2929 2.29289C11.1054 2.48043 11 2.73478 11 3V5C11 5.26522 11.1054 5.51957 11.2929 5.70711C11.4804 5.89464 11.7348 6 12 6C12.2652 6 12.5196 5.89464 12.7071 5.70711C12.8946 5.51957 13 5.26522 13 5V3C13 2.73478 12.8946 2.48043 12.7071 2.29289C12.5196 2.10536 12.2652 2 12 2Z" fill="#F9F9F9"/>
</svg>
