<svg width="24" height="24" viewBox="0 0 24 24" fill="none" xmlns="http://www.w3.org/2000/svg">
<path fill-rule="evenodd" clip-rule="evenodd" d="M3.60883 6.775C3.63633 6.50458 3.53275 6.23783 3.33108 6.05633L1.27775 3.58133V3.21191H7.65592L12.5858 14.024L16.9198 3.21191H23V3.58133L21.2437 5.26525C21.0924 5.38075 21.0173 5.5705 21.0484 5.75841V18.1316C21.0173 18.3186 21.0924 18.5083 21.2437 18.6238L22.9587 20.3077V20.6772H14.3311V20.3077L16.1085 18.5826C16.2827 18.4084 16.2827 18.3571 16.2827 18.0903V8.0895L11.3428 20.6368H10.6754L4.92333 8.0895V16.499C4.87567 16.8519 4.993 17.2085 5.24142 17.4633L7.55233 20.2665V20.6368H1V20.2665L3.31092 17.4633C3.55842 17.2076 3.66842 16.8492 3.60883 16.499V6.775Z" fill="#F9F9F9"/>
</svg>
