<svg width="32" height="32" viewBox="0 0 32 32" fill="none" xmlns="http://www.w3.org/2000/svg">
<path d="M25.333 14.666C14.0921 14.666 18.7567 14.666 6.66634 14.666C6.31272 14.666 5.97358 14.8065 5.72353 15.0565C5.47348 15.3066 5.33301 15.6457 5.33301 15.9993C5.33301 16.353 5.47348 16.6921 5.72353 16.9422C5.97358 17.1922 6.31272 17.3327 6.66634 17.3327C18.7567 17.3327 14.0921 17.3327 25.333 17.3327C25.6866 17.3327 26.0258 17.1922 26.2758 16.9422C26.5259 16.6921 26.6663 16.353 26.6663 15.9993C26.6663 15.6457 26.5259 15.3066 26.2758 15.0565C26.0258 14.8065 25.6866 14.666 25.333 14.666Z" fill="#E541EE"/>
</svg>
