<svg width="32" height="32" viewBox="0 0 32 32" fill="none" xmlns="http://www.w3.org/2000/svg">
<path d="M25.333 14.6673H17.333V6.66732C17.333 6.3137 17.1925 5.97456 16.9425 5.72451C16.6924 5.47446 16.3533 5.33398 15.9997 5.33398C15.6461 5.33398 15.3069 5.47446 15.0569 5.72451C14.8068 5.97456 14.6663 6.3137 14.6663 6.66732V14.6673H6.66634C6.31272 14.6673 5.97358 14.8078 5.72353 15.0578C5.47348 15.3079 5.33301 15.647 5.33301 16.0007C5.33301 16.3543 5.47348 16.6934 5.72353 16.9435C5.97358 17.1935 6.31272 17.334 6.66634 17.334H14.6663V25.334C14.6663 25.6876 14.8068 26.0267 15.0569 26.2768C15.3069 26.5268 15.6461 26.6673 15.9997 26.6673C16.3533 26.6673 16.6924 26.5268 16.9425 26.2768C17.1925 26.0267 17.333 25.6876 17.333 25.334V17.334H25.333C25.6866 17.334 26.0258 17.1935 26.2758 16.9435C26.5259 16.6934 26.6663 16.3543 26.6663 16.0007C26.6663 15.647 26.5259 15.3079 26.2758 15.0578C26.0258 14.8078 25.6866 14.6673 25.333 14.6673Z" fill="#E541EE"/>
</svg>
