<svg width="24" height="24" viewBox="0 0 24 24" fill="none" xmlns="http://www.w3.org/2000/svg">
<path fill-rule="evenodd" clip-rule="evenodd" d="M19 5.5C19 5.57698 18.8856 6.18509 17.4695 6.89313C16.1731 7.54135 14.2421 8 12 8C9.75788 8 7.82691 7.54135 6.53047 6.89313C5.1144 6.18509 5 5.57698 5 5.5C5 5.42302 5.1144 4.81491 6.53047 4.10687C7.82691 3.45865 9.75788 3 12 3C14.2421 3 16.1731 3.45865 17.4695 4.10687C18.8856 4.81491 19 5.42302 19 5.5ZM19 8.32865C17.3501 9.34816 14.8273 10 12 10C9.17274 10 6.64997 9.34817 5.00001 8.32868L5.00003 12.12L5.00006 18.6C5.00006 18.6257 5.0813 19.2138 6.51451 19.9145C7.81493 20.5502 9.75179 21 12 21C14.2483 21 16.1852 20.5502 17.4856 19.9145C18.9188 19.2138 19 18.6257 19 18.6V18.5933V18.5865V18.5794V18.5721V18.5646V18.5569V18.549V18.5409V18.5326V18.5241V18.5153V18.5064V18.4973V18.4879V18.4784V18.4686V18.4587V18.4485V18.4382V18.4276V18.4169V18.406V18.3948V18.3835V18.372V18.3603V18.3484V18.3363V18.324V18.3115V18.2988V18.286V18.2729V18.2597V18.2463V18.2327V18.2189V18.2049V18.1908V18.1765V18.1619V18.1472V18.1324V18.1173V18.1021V18.0867V18.0711V18.0554V18.0394V18.0233V18.007V17.9906V17.974V17.9572V17.9402V17.9231V17.9058V17.8883V17.8707V17.8529V17.8349V17.8168V17.7985V17.7801V17.7615V17.7427V17.7238V17.7047V17.6854V17.666V17.6465V17.6267V17.6069V17.5868V17.5667V17.5463V17.5258V17.5052V17.4844V17.4635V17.4424V17.4212V17.3998V17.3782V17.3566V17.3348V17.3128V17.2907V17.2685V17.2461V17.2235V17.2009V17.1781V17.1551V17.132V17.1088V17.0855V17.062V17.0384V17.0146V16.9907V16.9667V16.9426V16.9183V16.8939V16.8693V16.8447V16.8199V16.795V16.7699V16.7448V16.7195V16.6941V16.6685V16.6429V16.6171V16.5912V16.5652V16.5391V16.5128V16.4865V16.46V16.4334V16.4067V16.3799V16.3529V16.3259V16.2987V16.2715V16.2441V16.2166V16.189V16.1613V16.1335V16.1056V16.0776V16.0495V16.0213V15.993V15.9646V15.9361V15.9074V15.8787V15.8499V15.821V15.792V15.7629V15.7337V15.7044V15.675V15.6456V15.616V15.5863V15.5566V15.5268V15.4969V15.4669V15.4368V15.4066V15.3763V15.346V15.3155V15.285V15.2544V15.2238V15.193V15.1622V15.1313V15.1003V15.0692V15.0381V15.0069V14.9756V14.9442V14.9128V14.8813V14.8497V14.818V14.7863V14.7545V14.7227V14.6908V14.6588V14.6267V14.5946V14.5624V14.5302V14.4979V14.4655V14.4331V14.4006V14.3681V14.3355V14.3028V14.2701V14.2373V14.2045V14.1716V14.1387V14.1057V14.0727V14.0396V14.0065V13.9733V13.9401V13.9068V13.8734V13.8401V13.8067V13.7732V13.7397V13.7061V13.6726V13.6389V13.6053V13.5716V13.5378V13.504V13.4702V13.4363V13.4024V13.3685V13.3346V13.3006V13.2665V13.2325V13.1984V13.1643V13.1301V13.096V13.0618V13.0275V12.9933V12.959V12.9247V12.8904V12.856V12.8216V12.7873V12.7529V12.7184V12.684V12.6495V12.615V12.5805V12.546V12.5115V12.477V12.4424V12.4078V12.3733V12.3387V12.3041V12.2695V12.2349V12.2003V12.1656V12.131V12.0964V12.0617V12.0271V11.9925V11.9578V11.9232V11.8885V11.8539V11.8192V11.7846V11.75V11.7153V11.6807V11.6461V11.6115V11.5769V11.5423V11.5077V11.4731V11.4386V11.404V11.3695V11.335V11.3004V11.2659V11.2315V11.197V11.1625V11.1281V11.0937V11.0593V11.0249V10.9906V10.9563V10.922V10.8877V10.8534V10.8192V10.785V10.7508V10.7167V10.6825V10.6484V10.6144V10.5804V10.5464V10.5124V10.4785V10.4446V10.4107V10.3769V10.3431V10.3093V10.2756V10.242V10.2083V10.1747V10.1412V10.1077V10.0742V10.0408V10.0074V9.97407V9.94079V9.90755V9.87436V9.84122V9.80813V9.77509V9.7421V9.70916V9.67628V9.64345V9.61067V9.57795V9.54529V9.51268V9.48013V9.44765V9.41521V9.38284V9.35053V9.31829V9.2861V9.25398V9.22192V9.18993V9.158V9.12615V9.09435V9.06263V9.03098V8.99939V8.96788V8.93644V8.90507V8.87377V8.84255V8.8114V8.78033V8.74933V8.71841V8.68757V8.65681V8.62613V8.59553V8.56501V8.53457V8.50421V8.47394V8.44376V8.41365V8.38364V8.35371V8.32865ZM19.9137 7.64497C20.6048 7.00896 20.998 6.28035 21 5.5059V7.4V18.6C21 21.03 16.9706 23 12 23C7.02949 23 3.00006 21.03 3.00006 18.6L3 7.4V5.5V5.4H3.00218C3.10854 2.9609 7.09628 1 12 1C16.9706 1 21 3.01472 21 5.5C21 6.27665 20.6065 7.00735 19.9137 7.64497ZM21 5.49405C21 5.46263 20.9992 5.43127 20.9979 5.4H21V5.49405Z" fill="#F9F9F9"/>
</svg>
