<svg width="24" height="24" viewBox="0 0 24 24" fill="none" xmlns="http://www.w3.org/2000/svg">
<path fill-rule="evenodd" clip-rule="evenodd" d="M4.28365 5.74828C3.93438 6.06588 3.85686 6.30814 3.85686 6.4615C3.85686 6.61487 3.93438 6.85713 4.28365 7.17473C4.63316 7.49256 5.18673 7.81812 5.94346 8.10917C7.45119 8.68907 9.59214 9.0659 11.9997 9.0659C14.4073 9.0659 16.5483 8.68907 18.056 8.10917C18.8127 7.81813 19.3663 7.49256 19.7158 7.17473C20.0651 6.85713 20.1426 6.61487 20.1426 6.4615C20.1426 6.30814 20.0651 6.06588 19.7158 5.74828C19.3663 5.43045 18.8127 5.10488 18.056 4.81384C16.5483 4.23394 14.4073 3.85711 11.9997 3.85711C9.59214 3.85711 7.45119 4.23394 5.94346 4.81384C5.18673 5.10488 4.63316 5.43045 4.28365 5.74828ZM20.1426 8.98864C19.7083 9.2621 19.2104 9.50188 18.6714 9.70919C16.9218 10.3821 14.5627 10.7802 11.9997 10.7802C9.43674 10.7802 7.07769 10.3821 5.32806 9.70919C4.78906 9.50188 4.29113 9.2621 3.85686 8.98864V12C3.85686 12.153 3.93426 12.3951 4.28359 12.7128C4.63313 13.0306 5.18672 13.3562 5.94344 13.6473C7.45116 14.2273 9.5921 14.6044 11.9997 14.6044C14.4073 14.6044 16.5483 14.2273 18.056 13.6473C18.8127 13.3562 19.3663 13.0306 19.7159 12.7128C20.0652 12.3951 20.1426 12.153 20.1426 12V8.98864ZM21.8569 6.4615C21.8569 5.65899 21.4307 4.99062 20.8691 4.47996C20.3078 3.96952 19.5433 3.54918 18.6714 3.21382C16.9218 2.54088 14.5627 2.14282 11.9997 2.14282C9.43674 2.14282 7.07769 2.54088 5.32806 3.21382C4.45611 3.54918 3.69166 3.96952 3.13033 4.47996C2.56875 4.99062 2.14258 5.65899 2.14258 6.4615V17.5385C2.14258 18.3408 2.56884 19.0091 3.13032 19.5196C3.6916 20.03 4.456 20.4503 5.32793 20.7858C7.07752 21.4588 9.43658 21.8571 11.9997 21.8571C14.5629 21.8571 16.9219 21.4588 18.6715 20.7858C19.5435 20.4503 20.3078 20.03 20.8691 19.5196C21.4306 19.0091 21.8569 18.3408 21.8569 17.5385V6.4615ZM20.1426 14.5267C19.7084 14.8001 19.2105 15.0399 18.6715 15.2473C16.9219 15.9203 14.5629 16.3186 11.9997 16.3186C9.43658 16.3186 7.07752 15.9203 5.32793 15.2473C4.78896 15.0399 4.29108 14.8001 3.85686 14.5267V17.5385C3.85686 17.6915 3.93426 17.9336 4.28359 18.2513C4.63313 18.5691 5.18672 18.8947 5.94344 19.1858C7.45116 19.7658 9.5921 20.1429 11.9997 20.1429C14.4073 20.1429 16.5483 19.7658 18.056 19.1858C18.8127 18.8947 19.3663 18.5691 19.7159 18.2513C20.0652 17.9336 20.1426 17.6915 20.1426 17.5385V14.5267Z" fill="#FAFAFF"/>
</svg>
