<svg width="24" height="24" viewBox="0 0 24 24" fill="none" xmlns="http://www.w3.org/2000/svg">
<g clip-path="url(#clip0_1401_652)">
<g clip-path="url(#clip1_1401_652)">
<path d="M18.7697 5.2125C17.8063 2.22868 15.7147 0.473556 12.5927 0.0753598C8.41189 -0.457529 4.59638 2.92096 4.54168 7.14114C4.53521 7.62403 4.70402 7.79754 5.18985 7.79813C6.3468 7.7999 7.50315 7.79931 8.6601 7.79813C9.21475 7.79813 9.35533 7.66579 9.39003 7.1182C9.45826 6.04183 10.257 5.12369 11.3128 4.90783C12.4068 4.68373 13.4984 5.21368 13.9913 6.2077C14.4789 7.19113 14.2484 8.39631 13.432 9.108C13.1955 9.31386 12.9509 9.51032 12.7068 9.70794C10.5681 11.4413 9.43826 13.6705 9.40003 16.4361C9.39238 16.9843 9.54884 17.1443 10.0858 17.1449C10.664 17.1455 11.2428 17.1449 11.821 17.1449C12.3897 17.1449 12.9579 17.1449 13.5267 17.1449C14.0719 17.1443 14.2154 17.0013 14.2313 16.4485C14.2619 15.365 14.6607 14.4469 15.4718 13.7199C15.7706 13.4517 16.0817 13.1964 16.3905 12.9394C18.7091 11.0125 19.6784 8.02752 18.7691 5.21191L18.7697 5.2125ZM15.9064 12.0142C15.4847 12.38 15.0436 12.7253 14.6377 13.1082C13.8531 13.8475 13.3985 14.7622 13.2661 15.8344C13.2591 15.8926 13.2485 15.9509 13.2379 16.0085C13.2326 16.0373 13.222 16.065 13.2079 16.1144H10.4446C10.4523 15.4344 10.5858 14.7963 10.7793 14.1687C11.2169 12.7482 12.068 11.6066 13.1814 10.6461C13.4708 10.3967 13.7725 10.1614 14.0631 9.91322C15.2059 8.93449 15.5824 7.33935 15.0007 5.95537C14.4131 4.55786 13.0026 3.71971 11.461 3.85146C10.0311 3.9738 8.78126 5.0784 8.44659 6.51532C8.42895 6.59119 8.41012 6.66707 8.38719 6.76353H5.59217C5.64099 6.04948 5.8192 5.38307 6.10447 4.7449C7.14378 2.41925 9.5259 0.938216 12.0545 1.04115C14.6095 1.14525 16.8716 2.81686 17.711 5.22074C18.5615 7.65579 17.8533 10.3244 15.9064 12.0136V12.0142Z" fill="#FAFAFF"/>
<path d="M11.8175 18.2788C10.2565 18.2747 8.95073 19.5705 8.94073 21.1332C8.93073 22.7125 10.2283 24.0183 11.8093 24.02C13.3921 24.0218 14.6908 22.7219 14.686 21.1415C14.6813 19.5769 13.3844 18.2823 11.8175 18.2788ZM11.7916 23.0048C10.7758 22.9913 9.94651 22.1367 9.96534 21.1232C9.98416 20.1092 10.8076 19.3022 11.8204 19.3058C12.8433 19.3093 13.6714 20.1463 13.662 21.1668C13.652 22.1849 12.8039 23.0189 11.7922 23.0048H11.7916Z" fill="#FAFAFF"/>
</g>
</g>
<defs>
<clipPath id="clip0_1401_652">
<rect width="24" height="24" fill="white"/>
</clipPath>
<clipPath id="clip1_1401_652">
<rect width="14.5662" height="24" fill="white" transform="translate(4.54175 0.0200195)"/>
</clipPath>
</defs>
</svg>
