<svg width="96" height="96" viewBox="0 0 96 96" fill="none" xmlns="http://www.w3.org/2000/svg">
<path fill-rule="evenodd" clip-rule="evenodd" d="M70.7812 62.7499C71.1954 62.0325 70.9496 61.1151 70.2321 60.7009C69.5147 60.2866 68.5973 60.5325 68.1831 61.2499C60.313 74.8812 42.8827 79.5517 29.2514 71.6816C15.62 63.8116 10.9496 46.3812 18.8196 32.7499C26.6897 19.1185 44.12 14.4481 57.7514 22.3182C58.4688 22.7324 59.3862 22.4866 59.8004 21.7691C60.2146 21.0517 59.9688 20.1343 59.2514 19.7201C44.1851 11.0216 24.92 16.1837 16.2216 31.2499C7.52307 46.3161 12.6851 65.5812 27.7514 74.2797C40.7758 81.7993 56.9381 78.9607 66.6992 68.3198L83.44 85.0607C84.0258 85.6464 84.9756 85.6464 85.5613 85.0607C86.1471 84.4749 86.1471 83.5251 85.5613 82.9393L68.6266 66.0046C69.4012 64.9778 70.1216 63.8923 70.7812 62.7499ZM71.529 52.2119C71.3776 53.0263 71.9151 53.8094 72.7295 53.9608C73.544 54.1123 74.327 53.5748 74.4785 52.7603C76.2564 43.1993 73.4896 33.2666 66.9912 26.0002C66.439 25.3827 65.4907 25.3297 64.8732 25.882C64.2557 26.4342 64.2028 27.3825 64.755 28C70.6324 34.5722 73.1373 43.5632 71.529 52.2119Z" fill="url(#paint0_linear_242_16012)"/>
<defs>
<linearGradient id="paint0_linear_242_16012" x1="11.9961" y1="15.4946" x2="74.9444" y2="94.3285" gradientUnits="userSpaceOnUse">
<stop stop-color="#F32FD7"/>
<stop offset="1" stop-color="#3845FB"/>
</linearGradient>
</defs>
</svg>
