<svg width="24" height="24" viewBox="0 0 24 24" fill="none" xmlns="http://www.w3.org/2000/svg">
<path d="M19.5 2.99998H4.5C4.21114 2.992 3.92357 3.04127 3.65384 3.14495C3.38411 3.24862 3.13757 3.40465 2.92842 3.60404C2.71927 3.80343 2.55164 4.04224 2.43521 4.30671C2.31877 4.57118 2.25583 4.85607 2.25 5.14498V15.105C2.25583 15.3939 2.31877 15.6788 2.43521 15.9433C2.55164 16.2077 2.71927 16.4465 2.92842 16.6459C3.13757 16.8453 3.38411 17.0013 3.65384 17.105C3.92357 17.2087 4.21114 17.258 4.5 17.25H8.6775L11.4525 20.5275C11.5229 20.6098 11.6103 20.6759 11.7087 20.7212C11.8071 20.7666 11.9142 20.79 12.0225 20.79C12.1308 20.79 12.2379 20.7666 12.3363 20.7212C12.4347 20.6759 12.5221 20.6098 12.5925 20.5275L15.345 17.25H19.5C19.7889 17.258 20.0764 17.2087 20.3462 17.105C20.6159 17.0013 20.8624 16.8453 21.0716 16.6459C21.2807 16.4465 21.4484 16.2077 21.5648 15.9433C21.6812 15.6788 21.7442 15.3939 21.75 15.105V5.14498C21.7442 4.85607 21.6812 4.57118 21.5648 4.30671C21.4484 4.04224 21.2807 3.80343 21.0716 3.60404C20.8624 3.40465 20.6159 3.24862 20.3462 3.14495C20.0764 3.04127 19.7889 2.992 19.5 2.99998ZM20.25 15.105C20.2434 15.1967 20.2187 15.2861 20.1773 15.3683C20.136 15.4504 20.0788 15.5235 20.0091 15.5834C19.9394 15.6434 19.8586 15.6889 19.7712 15.7175C19.6838 15.7461 19.5917 15.7571 19.5 15.75H15C14.8917 15.75 14.7846 15.7734 14.6862 15.8187C14.5878 15.8641 14.5004 15.9302 14.43 16.0125L12 18.8775L9.57 16.0125C9.49959 15.9302 9.41217 15.8641 9.31377 15.8187C9.21538 15.7734 9.10833 15.75 9 15.75H4.5C4.40835 15.7571 4.31619 15.7461 4.22881 15.7175C4.14144 15.6889 4.06058 15.6434 3.99088 15.5834C3.92118 15.5235 3.86402 15.4504 3.82268 15.3683C3.78134 15.2861 3.75664 15.1967 3.75 15.105V5.14498C3.75664 5.05329 3.78134 4.96382 3.82268 4.88171C3.86402 4.7996 3.92118 4.72647 3.99088 4.66653C4.06058 4.60659 4.14144 4.56101 4.22881 4.53243C4.31619 4.50385 4.40835 4.49282 4.5 4.49998H19.5C19.5917 4.49282 19.6838 4.50385 19.7712 4.53243C19.8586 4.56101 19.9394 4.60659 20.0091 4.66653C20.0788 4.72647 20.136 4.7996 20.1773 4.88171C20.2187 4.96382 20.2434 5.05329 20.25 5.14498V15.105Z" fill="#F9F9F9"/>
</svg>
