<svg width="24" height="24" viewBox="0 0 24 24" fill="none" xmlns="http://www.w3.org/2000/svg">
<g clip-path="url(#clip0_1301_659)">
<g clip-path="url(#clip1_1301_659)">
<path d="M20.6902 6.83627L18.4824 5.45009C18.4152 5.40908 18.3413 5.38188 18.261 5.38188C18.0395 5.38188 17.8584 5.57291 17.8584 5.79826V8.59093L15.8248 9.8884C15.7913 9.9018 15.7576 9.9156 15.7174 9.9156C15.6772 9.9156 15.6435 9.9089 15.6167 9.8884L13.5831 8.59093V5.79115C13.5831 5.5589 13.4018 5.38147 13.1736 5.38147C13.093 5.38147 13.0193 5.40197 12.9521 5.44298L10.751 6.84297C10.5565 6.966 10.4355 7.17734 10.4355 7.42339V13.446C10.4355 13.6783 10.5565 13.8967 10.751 14.0264L12.9588 15.4331C13.026 15.4741 13.0997 15.4946 13.1736 15.4946C13.4085 15.4946 13.5898 15.3101 13.5831 15.0781V12.2785L15.6167 10.981C15.6502 10.9676 15.6839 10.9538 15.7241 10.9538C15.7643 10.9538 15.798 10.9605 15.8248 10.981L17.8584 12.2785V15.058C17.8584 15.2902 18.0397 15.4676 18.2679 15.4676C18.3485 15.4676 18.4221 15.4471 18.4893 15.4061L20.6904 14.0061C20.8849 13.8831 21.0059 13.6718 21.0059 13.4257V7.41669C21.0059 7.18444 20.8849 6.966 20.6904 6.83627H20.6902ZM12.7515 14.3269L11.53 13.5553L12.7515 12.7836V14.3267V14.3269ZM12.7515 11.8142L11.2281 12.7838V8.06532L12.7515 9.03492V11.8144V11.8142ZM12.7515 8.06532L11.53 7.29367L12.7515 6.52201V8.06512V8.06532ZM13.5636 11.3022V9.54713L14.9459 10.4282L13.5636 11.3022ZM17.8584 11.3022L16.476 10.4282L17.8584 9.54713V11.3022ZM18.6704 6.53581L19.8784 7.29387L18.6704 8.05172V6.53581ZM18.6704 14.3066V12.7907L19.865 13.5488L18.6704 14.3066ZM20.1939 12.784L18.6704 11.8213V9.04223L20.1939 8.07243V12.7842V12.784Z" fill="white"/>
<path d="M15.6159 1.96411C11.0812 1.96411 7.37818 5.52621 7.15283 10.0051C7.65529 10.1984 8.10883 10.4905 8.48989 10.8578C8.48177 10.7189 8.4773 10.579 8.4773 10.4381C8.4773 6.4956 11.6734 3.29954 15.6159 3.29954C19.5585 3.29954 22.7545 6.4956 22.7545 10.4381C22.7545 14.3807 19.5585 17.5768 15.6159 17.5768C13.1259 17.5768 10.9342 16.3016 9.65682 14.3691C9.57013 14.9 9.37808 15.4021 9.09487 15.8493C10.6492 17.7205 12.9934 18.912 15.6161 18.912C20.2962 18.912 24.0902 15.118 24.0902 10.4379C24.0902 5.75785 20.296 1.96411 15.6159 1.96411Z" fill="white"/>
<path d="M7.50459 16.5022C8.4208 15.9159 9.02862 14.8901 9.02862 13.7217C9.02862 11.8995 7.55129 10.4221 5.72903 10.4221C3.90677 10.4221 2.42943 11.8995 2.42943 13.7217C2.42943 14.8901 3.03725 15.9159 3.95346 16.5022C1.74912 17.2331 0.147135 19.2853 0.0900879 21.7213L11.3694 21.8559C11.3694 19.3613 9.74933 17.2465 7.50459 16.5022Z" fill="white"/>
</g>
</g>
<defs>
<clipPath id="clip0_1301_659">
<rect width="24" height="24" fill="white"/>
</clipPath>
<clipPath id="clip1_1301_659">
<rect width="24" height="19.8918" fill="white" transform="translate(0.0900879 1.96411)"/>
</clipPath>
</defs>
</svg>
