<svg width="24" height="24" viewBox="0 0 24 24" fill="none" xmlns="http://www.w3.org/2000/svg">
<path d="M2 17.3032C2 16.5142 2.74142 15.9354 3.5068 16.1267L11.5929 18.1482C11.8602 18.215 12.1398 18.215 12.4071 18.1482L20.4932 16.1267C21.2586 15.9354 22 16.5142 22 17.3032C22 17.8596 21.6213 18.3447 21.0814 18.4796L12.6508 20.5873C12.2235 20.6941 11.7765 20.6941 11.3492 20.5873L2.91856 18.4796C2.37872 18.3447 2 17.8596 2 17.3032Z" fill="#7979A3"/>
<path d="M2 12.3032C2 11.5142 2.74142 10.9354 3.5068 11.1267L11.9266 13.2317C11.9748 13.2437 12.0252 13.2437 12.0734 13.2317L20.4932 11.1267C21.2586 10.9354 22 11.5142 22 12.3032C22 12.8596 21.6213 13.3447 21.0814 13.4796L12.1198 15.72C12.0412 15.7397 11.9588 15.7397 11.8802 15.72L2.91856 13.4796C2.37872 13.3447 2 12.8596 2 12.3032Z" fill="#7979A3"/>
<path d="M2 7C2 6.26537 2.49998 5.62501 3.21268 5.44683L10.7873 3.55317C11.5835 3.35412 12.4165 3.35412 13.2127 3.55317L20.7873 5.44683C21.5 5.62501 22 6.26537 22 7C22 7.73463 21.5 8.37499 20.7873 8.55317L13.2127 10.4468C12.4165 10.6459 11.5835 10.6459 10.7873 10.4468L3.21268 8.55317C2.49998 8.37499 2 7.73463 2 7Z" fill="#7979A3"/>
</svg>
