<svg width="24" height="24" viewBox="0 0 24 24" fill="none" xmlns="http://www.w3.org/2000/svg">
<path d="M19.9914 10.4946C20.0561 10.0541 19.7513 9.64456 19.3108 9.5799L14.7577 8.91427L12.723 4.76789C12.6498 4.64142 12.5446 4.53638 12.418 4.46326C12.0184 4.23229 11.5071 4.36899 11.2761 4.76868L9.24227 8.91427L4.68912 9.57995C4.51504 9.60547 4.35414 9.6873 4.23086 9.81284C3.91895 10.1306 3.92372 10.641 4.24143 10.9529L7.53887 14.1858L6.76073 18.7492C6.75336 18.7929 6.74957 18.8371 6.74947 18.8814C6.74824 19.3273 7.10869 19.6898 7.5546 19.691C7.68605 19.6908 7.81547 19.6584 7.93148 19.5966L12 17.4455L16.0677 19.5958C16.2249 19.6792 16.4053 19.7083 16.5807 19.6784C17.0191 19.6036 17.3139 19.1876 17.2392 18.7492L16.4611 14.1858L19.7593 10.9521C19.8844 10.8289 19.9659 10.6683 19.9914 10.4946Z" fill="#F9F9F9"/>
</svg>
