<svg width="24" height="24" viewBox="0 0 24 24" fill="none" xmlns="http://www.w3.org/2000/svg">
<path d="M9.37994 1.08C9.13648 0.979982 8.8634 0.979982 8.61994 1.08C8.49719 1.12759 8.38504 1.19896 8.28994 1.29L1.28994 8.29C1.19621 8.38296 1.12182 8.49356 1.07105 8.61542C1.02028 8.73728 0.994141 8.86799 0.994141 9C0.994141 9.13201 1.02028 9.26272 1.07105 9.38458C1.12182 9.50644 1.19621 9.61704 1.28994 9.71C1.3829 9.80373 1.4935 9.87812 1.61536 9.92889C1.73722 9.97966 1.86793 10.0058 1.99994 10.0058C2.13195 10.0058 2.26266 9.97966 2.38452 9.92889C2.50638 9.87812 2.61698 9.80373 2.70994 9.71L7.99994 4.41V22C7.99994 22.2652 8.1053 22.5196 8.29283 22.7071C8.48037 22.8946 8.73472 23 8.99994 23C9.26516 23 9.51951 22.8946 9.70705 22.7071C9.89458 22.5196 9.99994 22.2652 9.99994 22V2C9.99836 1.86932 9.97118 1.74022 9.91994 1.62C9.81846 1.37565 9.62429 1.18147 9.37994 1.08ZM22.7099 14.29C22.617 14.1963 22.5064 14.1219 22.3845 14.0711C22.2627 14.0203 22.132 13.9942 21.9999 13.9942C21.8679 13.9942 21.7372 14.0203 21.6154 14.0711C21.4935 14.1219 21.3829 14.1963 21.2899 14.29L15.9999 19.59V2C15.9999 1.73478 15.8946 1.48043 15.707 1.29289C15.5195 1.10536 15.2652 1 14.9999 1C14.7347 1 14.4804 1.10536 14.2928 1.29289C14.1053 1.48043 13.9999 1.73478 13.9999 2V22C14.0015 22.1307 14.0287 22.2598 14.0799 22.38C14.1814 22.6243 14.3756 22.8185 14.6199 22.92C14.7396 22.9729 14.8691 23.0002 14.9999 23.0002C15.1308 23.0002 15.2602 22.9729 15.3799 22.92C15.5027 22.8724 15.6148 22.801 15.7099 22.71L22.7099 15.71C22.8037 15.617 22.8781 15.5064 22.9288 15.3846C22.9796 15.2627 23.0057 15.132 23.0057 15C23.0057 14.868 22.9796 14.7373 22.9288 14.6154C22.8781 14.4936 22.8037 14.383 22.7099 14.29Z" fill="url(#paint0_linear_140_523)"/>
<defs>
<linearGradient id="paint0_linear_140_523" x1="0.994141" y1="1" x2="20.99" y2="24.7009" gradientUnits="userSpaceOnUse">
<stop stop-color="#F32FD7"/>
<stop offset="1" stop-color="#3845FB"/>
</linearGradient>
</defs>
</svg>
