<svg width="24" height="24" viewBox="0 0 24 24" fill="none" xmlns="http://www.w3.org/2000/svg">
<path d="M17.6542 19.6389C17.5951 19.7862 17.5052 19.9192 17.3905 20.0289C17.2758 20.1387 17.139 20.2226 16.9892 20.2752C16.8395 20.3277 16.6802 20.3476 16.5221 20.3336C16.364 20.3195 16.2107 20.2719 16.0725 20.1937L11.7874 16.8641L9.03713 19.4014C8.97331 19.4485 8.89866 19.4789 8.82005 19.4896C8.74143 19.5003 8.66138 19.4911 8.58726 19.4628L9.11448 14.7455L9.13135 14.7589L9.14213 14.6658C9.14213 14.6658 16.8531 7.64535 17.1673 7.34624C17.4853 7.0479 17.3804 6.98319 17.3804 6.98319C17.3985 6.61929 16.8097 6.98319 16.8097 6.98319L6.59278 13.5562L2.33793 12.1071C2.33793 12.1071 1.68442 11.8727 1.62286 11.3573C1.55814 10.8459 2.35922 10.568 2.35922 10.568L19.2761 3.84752C19.2761 3.84752 20.6668 3.22793 20.6668 4.25401L17.6542 19.6389Z" fill="#FAFAFF"/>
</svg>
