<svg width="24" height="24" viewBox="0 0 24 24" fill="none" xmlns="http://www.w3.org/2000/svg">
<path fill-rule="evenodd" clip-rule="evenodd" d="M3.35427 12.875L3.6899 12.7087V12.7438C3.81445 12.6711 3.91769 12.5675 3.98942 12.4432C4.06115 12.3189 4.09888 12.1782 4.09888 12.035C4.09888 11.8918 4.06115 11.7511 3.98942 11.6268C3.91769 11.5025 3.81445 11.3989 3.6899 11.3263L3.35427 11.125C3.04424 10.9529 2.77234 10.7207 2.55474 10.4423C2.33714 10.164 2.17829 9.8451 2.08764 9.50467C1.997 9.16425 1.9764 8.80923 2.02709 8.46076C2.07777 8.11229 2.1987 7.77748 2.38268 7.47625L3.26594 5.95375C3.61852 5.35157 4.19812 4.91279 4.87725 4.73393C5.55637 4.55508 6.27941 4.65078 6.88731 5L7.16112 5.1925C7.2945 5.26483 7.44447 5.30182 7.59651 5.29989C7.74855 5.29796 7.89751 5.25719 8.02898 5.18151C8.16045 5.10583 8.26997 4.99781 8.34695 4.8679C8.42392 4.738 8.46573 4.59061 8.46835 4.44V4.125C8.46835 3.42881 8.74752 2.76113 9.24445 2.26884C9.74138 1.77656 10.4154 1.5 11.1181 1.5H12.8847C13.5874 1.5 14.2614 1.77656 14.7583 2.26884C15.2553 2.76113 15.5344 3.42881 15.5344 4.125V4.44C15.5436 4.58636 15.5897 4.7281 15.6685 4.8522C15.7474 4.9763 15.8565 5.07877 15.9857 5.15021C16.115 5.22164 16.2603 5.25975 16.4083 5.26102C16.5564 5.2623 16.7023 5.2267 16.8328 5.1575L17.1155 5C17.7234 4.65078 18.4464 4.55508 19.1255 4.73393C19.8047 4.91279 20.3843 5.35157 20.7368 5.95375L21.6201 7.47625C21.9691 8.07874 22.0628 8.79369 21.8807 9.46448C21.6986 10.1353 21.2555 10.7072 20.6485 11.055L20.3129 11.2562C20.1883 11.3289 20.0851 11.4325 20.0134 11.5568C19.9416 11.6811 19.9039 11.8218 19.9039 11.965C19.9039 12.1082 19.9416 12.2489 20.0134 12.3732C20.0851 12.4975 20.1883 12.6011 20.3129 12.6737L20.6485 12.875C21.0618 13.1051 21.4051 13.4408 21.6428 13.8471C21.8805 14.2534 22.0038 14.7154 21.9999 15.185C22.0004 15.6456 21.8786 16.0983 21.6466 16.4975L20.7633 18.02C20.4108 18.6222 19.8312 19.061 19.152 19.2398C18.4729 19.4187 17.7499 19.323 17.142 18.9737L16.8682 18.8162C16.7339 18.7395 16.5816 18.699 16.4265 18.699C16.2715 18.699 16.1192 18.7395 15.9849 18.8162C15.8539 18.8911 15.7446 18.998 15.6672 19.1266C15.5899 19.2553 15.5472 19.4015 15.5433 19.5512V19.875C15.5433 20.5712 15.2641 21.2389 14.7672 21.7312C14.2702 22.2234 13.5963 22.5 12.8935 22.5H11.127C10.4242 22.5 9.75021 22.2234 9.25328 21.7312C8.75635 21.2389 8.47718 20.5712 8.47718 19.875V19.5863C8.47413 19.4374 8.43278 19.2917 8.35704 19.1631C8.28131 19.0345 8.17369 18.9272 8.04438 18.8512C7.91011 18.7745 7.7578 18.734 7.60275 18.734C7.44771 18.734 7.29539 18.7745 7.16112 18.8512L6.88731 19C6.58209 19.1701 6.24587 19.2785 5.89808 19.3191C5.5503 19.3597 5.19784 19.3315 4.86109 19.2363C4.52434 19.1411 4.20998 18.9808 3.93619 18.7645C3.66239 18.5482 3.43458 18.2803 3.26594 17.9762L2.38268 16.4538C2.0337 15.8513 1.94 15.1363 2.12211 14.4655C2.30422 13.7947 2.7473 13.2228 3.35427 12.875ZM4.57317 14.2575L4.23753 14.4587V14.4237C4.13616 14.4811 4.04727 14.5578 3.97602 14.6495C3.90476 14.7411 3.85255 14.8458 3.82239 14.9575C3.76394 15.1793 3.79565 15.4149 3.91072 15.6137L4.79398 17.1363C4.85242 17.2358 4.93012 17.3229 5.02261 17.3926C5.11511 17.4624 5.22059 17.5133 5.33301 17.5426C5.44543 17.5719 5.56257 17.5788 5.67772 17.5632C5.79287 17.5475 5.90377 17.5095 6.00405 17.4513L6.27786 17.2937C6.67968 17.068 7.13411 16.9502 7.59606 16.9521C8.05801 16.954 8.51144 17.0754 8.91137 17.3045C9.3113 17.5335 9.64383 17.8622 9.87599 18.2578C10.1082 18.6535 10.2319 19.1024 10.2349 19.56V19.875C10.2349 20.1071 10.3279 20.3296 10.4936 20.4937C10.6592 20.6578 10.8839 20.75 11.1181 20.75H12.8847C13.1189 20.75 13.3436 20.6578 13.5092 20.4937C13.6749 20.3296 13.7679 20.1071 13.7679 19.875V19.5512C13.775 19.1008 13.899 18.6597 14.1279 18.2705C14.3568 17.8813 14.6831 17.5569 15.0751 17.3288C15.478 17.0984 15.9349 16.9771 16.4 16.9771C16.8652 16.9771 17.3221 17.0984 17.7249 17.3288L17.9987 17.4862C18.099 17.5445 18.2099 17.5825 18.3251 17.5982C18.4402 17.6138 18.5574 17.6069 18.6698 17.5776C18.7822 17.5483 18.8877 17.4974 18.9802 17.4276C19.0727 17.3579 19.1504 17.2708 19.2088 17.1712L20.0921 15.6488C20.2071 15.4499 20.2388 15.2143 20.1804 14.9925C20.1502 14.8808 20.098 14.7761 20.0268 14.6845C19.9555 14.5928 19.8666 14.5161 19.7653 14.4587L19.4296 14.2575C19.0374 14.031 18.7119 13.7066 18.4858 13.3166C18.2596 12.9267 18.1405 12.4848 18.1405 12.035C18.1405 11.5852 18.2596 11.1433 18.4858 10.7534C18.7119 10.3634 19.0374 10.039 19.4296 9.8125L19.7653 9.61125C19.8666 9.55388 19.9555 9.47716 20.0268 9.38555C20.098 9.29393 20.1502 9.18923 20.1804 9.0775C20.2388 8.85573 20.2071 8.6201 20.0921 8.42125L19.2088 6.89875C19.1504 6.79922 19.0727 6.71209 18.9802 6.64236C18.8877 6.57263 18.7822 6.52167 18.6698 6.49241C18.5574 6.46315 18.4402 6.45615 18.3251 6.47182C18.2099 6.4875 18.099 6.52553 17.9987 6.58375L17.7161 6.75C17.3113 6.97545 16.8537 7.09154 16.3893 7.08663C15.9249 7.08172 15.47 6.95598 15.0701 6.72201C14.6702 6.48805 14.3394 6.15407 14.1109 5.75356C13.8823 5.35305 13.7641 4.90006 13.7679 4.44V4.125C13.7679 3.89294 13.6749 3.67038 13.5092 3.50628C13.3436 3.34219 13.1189 3.25 12.8847 3.25H11.1181C10.8839 3.25 10.6592 3.34219 10.4936 3.50628C10.3279 3.67038 10.2349 3.89294 10.2349 4.125V4.44C10.238 4.90059 10.1188 5.3539 9.8892 5.75441C9.65957 6.15492 9.3276 6.48851 8.92664 6.7217C8.52567 6.95489 8.06983 7.07945 7.60489 7.08288C7.13995 7.08631 6.68229 6.96849 6.27786 6.74125L6.00405 6.58375C5.90377 6.52553 5.79287 6.4875 5.67772 6.47182C5.56257 6.45615 5.44543 6.46315 5.33301 6.49241C5.22059 6.52167 5.11511 6.57263 5.02261 6.64236C4.93012 6.71209 4.85242 6.79922 4.79398 6.89875L3.91072 8.42125C3.79565 8.6201 3.76394 8.85573 3.82239 9.0775C3.85255 9.18923 3.90476 9.29393 3.97602 9.38555C4.04727 9.47716 4.13616 9.55388 4.23753 9.61125L4.57317 9.8125C4.9654 10.039 5.29084 10.3634 5.51703 10.7534C5.74322 11.1433 5.86225 11.5852 5.86225 12.035C5.86225 12.4848 5.74322 12.9267 5.51703 13.3166C5.29084 13.7066 4.9654 14.031 4.57317 14.2575ZM13.9642 14.9101C13.3832 15.2947 12.7002 15.5 12.0014 15.5C11.0644 15.5 10.1657 15.1313 9.50314 14.4749C8.84057 13.8185 8.46834 12.9283 8.46834 12C8.46834 11.3078 8.67555 10.6311 9.06376 10.0555C9.45198 9.47993 10.0038 9.03133 10.6493 8.76642C11.2949 8.50152 12.0053 8.4322 12.6906 8.56725C13.376 8.7023 14.0055 9.03564 14.4996 9.52513C14.9937 10.0146 15.3302 10.6383 15.4665 11.3172C15.6029 11.9961 15.5329 12.6999 15.2655 13.3394C14.9981 13.9789 14.5452 14.5256 13.9642 14.9101ZM12.9828 10.5449C12.6923 10.3526 12.3508 10.25 12.0014 10.25C11.5329 10.25 11.0835 10.4344 10.7523 10.7626C10.421 11.0908 10.2349 11.5359 10.2349 12C10.2349 12.3461 10.3385 12.6845 10.5326 12.9723C10.7267 13.26 11.0026 13.4843 11.3254 13.6168C11.6482 13.7492 12.0033 13.7839 12.346 13.7164C12.6887 13.6489 13.0034 13.4822 13.2505 13.2374C13.4976 12.9927 13.6658 12.6809 13.734 12.3414C13.8021 12.0019 13.7671 11.6501 13.6334 11.3303C13.4997 11.0105 13.2733 10.7372 12.9828 10.5449Z" fill="#F9F9F9"/>
</svg>
