<svg width="24" height="24" viewBox="0 0 24 24" fill="none" xmlns="http://www.w3.org/2000/svg">
<path d="M20.5716 6.69428C19.9273 6.97379 19.2459 7.15856 18.5487 7.24285C19.2843 6.80341 19.8355 6.1121 20.1001 5.29714C19.4089 5.70862 18.6522 5.99854 17.863 6.15428C17.3355 5.5822 16.633 5.20139 15.8657 5.07158C15.0984 4.94177 14.3097 5.0703 13.6234 5.43702C12.937 5.80373 12.3918 6.38788 12.0732 7.09786C11.7546 7.80783 11.6807 8.60347 11.863 9.36C10.4654 9.2893 9.09823 8.92538 7.85041 8.29188C6.6026 7.65837 5.50201 6.76945 4.62014 5.68285C4.31083 6.223 4.1483 6.8347 4.14871 7.45714C4.14761 8.03518 4.28947 8.60452 4.56164 9.11448C4.83382 9.62443 5.22787 10.0592 5.70871 10.38C5.14983 10.3648 4.6029 10.2148 4.11443 9.94285V9.98571C4.11861 10.7956 4.40242 11.5792 4.91784 12.204C5.43326 12.8287 6.14864 13.2563 6.943 13.4143C6.63722 13.5073 6.31975 13.5564 6.00014 13.56C5.7789 13.5574 5.55822 13.5373 5.34014 13.5C5.56635 14.1967 6.0041 14.8055 6.59249 15.2418C7.18088 15.6781 7.89063 15.9202 8.623 15.9343C7.38631 16.9074 5.85947 17.4384 4.28585 17.4429C3.99934 17.4438 3.71306 17.4266 3.42871 17.3914C5.03536 18.4288 6.90769 18.9795 8.82014 18.9771C10.1399 18.9908 11.4491 18.7414 12.6714 18.2435C13.8936 17.7455 15.0044 17.009 15.9389 16.077C16.8733 15.1449 17.6127 14.036 18.1138 12.8151C18.6148 11.5941 18.8676 10.2855 18.8573 8.96571C18.8573 8.82 18.8573 8.66571 18.8573 8.51142C19.5299 8.00983 20.11 7.39493 20.5716 6.69428Z" fill="#FAFAFF"/>
</svg>
