<svg width="24" height="24" viewBox="0 0 24 24" fill="none" xmlns="http://www.w3.org/2000/svg">
<path d="M20.9659 16.8824L14.5427 4.04547C14.3057 3.57431 13.9424 3.17827 13.4934 2.90154C13.0445 2.62481 12.5274 2.47827 12 2.47827C11.4726 2.47827 10.9555 2.62481 10.5066 2.90154C10.0576 3.17827 9.69431 3.57431 9.45729 4.04547L3.03409 16.8824C2.81724 17.3168 2.71509 17.7994 2.73737 18.2844C2.75966 18.7694 2.90563 19.2406 3.1614 19.6533C3.41718 20.0659 3.77426 20.4063 4.19869 20.642C4.62312 20.8778 5.10079 21.001 5.5863 21.0001H18.4137C18.8992 21.001 19.3769 20.8778 19.8013 20.642C20.2258 20.4063 20.5828 20.0659 20.8386 19.6533C21.0944 19.2406 21.2404 18.7694 21.2626 18.2844C21.2849 17.7994 21.1828 17.3168 20.9659 16.8824ZM19.2202 18.6566C19.1347 18.7933 19.0158 18.906 18.8747 18.984C18.7336 19.0621 18.575 19.1028 18.4137 19.1025H5.5863C5.42506 19.1028 5.2664 19.0621 5.12529 18.984C4.98419 18.906 4.86529 18.7933 4.77984 18.6566C4.69657 18.5124 4.65273 18.3487 4.65273 18.1822C4.65273 18.0157 4.69657 17.852 4.77984 17.7078L11.1556 4.8709C11.2352 4.71549 11.3562 4.58507 11.5052 4.494C11.6542 4.40292 11.8254 4.35473 12 4.35473C12.1746 4.35473 12.3459 4.40292 12.4948 4.494C12.6438 4.58507 12.7648 4.71549 12.8444 4.8709L19.2676 17.7078C19.3438 17.8562 19.3795 18.022 19.3712 18.1886C19.3629 18.3551 19.3108 18.5166 19.2202 18.6566ZM12.9488 8.666V13.4099C12.9488 13.6615 12.8488 13.9028 12.6709 14.0808C12.493 14.2587 12.2516 14.3586 12 14.3586C11.7484 14.3586 11.5071 14.2587 11.3291 14.0808C11.1512 13.9028 11.0512 13.6615 11.0512 13.4099V8.666C11.0512 8.41437 11.1512 8.17304 11.3291 7.99511C11.5071 7.81718 11.7484 7.71723 12 7.71723C12.2516 7.71723 12.493 7.81718 12.6709 7.99511C12.8488 8.17304 12.9488 8.41437 12.9488 8.666ZM12.6736 15.5826C12.8074 15.7153 12.8987 15.8848 12.9358 16.0696C12.9728 16.2544 12.954 16.446 12.8818 16.62C12.8095 16.7941 12.687 16.9427 12.53 17.0468C12.373 17.151 12.1885 17.2061 12 17.205C11.876 17.2035 11.7535 17.1777 11.6395 17.1291C11.523 17.0839 11.4166 17.0162 11.3264 16.9298C11.2374 16.8416 11.1669 16.7367 11.1187 16.6211C11.0705 16.5054 11.0457 16.3814 11.0457 16.2562C11.0457 16.1309 11.0705 16.0069 11.1187 15.8913C11.1669 15.7757 11.2374 15.6708 11.3264 15.5826C11.4166 15.4962 11.523 15.4285 11.6395 15.3833C11.8123 15.3107 12.0027 15.2908 12.1867 15.3263C12.3708 15.3617 12.5402 15.4509 12.6736 15.5826Z" fill="#FAFAFF"/>
</svg>
