<svg width="959" height="959" xmlns="http://www.w3.org/2000/svg">

 <g>
  <title>Layer 1</title>
  <g id="svg_1" isolation="isolate" class="b">
   <g id="a">
    <path id="svg_2" fill="#ffd41d" d="m833.23,479.37c0,195.12 -158.74,353.86 -353.86,353.86c-71.64,0 -138.37,-21.39 -194.14,-58.13c0,0 0,0 0,-0.01l-0.01,0c-11.04,-7.27 -21.64,-15.14 -31.77,-23.57c-21.28,-17.69 -40.45,-37.83 -57.09,-59.97l0,0c-44.47,-59.17 -70.84,-132.65 -70.84,-212.18c0,-195.12 158.74,-353.86 353.86,-353.86c33.73,0 66.38,4.74 97.31,13.61c59.95,17.16 113.43,49.78 155.85,93.25l0,0c15.65,16.04 29.79,33.55 42.19,52.31c36.96,55.88 58.5,122.81 58.5,194.69z" class="e"/>
    <g id="svg_3">
     <path id="svg_4" fill="#721800" d="m226.99,543.09c-11.21,0 -22.46,-2.81 -33.76,-8.42c-7.41,-3.85 -13.34,-8.96 -17.78,-15.32c-7.22,-10.21 -10.84,-22.31 -10.84,-36.31c0,-2.57 0.28,-6.49 0.83,-11.77c0.56,-5.27 2.41,-11.39 5.56,-18.36c5.84,-12.51 14.31,-22.04 25.42,-28.6c10.19,-5.95 21.76,-8.93 34.73,-8.93c8.52,0 15.7,1.32 21.53,3.96c8.7,3.92 14.54,9.74 17.51,17.45c0.28,0.81 0.42,1.59 0.42,2.33c0,1.69 -0.83,3.36 -2.5,5.02c-1.67,1.66 -4.31,2.55 -7.92,2.69l-3.2,0c-4.91,-0.13 -8.24,-1.93 -10,-5.38c-0.74,-1.76 -1.99,-3.35 -3.75,-4.77c-3.71,-1.55 -7.18,-2.33 -10.42,-2.33c-5.28,0 -10,2.06 -14.17,6.19c-4.91,4.8 -8.66,10.82 -11.25,18.05c-2.87,8.18 -4.31,16.67 -4.31,25.46c0,6.97 0.97,13.69 2.92,20.18c1.95,6.49 5.19,11.66 9.72,15.52c0.93,0.95 2.5,1.93 4.72,2.94c1.76,0.81 4.07,1.22 6.95,1.22c0.83,0 2.5,-0.1 5,-0.3c2.5,-0.2 7.04,-1.83 13.62,-4.87c3.43,-2.57 6.02,-5.54 7.78,-8.93c0.92,-1.89 2.5,-3.38 4.72,-4.46c1.95,-1.01 4.12,-1.52 6.53,-1.52l0.69,0c4.07,0.27 7.18,1.59 9.31,3.96c1.39,1.49 2.08,3.11 2.08,4.87c0,0.95 -0.23,1.96 -0.69,3.04c-2.5,5 -6.09,9.55 -10.77,13.64c-4.68,4.09 -10.17,7.35 -16.46,9.79c-7.22,2.64 -14.64,3.96 -22.23,3.96l0.01,0z" class="f"/>
     <path id="svg_5" fill="#721800" d="m313.26,543.29c-4.54,0 -8.34,-1.01 -11.39,-3.04c-3.8,-2.84 -5.7,-6.42 -5.7,-10.75c0.18,-11.9 0.28,-24.65 0.28,-38.24l-0.14,-21c0,-15.35 0.05,-26.71 0.14,-34.08c0.37,-6.56 2.13,-11.07 5.28,-13.54c3.15,-2.47 6.16,-3.84 9.03,-4.11c1.3,-0.13 2.55,-0.2 3.75,-0.2c6.95,-2.09 14.45,-3.14 22.51,-3.14c2.69,0 5.05,0.1 7.09,0.3c14.54,1.96 25.89,7.24 34.04,15.82c6.76,7.1 10.14,15.38 10.14,24.85c0,1.89 -0.14,3.82 -0.42,5.78c-2.13,12.78 -9.96,23.09 -23.48,30.94c-1.76,0.95 -3.57,1.83 -5.42,2.64c14.45,8.45 24.68,19.85 30.7,34.18c0.28,0.95 0.42,1.86 0.42,2.74c0,2.43 -1.25,4.82 -3.75,7.15c-2.5,2.33 -6.16,3.5 -10.98,3.5c-4.08,0 -7.46,-0.73 -10.14,-2.18c-2.69,-1.45 -4.49,-3.4 -5.42,-5.83c-2.59,-6.29 -6.81,-11.78 -12.64,-16.48c-5.84,-4.7 -11.67,-8.37 -17.51,-11c-0.37,14.88 -0.74,23.36 -1.11,25.46c-0.83,4.73 -4.17,7.91 -10,9.53l-1.95,0.61l-3.33,0.1l0,-0.01zm16.95,-60.86c6.48,-0.67 12.32,-2.47 17.51,-5.38c8.89,-5.14 13.34,-12 13.34,-20.59c0,-4.4 -1.53,-8.76 -4.58,-13.08c-3.06,-4.33 -8.52,-7.07 -16.39,-8.22c-1.2,-0.07 -2.36,-0.1 -3.47,-0.1c-1.76,0 -3.57,0.1 -5.42,0.3c-0.19,3.52 -0.51,18.36 -0.97,44.53l0,2.54l-0.02,0z" class="f"/>
     <path id="svg_6" fill="#721800" d="m441.08,544.3c-7.69,0 -13.71,-0.15 -18.06,-0.46c-4.35,-0.3 -6.72,-0.49 -7.09,-0.56l-4.45,-1.42c-2.87,-1.01 -5.09,-2.03 -6.67,-3.04c-3.61,-2.57 -5.42,-5.71 -5.42,-9.43c0.28,-18.05 0.46,-38.1 0.56,-60.15c0.09,-15.62 0.18,-27.11 0.28,-34.49c0,-3.92 0.74,-7 2.22,-9.23c0.65,-1.08 1.71,-2.1 3.2,-3.04c1.48,-0.95 3.03,-1.79 4.65,-2.54c1.62,-0.74 3.03,-1.35 4.24,-1.83l1.81,-0.61c0.56,-0.27 5.37,-0.68 14.45,-1.22c3.52,-0.2 7.73,-0.3 12.64,-0.3c7.41,0 16.3,0.27 26.68,0.81c4.17,0.34 7.45,1.59 9.87,3.75c2.13,1.83 3.19,3.96 3.19,6.39l-0.14,1.52c-0.47,2.71 -1.99,4.8 -4.58,6.29c-1.95,1.15 -4.45,1.72 -7.5,1.72c-0.83,0 -1.67,-0.03 -2.5,-0.1c-7.69,-0.88 -14.68,-1.32 -20.98,-1.32c-5.28,0 -9.59,0.47 -12.92,1.42c-0.37,7.44 -0.65,18.26 -0.83,32.46l25.84,0c3.98,0 7.36,0.98 10.14,2.94c2.78,1.96 4.17,4.36 4.17,7.2s-1.39,5.16 -4.17,7.15c-2.78,2 -6.16,2.99 -10.14,2.99l-26.12,0c-0.19,13.32 -0.42,24.89 -0.69,34.69c2.5,0.07 5.37,0.1 8.61,0.1c9.54,0 19.91,-0.41 31.12,-1.22l1.53,-0.1c3.24,0 6.25,0.74 9.03,2.23c2.78,1.49 4.49,3.62 5.14,6.39c0.09,0.47 0.14,0.98 0.14,1.52c0,2.3 -1.09,4.45 -3.26,6.44c-2.18,1.99 -5.3,3.2 -9.38,3.6c-11.95,0.95 -23.48,1.42 -34.59,1.42l-0.02,0.03z" class="f"/>
     <path id="svg_7" fill="#721800" d="m600.3,543.09l-0.56,0l0,-0.1c-4.91,-0.34 -8.96,-1.67 -12.16,-4.01c-3.19,-2.33 -4.93,-5.29 -5.21,-8.88c-0.46,-7.3 -1.25,-14.57 -2.36,-21.81l-54.05,0c-1.2,8.72 -1.99,17.11 -2.36,25.15c-0.19,2.43 -1.44,4.48 -3.75,6.14c-2.32,1.66 -5.23,2.48 -8.75,2.48c-3.52,-0.07 -6.42,-0.98 -8.68,-2.74c-2.27,-1.76 -3.4,-3.89 -3.4,-6.39l0,-0.1c0.56,-15.21 2.45,-31.14 5.7,-47.77c4.26,-21.5 10.79,-38.34 19.59,-50.51l0.28,-0.3c3.98,-5.48 8.71,-9.74 14.17,-12.78c6.11,-3.38 12.64,-5.07 19.59,-5.07c2.69,0 5.46,0.24 8.34,0.71c15,3.11 26.91,14.2 35.71,33.27c6.95,15.01 11.9,32.42 14.87,52.24c1.95,13.19 2.92,22.38 2.92,27.59c0,3.58 -1.62,6.56 -4.86,8.93c-3.71,2.64 -8.71,3.96 -15,3.96l-0.03,-0.01zm-23.34,-52.74c-2.97,-14.34 -6.42,-26.49 -10.35,-36.46c-3.94,-9.97 -7.85,-15.97 -11.74,-18c-2.13,0.61 -5.37,3.35 -9.72,8.22c-6.86,10.08 -12.27,25.49 -16.25,46.25l48.07,0l-0.01,-0.01z" class="f"/>
     <path id="svg_8" fill="#721800" d="m758.54,544.3c-3.06,0 -5.93,-0.75 -8.61,-2.23c-1.95,-1.22 -3.47,-2.72 -4.58,-4.51c-1.11,-1.79 -1.67,-3.7 -1.67,-5.73c-0.09,-18.32 -0.42,-38.75 -0.97,-61.26l0,-0.1l-27.93,46.66c-2.32,3.79 -6.21,5.82 -11.67,6.09l-0.42,0c-3.89,0 -7.13,-1.12 -9.73,-3.35c-1.67,-1.49 -3.1,-3.35 -4.31,-5.58c-4.45,-7.71 -11.86,-22.79 -22.23,-45.24l0,64.71c-0.09,2.5 -1.25,4.55 -3.47,6.14c-2.22,1.59 -5,2.45 -8.34,2.59l-4.58,0c-3.24,-0.07 -6,-0.91 -8.27,-2.54c-2.27,-1.62 -3.45,-3.68 -3.54,-6.19l0,-102.75c0,-4.06 1.92,-7.52 5.77,-10.4c3.84,-2.87 8.5,-4.31 13.96,-4.31l9.45,0c4.07,0 7.8,0.83 11.18,2.48c3.38,1.66 5.9,3.94 7.57,6.85c0.09,0.2 8.75,17.21 25.98,51.02l30.29,-50.51c0.56,-1.22 1.53,-2.4 2.92,-3.55c2.22,-1.62 4.54,-2.64 6.95,-3.04c2.22,-0.34 3.98,-0.51 5.28,-0.51l2.22,-0.1c6.11,0 10.88,1.29 14.31,3.85c2.59,2.16 4.03,4.33 4.31,6.49c0.18,1.15 0.28,2.16 0.28,3.04c0,0.81 -0.05,1.49 -0.14,2.03c-0.09,0.07 -0.14,0.34 -0.14,0.81c-0.46,12.37 -0.7,31.65 -0.7,57.81c0,14.07 0.09,26.44 0.28,37.12c0,3.72 -0.72,6.59 -2.15,8.62c-1.44,2.03 -3.17,3.43 -5.21,4.21c-2.04,0.78 -3.94,1.23 -5.7,1.37l-6.39,0l0,0.01z" class="f"/>
    </g>
    <g id="svg_9">
     <path id="svg_10" fill="#ffd41d" d="m923.59,467.92c-0.04,-1.88 -0.1,-3.75 -0.18,-5.62c0,-0.18 0,-0.35 -0.02,-0.53c-0.06,-1.65 -0.13,-3.3 -0.22,-4.95c-0.08,-1.64 -0.17,-3.28 -0.27,-4.91c-0.07,-1.15 -0.14,-2.29 -0.23,-3.44c-0.05,-0.9 -0.12,-1.79 -0.19,-2.69c-0.12,-1.62 -0.25,-3.24 -0.39,-4.85c-0.11,-1.27 -0.22,-2.53 -0.35,-3.79c-0.06,-0.74 -0.13,-1.47 -0.21,-2.2c-0.07,-0.72 -0.14,-1.44 -0.22,-2.16c-0.12,-1.16 -0.24,-2.32 -0.38,-3.48c-0.08,-0.75 -0.16,-1.49 -0.25,-2.23c-0.15,-1.24 -0.3,-2.47 -0.46,-3.71c-0.04,-0.34 -0.08,-0.68 -0.13,-1.02c-0.17,-1.4 -0.36,-2.81 -0.56,-4.21c-0.09,-0.69 -0.19,-1.38 -0.29,-2.06c-0.14,-1 -0.28,-1.99 -0.44,-2.98c-0.1,-0.7 -0.2,-1.4 -0.32,-2.1c-0.21,-1.4 -0.43,-2.79 -0.67,-4.18c-0.05,-0.33 -0.1,-0.65 -0.16,-0.98c-0.19,-1.16 -0.39,-2.32 -0.6,-3.48c-0.14,-0.86 -0.3,-1.72 -0.45,-2.58c-0.27,-1.47 -0.54,-2.94 -0.83,-4.41c-0.26,-1.4 -0.54,-2.8 -0.83,-4.19c-0.12,-0.63 -0.25,-1.26 -0.38,-1.88c-0.21,-1.02 -0.42,-2.03 -0.64,-3.04c-0.18,-0.86 -0.37,-1.72 -0.56,-2.58c-0.73,-3.31 -1.49,-6.61 -2.3,-9.89c-0.43,-1.78 -0.88,-3.56 -1.34,-5.33c-0.45,-1.77 -0.92,-3.54 -1.4,-5.31c-2.5,-9.21 -5.29,-18.31 -8.36,-27.27c-0.45,-1.34 -0.92,-2.68 -1.39,-4.01c-0.58,-1.65 -1.17,-3.29 -1.77,-4.93c-0.52,-1.42 -1.05,-2.84 -1.59,-4.26c-0.35,-0.94 -0.71,-1.87 -1.07,-2.8c-0.32,-0.85 -0.66,-1.7 -0.99,-2.55c-0.28,-0.71 -0.56,-1.41 -0.85,-2.12c-0.42,-1.07 -0.85,-2.14 -1.29,-3.21c-0.12,-0.31 -0.25,-0.62 -0.38,-0.93c-0.52,-1.27 -1.04,-2.54 -1.58,-3.8c-0.34,-0.82 -0.69,-1.63 -1.04,-2.44c-0.21,-0.5 -0.42,-1 -0.65,-1.5c-0.52,-1.21 -1.05,-2.42 -1.59,-3.63c-0.22,-0.51 -0.44,-1.01 -0.68,-1.51c-0.38,-0.86 -0.77,-1.73 -1.17,-2.59c-0.31,-0.71 -0.63,-1.41 -0.96,-2.11c-0.57,-1.24 -1.15,-2.47 -1.73,-3.7c-0.06,-0.13 -0.12,-0.26 -0.18,-0.38c-0.52,-1.1 -1.05,-2.2 -1.59,-3.3c-0.38,-0.8 -0.77,-1.6 -1.17,-2.39c-0.53,-1.09 -1.07,-2.19 -1.63,-3.27c0,-0.04 -0.02,-0.07 -0.05,-0.1c-0.72,-1.44 -1.45,-2.88 -2.19,-4.31c-0.09,-0.19 -0.19,-0.38 -0.3,-0.57c-0.72,-1.4 -1.45,-2.8 -2.2,-4.2c-0.81,-1.52 -1.62,-3.03 -2.45,-4.53c-1.67,-3.06 -3.38,-6.1 -5.13,-9.12c-0.83,-1.43 -1.66,-2.86 -2.51,-4.28c-1.06,-1.81 -2.15,-3.61 -3.26,-5.4c-1.24,-2.05 -2.52,-4.1 -3.82,-6.13c-2.16,-3.41 -4.37,-6.79 -6.63,-10.14c-0.73,-1.08 -1.46,-2.16 -2.2,-3.23c-0.27,-0.4 -0.54,-0.8 -0.82,-1.2c-1.9,-2.74 -3.82,-5.46 -5.79,-8.16c-0.97,-1.34 -1.95,-2.67 -2.93,-4c-0.04,-0.07 -0.09,-0.13 -0.15,-0.2c-0.93,-1.25 -1.86,-2.49 -2.8,-3.73c-0.09,-0.13 -0.2,-0.27 -0.3,-0.4c-1,-1.32 -2.01,-2.63 -3.04,-3.94c-1.05,-1.35 -2.11,-2.69 -3.17,-4.02c-1.06,-1.33 -2.13,-2.66 -3.21,-3.98c-3.23,-3.96 -6.53,-7.86 -9.9,-11.71c-1.12,-1.28 -2.25,-2.56 -3.39,-3.83c-2.27,-2.53 -4.57,-5.05 -6.9,-7.53c-0.19,-0.21 -0.39,-0.43 -0.6,-0.65c-0.83,-0.88 -1.66,-1.76 -2.5,-2.63c-2.07,-2.16 -4.16,-4.31 -6.27,-6.43c-0.78,-0.79 -1.57,-1.57 -2.36,-2.35c-0.39,-0.39 -0.78,-0.78 -1.17,-1.16c-0.95,-0.94 -1.91,-1.87 -2.87,-2.79c-1.08,-1.04 -2.16,-2.07 -3.25,-3.1c-3.26,-3.09 -6.57,-6.13 -9.92,-9.11c-1.12,-1 -2.24,-1.99 -3.37,-2.97c-1.09,-0.95 -2.18,-1.9 -3.28,-2.84c-0.1,-0.08 -0.2,-0.17 -0.3,-0.26c-0.84,-0.71 -1.68,-1.43 -2.53,-2.14c-0.54,-0.46 -1.09,-0.92 -1.64,-1.37c-0.84,-0.71 -1.69,-1.41 -2.54,-2.1c-2.32,-1.91 -4.65,-3.79 -7.01,-5.64c-1.17,-0.93 -2.35,-1.85 -3.54,-2.76c-0.83,-0.65 -1.68,-1.3 -2.52,-1.93c-0.74,-0.57 -1.48,-1.13 -2.23,-1.68c-0.39,-0.3 -0.78,-0.59 -1.17,-0.88c-0.89,-0.67 -1.79,-1.34 -2.69,-1.99c-0.98,-0.73 -1.97,-1.45 -2.96,-2.15c-0.96,-0.7 -1.93,-1.39 -2.9,-2.08c-2.5,-1.78 -5.02,-3.53 -7.55,-5.24c-1.19,-0.81 -2.39,-1.61 -3.59,-2.41c-0.94,-0.63 -1.88,-1.25 -2.83,-1.87c-0.9,-0.59 -1.8,-1.18 -2.7,-1.75c-1.05,-0.68 -2.1,-1.35 -3.16,-2.01c-0.89,-0.57 -1.79,-1.13 -2.69,-1.69c-2.57,-1.61 -5.16,-3.18 -7.77,-4.73c-1.08,-0.64 -2.16,-1.28 -3.25,-1.91c-0.25,-0.15 -0.51,-0.3 -0.77,-0.44c-1.02,-0.6 -2.04,-1.19 -3.07,-1.77c-0.44,-0.25 -0.88,-0.51 -1.33,-0.75c-0.9,-0.52 -1.81,-1.03 -2.73,-1.53c-0.4,-0.23 -0.8,-0.45 -1.2,-0.66c-1.1,-0.62 -2.21,-1.22 -3.32,-1.82c-1.33,-0.72 -2.66,-1.43 -3.99,-2.13c-4.2,-2.22 -8.43,-4.37 -12.71,-6.44c-1.16,-0.57 -2.33,-1.13 -3.5,-1.68c0,-0.02 0,-0.02 -0.02,-0.01c-1.36,-0.65 -2.73,-1.3 -4.1,-1.93c-2.75,-1.28 -5.51,-2.53 -8.29,-3.74c-1.12,-0.49 -2.24,-0.98 -3.37,-1.46c-1.02,-0.45 -2.05,-0.88 -3.08,-1.31c-0.33,-0.15 -0.66,-0.29 -1,-0.42l0,0c-0.72,-0.31 -1.44,-0.61 -2.17,-0.9c-1.22,-0.51 -2.46,-1.01 -3.69,-1.49c-1.17,-0.48 -2.34,-0.95 -3.52,-1.4c-1.42,-0.56 -2.84,-1.11 -4.27,-1.64c-2.85,-1.09 -5.71,-2.14 -8.59,-3.15c-1.05,-0.38 -2.11,-0.75 -3.18,-1.11c-0.52,-0.19 -1.05,-0.38 -1.58,-0.55c-0.91,-0.31 -1.83,-0.62 -2.74,-0.92c-0.71,-0.25 -1.42,-0.49 -2.14,-0.72c-1.06,-0.35 -2.13,-0.7 -3.2,-1.04c-0.16,-0.05 -0.31,-0.1 -0.47,-0.14c-1.37,-0.45 -2.73,-0.88 -4.11,-1.3c-2.93,-0.9 -5.88,-1.78 -8.83,-2.62c-1.15,-0.33 -2.31,-0.66 -3.46,-0.97c-0.46,-0.14 -0.92,-0.27 -1.38,-0.39c-1.03,-0.28 -2.05,-0.55 -3.08,-0.82c-0.58,-0.17 -1.16,-0.32 -1.74,-0.46c-0.99,-0.27 -1.99,-0.52 -2.99,-0.77c-0.54,-0.15 -1.08,-0.29 -1.63,-0.41c-1.14,-0.29 -2.29,-0.57 -3.43,-0.85c-0.16,-0.05 -0.32,-0.09 -0.48,-0.11c-5.91,-1.42 -11.86,-2.72 -17.85,-3.9c-1.52,-0.31 -3.05,-0.61 -4.59,-0.88c-1.53,-0.28 -3.06,-0.56 -4.6,-0.83c-1.53,-0.27 -3.07,-0.53 -4.61,-0.78c-0.69,-0.13 -1.39,-0.24 -2.09,-0.34l0,0c-1.3,-0.22 -2.6,-0.42 -3.91,-0.61c-1.17,-0.18 -2.34,-0.35 -3.51,-0.51c-0.68,-0.1 -1.36,-0.2 -2.04,-0.28c-0.97,-0.14 -1.95,-0.27 -2.92,-0.39c-0.75,-0.11 -1.49,-0.2 -2.24,-0.29c-0.91,-0.12 -1.82,-0.23 -2.74,-0.33c-0.77,-0.1 -1.54,-0.19 -2.32,-0.28c-1.67,-0.19 -3.34,-0.37 -5.02,-0.54c-1.77,-0.18 -3.55,-0.35 -5.33,-0.51c-0.29,-0.03 -0.58,-0.05 -0.88,-0.08c-1.51,-0.13 -3.02,-0.26 -4.53,-0.37c-0.41,-0.04 -0.83,-0.07 -1.24,-0.09c-0.91,-0.08 -1.81,-0.14 -2.72,-0.2c-1.07,-0.08 -2.14,-0.15 -3.21,-0.21c-1.54,-0.1 -3.08,-0.18 -4.63,-0.26c-1.89,-0.1 -3.78,-0.18 -5.68,-0.25c-1.9,-0.08 -3.8,-0.14 -5.7,-0.18c-1.9,-0.05 -3.81,-0.09 -5.72,-0.11c-1.9,-0.03 -3.82,-0.04 -5.73,-0.04c-9.56,0 -19.05,0.3 -28.46,0.9c-231.83,14.72 -415.93,208.01 -415.93,443.47c0,1.91 0.01,3.83 0.04,5.73c0.02,1.91 0.06,3.82 0.11,5.72c0.04,1.89 0.1,3.78 0.18,5.66c0,0.07 0,0.15 0.01,0.22c0.05,1.54 0.12,3.08 0.2,4.62c0.02,0.5 0.05,1 0.07,1.5c0.07,1.4 0.15,2.79 0.24,4.18c0.03,0.48 0.06,0.96 0.09,1.44c0.1,1.58 0.21,3.15 0.34,4.72c0,0.25 0.03,0.5 0.05,0.75c0.12,1.51 0.24,3.02 0.37,4.52c0.03,0.35 0.06,0.7 0.09,1.05c0.32,3.5 0.67,6.99 1.07,10.46c0.02,0.2 0.04,0.39 0.06,0.58c0.21,1.79 0.43,3.58 0.66,5.37c0.22,1.76 0.46,3.52 0.7,5.28c0.03,0.2 0.06,0.41 0.09,0.61c0.1,0.78 0.22,1.55 0.33,2.33c0.11,0.74 0.22,1.48 0.34,2.22c0.05,0.38 0.11,0.76 0.17,1.13c0.22,1.46 0.46,2.92 0.7,4.38c0.05,0.29 0.09,0.59 0.15,0.88c0.18,1.1 0.36,2.2 0.56,3.3c0.14,0.8 0.28,1.59 0.42,2.39c0.01,0.03 0.01,0.07 0.02,0.11c0.29,1.62 0.6,3.24 0.91,4.86c0.3,1.58 0.61,3.15 0.93,4.72c0.18,0.9 0.37,1.8 0.56,2.7c0.19,0.91 0.38,1.81 0.58,2.71c0.13,0.61 0.26,1.21 0.4,1.82c0.24,1.12 0.49,2.24 0.76,3.36c0.12,0.56 0.25,1.12 0.38,1.68c0.31,1.34 0.63,2.67 0.96,4c0.07,0.31 0.14,0.63 0.23,0.94c0.32,1.36 0.66,2.71 1.02,4.06c0.37,1.48 0.75,2.95 1.15,4.41c0.17,0.67 0.35,1.33 0.53,2c0.46,1.7 0.93,3.4 1.42,5.1c0.38,1.35 0.77,2.7 1.18,4.05c0.31,1.09 0.64,2.18 0.97,3.26c0.21,0.71 0.43,1.42 0.65,2.12c0.27,0.89 0.55,1.78 0.84,2.67c0.22,0.72 0.45,1.45 0.69,2.17c0.25,0.79 0.5,1.58 0.77,2.37c0.26,0.83 0.54,1.66 0.82,2.49c0.3,0.89 0.6,1.78 0.91,2.67c0.47,1.4 0.95,2.81 1.45,4.2c0.59,1.68 1.19,3.35 1.8,5.02c1.15,3.14 2.34,6.26 3.56,9.36c0.28,0.72 0.56,1.44 0.86,2.16c0.46,1.19 0.94,2.37 1.43,3.55c0.04,0.13 0.09,0.25 0.15,0.37c0.58,1.43 1.17,2.85 1.77,4.26c0.14,0.35 0.29,0.7 0.45,1.05c0.45,1.07 0.9,2.14 1.37,3.2c0.9,2.08 1.82,4.16 2.76,6.22c0.68,1.52 1.38,3.03 2.08,4.54c0.27,0.58 0.55,1.17 0.83,1.75c0.52,1.11 1.04,2.22 1.58,3.32c0.66,1.38 1.33,2.76 2.02,4.13c0.32,0.66 0.64,1.31 0.98,1.96c0.56,1.13 1.13,2.25 1.7,3.37c0.11,0.22 0.22,0.44 0.34,0.65c0.55,1.1 1.12,2.19 1.69,3.27c0.09,0.17 0.18,0.35 0.27,0.52l0.01,0c0.07,0.14 0.14,0.27 0.21,0.41c0.18,0.35 0.36,0.7 0.55,1.04c0.4,0.75 0.8,1.51 1.21,2.26c0.52,0.97 1.05,1.94 1.58,2.91c0.82,1.51 1.65,3.01 2.5,4.5c0.59,1.06 1.19,2.11 1.79,3.15c0.17,0.31 0.35,0.62 0.53,0.92c0.82,1.42 1.64,2.84 2.48,4.25c0.02,0.04 0.04,0.08 0.07,0.12c0.89,1.49 1.78,2.99 2.69,4.47c0.86,1.42 1.72,2.83 2.6,4.23c1.05,1.69 2.12,3.37 3.2,5.05c0.73,1.15 1.48,2.3 2.23,3.44c0.35,0.54 0.71,1.09 1.07,1.63c0.66,0.99 1.32,1.98 1.97,2.96c0.03,0.04 0.06,0.08 0.08,0.11c0.2,0.3 0.4,0.6 0.61,0.9c0.9,1.33 1.81,2.67 2.73,3.99c0.05,0.07 0.1,0.15 0.16,0.22c0.75,1.09 1.52,2.18 2.28,3.27c0.55,0.77 1.09,1.53 1.64,2.29c0.69,0.97 1.39,1.93 2.09,2.89c0.07,0.1 0.14,0.2 0.21,0.29c1.03,1.41 2.06,2.8 3.1,4.19c0,0 0.01,0.02 0.02,0.03c1,1.34 2.01,2.67 3.02,3.99c0.14,0.19 0.28,0.37 0.42,0.55c0.93,1.21 1.86,2.41 2.8,3.6c1.87,2.38 3.76,4.74 5.67,7.08c0.59,0.73 1.19,1.45 1.79,2.17c1.71,2.07 3.44,4.12 5.19,6.15c0.65,0.76 1.31,1.52 1.97,2.28c0.2,0.23 0.4,0.46 0.61,0.69c7.35,8.41 15.02,16.54 22.98,24.37c0.57,0.57 1.15,1.14 1.73,1.7c2.38,2.32 4.79,4.61 7.22,6.87c1.16,1.09 2.33,2.16 3.51,3.24c5.45,4.96 11.02,9.79 16.71,14.49c1.32,1.08 2.64,2.16 3.97,3.23c1.39,1.12 2.78,2.23 4.18,3.33c1.61,1.26 3.22,2.51 4.85,3.76c1.2,0.92 2.41,1.83 3.63,2.74c1.42,1.07 2.86,2.13 4.3,3.18c1.16,0.85 2.33,1.69 3.5,2.53c1.73,1.24 3.46,2.46 5.21,3.67c1.46,1.02 2.94,2.02 4.41,3.02c1.48,1 2.97,1.99 4.46,2.98c0.03,0.01 0.06,0.03 0.09,0.06c2.91,1.91 5.85,3.8 8.81,5.65c0.18,0.11 0.36,0.23 0.54,0.34c2.89,1.8 5.8,3.57 8.73,5.3c1.32,0.78 2.65,1.56 3.98,2.33c1.8,1.04 3.62,2.07 5.44,3.09c1.42,0.79 2.84,1.58 4.26,2.36c1.3,0.71 2.61,1.41 3.92,2.1c0.65,0.35 1.3,0.69 1.95,1.03c3.18,1.68 6.38,3.31 9.6,4.9c1.33,0.67 2.67,1.32 4.01,1.97c1.88,0.9 3.76,1.8 5.65,2.67c1.34,0.63 2.67,1.24 4.02,1.84c2.05,0.94 4.12,1.86 6.19,2.75c1.27,0.56 2.54,1.1 3.81,1.64c0,0 0.02,0 0.03,0c1.66,0.71 3.32,1.4 4.99,2.08c1.46,0.6 2.92,1.19 4.39,1.77c1.89,0.76 3.79,1.49 5.69,2.22c1.55,0.59 3.1,1.17 4.66,1.74c0.33,0.12 0.66,0.24 0.99,0.36c1.2,0.44 2.41,0.88 3.62,1.3c0.45,0.17 0.91,0.33 1.37,0.49c1.46,0.52 2.94,1.03 4.41,1.53c3.23,1.1 6.48,2.16 9.75,3.18c0.69,0.23 1.39,0.44 2.09,0.65c1.35,0.42 2.71,0.84 4.06,1.24c1.56,0.47 3.12,0.92 4.69,1.37c0.19,0.05 0.38,0.11 0.57,0.16c1.6,0.46 3.21,0.91 4.82,1.34c0.3,0.09 0.59,0.17 0.89,0.24c3.29,0.9 6.59,1.75 9.91,2.56c1.95,0.48 3.9,0.94 5.86,1.4c1.6,0.37 3.2,0.73 4.8,1.07c0.34,0.08 0.68,0.16 1.02,0.23c1.16,0.25 2.32,0.5 3.49,0.74c2.47,0.52 4.96,1.01 7.45,1.48c1.06,0.21 2.12,0.4 3.18,0.59c0.84,0.16 1.69,0.31 2.53,0.46c0.2,0.04 0.39,0.07 0.59,0.1c1.29,0.23 2.59,0.46 3.89,0.67c1.63,0.27 3.26,0.53 4.9,0.78c2.03,0.32 4.07,0.62 6.12,0.91c1.68,0.24 3.36,0.46 5.04,0.67c0.33,0.05 0.66,0.09 0.99,0.13c1.44,0.19 2.88,0.36 4.33,0.53c1.78,0.21 3.57,0.4 5.36,0.59c0.76,0.08 1.52,0.16 2.29,0.23c0.72,0.08 1.45,0.15 2.18,0.21c0.87,0.09 1.74,0.16 2.62,0.24c0.18,0.02 0.36,0.03 0.54,0.05c1.52,0.13 3.04,0.26 4.57,0.37c1.41,0.11 2.82,0.21 4.23,0.3c0.78,0.06 1.56,0.11 2.34,0.15c0.35,0.03 0.69,0.05 1.04,0.06c1.23,0.08 2.46,0.15 3.7,0.21c1.8,0.09 3.61,0.17 5.42,0.24c0.16,0 0.33,0.02 0.49,0.02c1.68,0.07 3.36,0.12 5.05,0.16c0.18,0 0.36,0 0.54,0c1.74,0.05 3.49,0.09 5.24,0.1c0.26,0 0.52,0.02 0.78,0c1.76,0.03 3.54,0.04 5.31,0.04c245.02,0 444.37,-199.35 444.37,-444.37c0,-3.83 -0.05,-7.64 -0.15,-11.45l0,0.03zm-60.39,16.11c-0.02,1.89 -0.06,3.77 -0.11,5.64c-0.03,1.32 -0.07,2.64 -0.12,3.96c0,0.24 0,0.47 -0.03,0.71c-0.05,1.46 -0.11,2.92 -0.19,4.38c-0.05,1.19 -0.12,2.38 -0.19,3.57c-0.03,0.6 -0.07,1.2 -0.11,1.79c-0.26,4.21 -0.6,8.41 -1.01,12.6c-0.11,1.24 -0.24,2.48 -0.37,3.72c0,0.06 0,0.12 -0.02,0.18c-0.12,1.14 -0.25,2.29 -0.38,3.43c-0.64,5.61 -1.41,11.19 -2.31,16.75c-0.19,1.2 -0.39,2.39 -0.59,3.58c-0.03,0.22 -0.07,0.44 -0.12,0.65c-0.29,1.73 -0.6,3.46 -0.92,5.19c-0.32,1.71 -0.65,3.41 -0.99,5.11c-0.02,0.16 -0.06,0.31 -0.09,0.47c-0.35,1.72 -0.71,3.44 -1.08,5.15c-0.37,1.72 -0.75,3.43 -1.16,5.14c-0.03,0.22 -0.08,0.43 -0.15,0.64c-0.33,1.47 -0.68,2.94 -1.05,4.41c-0.09,0.4 -0.18,0.8 -0.29,1.19c-0.32,1.31 -0.65,2.62 -1,3.92c-0.11,0.47 -0.23,0.93 -0.37,1.39c-0.27,1.09 -0.56,2.17 -0.87,3.25c-0.16,0.62 -0.33,1.23 -0.5,1.85c-0.3,1.07 -0.61,2.15 -0.92,3.22c-0.2,0.7 -0.4,1.39 -0.61,2.09c-0.46,1.58 -0.94,3.17 -1.43,4.75c-0.53,1.72 -1.07,3.42 -1.63,5.13c-0.56,1.73 -1.14,3.46 -1.73,5.19c0,0 0,0.02 0,0.04c-0.57,1.67 -1.15,3.33 -1.74,4.98c-0.06,0.18 -0.13,0.37 -0.2,0.56c-0.41,1.15 -0.83,2.3 -1.26,3.45c-0.3,0.84 -0.61,1.67 -0.93,2.5c-0.28,0.77 -0.58,1.55 -0.88,2.32c-0.28,0.76 -0.58,1.51 -0.87,2.26c-0.59,1.5 -1.19,3 -1.8,4.5c-0.69,1.71 -1.39,3.4 -2.11,5.1c-19.34,45.71 -47.01,86.76 -82.26,122.01c-9.46,9.46 -19.33,18.37 -29.61,26.72c-0.79,0.65 -1.59,1.29 -2.39,1.93c-3.16,2.53 -6.35,5 -9.58,7.42c-0.75,0.56 -1.5,1.12 -2.25,1.67c-2.55,1.89 -5.14,3.75 -7.74,5.57c-0.93,0.65 -1.86,1.3 -2.8,1.94c-0.35,0.24 -0.7,0.48 -1.05,0.72c-0.8,0.55 -1.61,1.09 -2.42,1.64c-1.02,0.68 -2.05,1.36 -3.08,2.04c-1.28,0.85 -2.57,1.68 -3.87,2.51c-2.3,1.47 -4.62,2.92 -6.95,4.33c-0.77,0.48 -1.54,0.94 -2.31,1.4c-0.52,0.32 -1.05,0.63 -1.58,0.95c-0.68,0.4 -1.36,0.81 -2.05,1.2c-1.01,0.6 -2.03,1.18 -3.05,1.77c-1.27,0.73 -2.56,1.46 -3.84,2.17c-1,0.56 -2,1.11 -3.01,1.65c-1.7,0.93 -3.4,1.85 -5.11,2.75c-1.37,0.72 -2.73,1.43 -4.11,2.13c-1.13,0.58 -2.27,1.15 -3.41,1.72c-0.99,0.5 -1.99,0.99 -2.99,1.47c-0.18,0.09 -0.37,0.18 -0.55,0.26c-0.71,0.36 -1.43,0.7 -2.15,1.04c-0.94,0.46 -1.89,0.91 -2.85,1.35c-0.82,0.39 -1.64,0.77 -2.46,1.14c-1.08,0.5 -2.16,0.99 -3.25,1.48c-1.09,0.49 -2.18,0.97 -3.28,1.45c-1.42,0.62 -2.84,1.24 -4.27,1.84c-47.33,20.02 -97.61,30.17 -149.42,30.17c-1.82,0 -3.64,-0.01 -5.45,-0.04c-1.24,-0.01 -2.49,-0.04 -3.72,-0.07c-1.32,-0.03 -2.64,-0.06 -3.95,-0.12c-0.68,0 -1.37,-0.04 -2.05,-0.07c-1,-0.03 -2.01,-0.07 -3.01,-0.13c-3.31,-0.14 -6.62,-0.34 -9.91,-0.58c-1.1,-0.08 -2.2,-0.16 -3.3,-0.26c-0.38,-0.02 -0.75,-0.05 -1.12,-0.09c-0.86,-0.07 -1.72,-0.14 -2.58,-0.22c-1.07,-0.09 -2.13,-0.19 -3.19,-0.3c-1.03,-0.1 -2.06,-0.21 -3.1,-0.32c-1.03,-0.11 -2.06,-0.22 -3.09,-0.34c-1.03,-0.11 -2.06,-0.24 -3.09,-0.37c-0.67,-0.08 -1.34,-0.16 -2.02,-0.26c-1.13,-0.13 -2.27,-0.28 -3.4,-0.44c-1.07,-0.15 -2.13,-0.3 -3.2,-0.46c-0.2,-0.02 -0.4,-0.05 -0.61,-0.09c-0.59,-0.08 -1.18,-0.17 -1.77,-0.27c-1.24,-0.18 -2.49,-0.38 -3.73,-0.58c-1.55,-0.25 -3.09,-0.51 -4.63,-0.79c-0.08,0 -0.16,-0.02 -0.24,-0.04c-1.49,-0.26 -2.98,-0.53 -4.46,-0.8c-0.16,-0.04 -0.31,-0.06 -0.46,-0.09c-1.44,-0.28 -2.88,-0.56 -4.31,-0.85c-1.8,-0.36 -3.6,-0.74 -5.39,-1.13c-1.32,-0.29 -2.63,-0.58 -3.94,-0.88c-1.47,-0.33 -2.94,-0.68 -4.4,-1.03c-1.76,-0.42 -3.52,-0.86 -5.27,-1.31c-1.42,-0.36 -2.83,-0.73 -4.23,-1.11c-1.68,-0.45 -3.36,-0.91 -5.04,-1.38c-1.39,-0.4 -2.77,-0.8 -4.16,-1.21c-1.37,-0.4 -2.74,-0.82 -4.11,-1.24c-0.4,-0.12 -0.8,-0.25 -1.2,-0.37c-1.28,-0.4 -2.55,-0.8 -3.82,-1.21c-1.13,-0.37 -2.25,-0.73 -3.37,-1.11c-0.55,-0.18 -1.11,-0.37 -1.66,-0.56c-0.98,-0.33 -1.96,-0.66 -2.94,-1.01c-0.81,-0.28 -1.63,-0.57 -2.44,-0.86c-0.44,-0.15 -0.88,-0.31 -1.33,-0.48c-0.95,-0.33 -1.9,-0.68 -2.84,-1.03c-0.92,-0.33 -1.84,-0.67 -2.75,-1.02c-0.82,-0.3 -1.63,-0.61 -2.44,-0.93c-0.67,-0.25 -1.35,-0.52 -2.02,-0.78c-1.32,-0.51 -2.64,-1.04 -3.96,-1.58c-0.24,-0.09 -0.48,-0.19 -0.73,-0.29c-1.67,-0.68 -3.33,-1.37 -4.99,-2.07c-45.71,-19.34 -86.76,-47.01 -122.01,-82.26c-9.48,-9.48 -18.41,-19.38 -26.77,-29.67c-12.09,-14.87 -23,-30.57 -32.7,-47.03c-8.4,-14.27 -15.89,-29.1 -22.43,-44.48c-0.12,-0.27 -0.24,-0.55 -0.36,-0.83c-13.9,-32.86 -23.04,-67.15 -27.32,-102.38c-1.9,-15.51 -2.85,-31.21 -2.85,-47.04c0,-51.81 10.15,-102.09 30.17,-149.42c19.34,-45.71 47.01,-86.76 82.26,-122.01s76.3,-62.92 122.01,-82.26c23.53,-9.95 47.79,-17.47 72.6,-22.5l0,0c25.1,-5.1 50.76,-7.67 76.81,-7.67c9.97,0 19.89,0.38 29.74,1.13l0,0c16.66,1.27 33.12,3.61 49.35,7.01c18.69,3.91 37.07,9.23 55.04,15.96c5.13,1.9 10.22,3.93 15.28,6.07c45.71,19.34 86.76,47.01 122.01,82.26s62.92,76.3 82.26,122.01c20.02,47.33 30.17,97.61 30.17,149.42c0,1.56 -0.01,3.11 -0.03,4.66l0.01,0z" class="e"/>
     <path id="svg_11" fill="#721800" d="m921.06,292.77c-24.15,-57.08 -58.71,-108.34 -102.73,-152.36c-42.75,-42.75 -92.34,-76.58 -147.45,-100.62c-1.63,-0.71 -3.27,-1.42 -4.91,-2.11c-15.65,-6.62 -31.56,-12.37 -47.69,-17.24c-15.18,-4.62 -30.58,-8.45 -46.14,-11.48c-30.33,-5.97 -61.32,-8.96 -92.77,-8.96c-0.89,0 -1.78,0 -2.67,0.02c-63.77,0.33 -125.63,13 -183.93,37.66c-57.08,24.15 -108.34,58.71 -152.36,102.73c-44.02,44.02 -78.58,95.28 -102.73,152.36c-25,59.11 -37.68,121.89 -37.68,186.6c0,51.66 8.08,102.09 24.07,150.4c4.03,12.21 8.57,24.28 13.61,36.2c7.47,17.66 15.94,34.77 25.38,51.27c7.88,13.77 16.42,27.13 25.62,40.04c10.82,15.17 22.54,29.72 35.15,43.63c5.36,5.92 10.89,11.73 16.58,17.42c44.02,44.02 95.28,78.58 152.36,102.73c59.11,25 121.89,37.68 186.6,37.68s127.49,-12.68 186.6,-37.68c57.08,-24.15 108.34,-58.71 152.36,-102.73c44.02,-44.02 78.58,-95.28 102.73,-152.36c25,-59.11 37.68,-121.89 37.68,-186.6s-12.68,-127.49 -37.68,-186.6zm-441.69,630.97c-1.77,0 -3.55,0 -5.31,-0.04c-0.26,0 -0.52,0 -0.78,0c-1.75,-0.01 -3.5,-0.05 -5.24,-0.1c-0.18,0 -0.36,0 -0.54,0c-1.69,-0.04 -3.37,-0.09 -5.05,-0.16c-0.16,0 -0.33,0 -0.49,-0.02c-1.81,-0.07 -3.62,-0.15 -5.42,-0.24c-1.24,-0.06 -2.47,-0.13 -3.7,-0.21c-0.35,0 -0.69,-0.03 -1.04,-0.06c-0.78,-0.04 -1.56,-0.09 -2.34,-0.15c-1.41,-0.09 -2.82,-0.19 -4.23,-0.3c-1.53,-0.11 -3.05,-0.24 -4.57,-0.37c-0.18,-0.02 -0.36,-0.03 -0.54,-0.05c-0.88,-0.08 -1.75,-0.15 -2.62,-0.24c-0.73,-0.06 -1.46,-0.13 -2.18,-0.21c-0.77,-0.07 -1.53,-0.15 -2.29,-0.23c-1.79,-0.19 -3.58,-0.38 -5.36,-0.59c-1.45,-0.17 -2.89,-0.34 -4.33,-0.53c-0.33,-0.04 -0.66,-0.08 -0.99,-0.13c-1.68,-0.21 -3.36,-0.43 -5.04,-0.67c-2.05,-0.29 -4.09,-0.59 -6.12,-0.91c-1.64,-0.25 -3.27,-0.51 -4.9,-0.78c-1.3,-0.21 -2.6,-0.44 -3.89,-0.67c-0.2,-0.03 -0.39,-0.06 -0.59,-0.1c-0.84,-0.15 -1.69,-0.3 -2.53,-0.46c-1.06,-0.19 -2.12,-0.38 -3.18,-0.59c-2.49,-0.47 -4.98,-0.96 -7.45,-1.48c-1.17,-0.24 -2.33,-0.49 -3.49,-0.74c-0.34,-0.07 -0.68,-0.15 -1.02,-0.23c-1.6,-0.34 -3.2,-0.7 -4.8,-1.07c-1.96,-0.46 -3.91,-0.92 -5.86,-1.4c-3.32,-0.81 -6.62,-1.66 -9.91,-2.56c-0.3,-0.07 -0.59,-0.15 -0.89,-0.24c-1.61,-0.43 -3.22,-0.88 -4.82,-1.34c-0.19,-0.05 -0.38,-0.11 -0.57,-0.16c-1.57,-0.45 -3.13,-0.9 -4.69,-1.37c-1.35,-0.4 -2.71,-0.82 -4.06,-1.24c-0.7,-0.21 -1.4,-0.42 -2.09,-0.65c-3.27,-1.02 -6.52,-2.08 -9.75,-3.18c-1.47,-0.5 -2.95,-1.01 -4.41,-1.53c-0.46,-0.16 -0.92,-0.32 -1.37,-0.49c-1.21,-0.42 -2.42,-0.86 -3.62,-1.3c-0.33,-0.12 -0.66,-0.24 -0.99,-0.36c-1.56,-0.57 -3.11,-1.15 -4.66,-1.74c-1.9,-0.73 -3.8,-1.46 -5.69,-2.22c-1.47,-0.58 -2.93,-1.17 -4.39,-1.77c-1.67,-0.68 -3.33,-1.37 -4.99,-2.08c0,0 -0.02,0 -0.03,0c-1.27,-0.54 -2.54,-1.08 -3.81,-1.64c-2.07,-0.89 -4.14,-1.81 -6.19,-2.75c-1.35,-0.6 -2.68,-1.21 -4.02,-1.84c-1.89,-0.87 -3.77,-1.77 -5.65,-2.67c-1.34,-0.65 -2.68,-1.3 -4.01,-1.97c-3.22,-1.59 -6.42,-3.22 -9.6,-4.9c-0.65,-0.34 -1.3,-0.68 -1.95,-1.03c-1.31,-0.69 -2.62,-1.39 -3.92,-2.1c-1.42,-0.78 -2.84,-1.57 -4.26,-2.36c-1.82,-1.02 -3.64,-2.05 -5.44,-3.09c-1.33,-0.77 -2.66,-1.55 -3.98,-2.33c-2.93,-1.73 -5.84,-3.5 -8.73,-5.3c-0.18,-0.11 -0.36,-0.23 -0.54,-0.34c-2.96,-1.85 -5.9,-3.74 -8.81,-5.65c-0.03,-0.03 -0.06,-0.05 -0.09,-0.06c-1.49,-0.99 -2.98,-1.98 -4.46,-2.98c-1.47,-1 -2.95,-2 -4.41,-3.02c-1.75,-1.21 -3.48,-2.43 -5.21,-3.67c-1.17,-0.84 -2.34,-1.68 -3.5,-2.53c-1.44,-1.05 -2.88,-2.11 -4.3,-3.18c-1.22,-0.91 -2.43,-1.82 -3.63,-2.74c-1.63,-1.25 -3.24,-2.5 -4.85,-3.76c-1.4,-1.1 -2.79,-2.21 -4.18,-3.33c-1.33,-1.07 -2.65,-2.15 -3.97,-3.23c-5.69,-4.7 -11.26,-9.53 -16.71,-14.49c-1.18,-1.08 -2.35,-2.15 -3.51,-3.24c-2.43,-2.26 -4.84,-4.55 -7.22,-6.87c-0.58,-0.56 -1.16,-1.13 -1.73,-1.7c-7.96,-7.83 -15.63,-15.96 -22.98,-24.37c-0.21,-0.23 -0.41,-0.46 -0.61,-0.69c-0.66,-0.76 -1.32,-1.52 -1.97,-2.28c-1.75,-2.03 -3.48,-4.08 -5.19,-6.15c-0.6,-0.72 -1.2,-1.44 -1.79,-2.17c-1.91,-2.34 -3.8,-4.7 -5.67,-7.08c-0.94,-1.19 -1.87,-2.39 -2.8,-3.6c-0.14,-0.18 -0.28,-0.36 -0.42,-0.55c-1.01,-1.32 -2.02,-2.65 -3.02,-3.99c0,-0.01 -0.02,-0.02 -0.02,-0.03c-1.04,-1.39 -2.07,-2.78 -3.1,-4.19c-0.07,-0.09 -0.14,-0.19 -0.21,-0.29c-0.7,-0.96 -1.4,-1.92 -2.09,-2.89c-0.55,-0.76 -1.09,-1.52 -1.64,-2.29c-0.76,-1.09 -1.53,-2.18 -2.28,-3.27c-0.06,-0.07 -0.11,-0.15 -0.16,-0.22c-0.92,-1.32 -1.83,-2.66 -2.73,-3.99c-0.21,-0.3 -0.41,-0.6 -0.61,-0.9c-0.03,-0.04 -0.05,-0.08 -0.07,-0.12c-0.67,-0.98 -1.33,-1.96 -1.98,-2.95c-0.36,-0.54 -0.72,-1.09 -1.07,-1.63c-0.75,-1.14 -1.5,-2.29 -2.23,-3.44c-1.08,-1.68 -2.15,-3.36 -3.2,-5.05c-0.88,-1.4 -1.74,-2.81 -2.6,-4.23c-0.91,-1.48 -1.8,-2.98 -2.69,-4.47c-0.03,-0.04 -0.05,-0.08 -0.07,-0.12c-0.84,-1.41 -1.66,-2.83 -2.48,-4.25c-0.18,-0.3 -0.36,-0.61 -0.53,-0.92c-0.6,-1.04 -1.2,-2.09 -1.79,-3.15c-0.85,-1.49 -1.68,-2.99 -2.5,-4.5c-0.53,-0.97 -1.06,-1.94 -1.58,-2.91c-0.41,-0.75 -0.81,-1.51 -1.21,-2.26c-0.19,-0.34 -0.37,-0.69 -0.55,-1.04c-0.07,-0.13 -0.14,-0.27 -0.22,-0.4l0,0c-0.09,-0.18 -0.18,-0.36 -0.27,-0.53c-0.57,-1.08 -1.14,-2.17 -1.69,-3.27c-0.12,-0.21 -0.23,-0.43 -0.34,-0.65c-0.57,-1.12 -1.14,-2.24 -1.7,-3.37c-0.34,-0.65 -0.66,-1.3 -0.98,-1.96c-0.69,-1.37 -1.36,-2.75 -2.02,-4.13c-0.54,-1.1 -1.06,-2.21 -1.58,-3.32c-0.28,-0.58 -0.56,-1.17 -0.83,-1.75c-0.7,-1.51 -1.4,-3.02 -2.08,-4.54c-0.94,-2.06 -1.86,-4.14 -2.76,-6.22c-0.47,-1.06 -0.92,-2.13 -1.37,-3.2c-0.16,-0.35 -0.31,-0.7 -0.45,-1.05c-0.6,-1.41 -1.19,-2.83 -1.77,-4.26c-0.06,-0.12 -0.11,-0.24 -0.15,-0.37c-0.49,-1.18 -0.97,-2.36 -1.43,-3.55c-0.3,-0.72 -0.58,-1.44 -0.86,-2.16c-1.22,-3.1 -2.41,-6.22 -3.56,-9.36c-0.61,-1.67 -1.21,-3.34 -1.8,-5.02c-0.5,-1.39 -0.98,-2.8 -1.45,-4.2c-0.31,-0.89 -0.61,-1.78 -0.91,-2.67c-0.28,-0.83 -0.56,-1.66 -0.82,-2.49c-0.27,-0.79 -0.52,-1.58 -0.77,-2.37c-0.24,-0.72 -0.47,-1.45 -0.69,-2.17c-0.29,-0.89 -0.57,-1.78 -0.84,-2.67c-0.22,-0.7 -0.44,-1.41 -0.65,-2.12c-0.33,-1.08 -0.66,-2.17 -0.97,-3.26c-0.41,-1.35 -0.8,-2.7 -1.18,-4.05c-0.49,-1.7 -0.96,-3.4 -1.42,-5.1c-0.18,-0.67 -0.36,-1.33 -0.53,-2c-0.4,-1.46 -0.78,-2.93 -1.15,-4.41c-0.36,-1.35 -0.7,-2.7 -1.02,-4.06c-0.09,-0.31 -0.16,-0.63 -0.23,-0.94c-0.33,-1.33 -0.65,-2.66 -0.96,-4c-0.13,-0.56 -0.26,-1.12 -0.38,-1.68c-0.27,-1.12 -0.52,-2.24 -0.76,-3.36c-0.14,-0.61 -0.27,-1.21 -0.4,-1.82c-0.2,-0.9 -0.39,-1.8 -0.58,-2.71c-0.19,-0.9 -0.38,-1.8 -0.56,-2.7c-0.32,-1.57 -0.63,-3.14 -0.93,-4.72c-0.31,-1.62 -0.62,-3.24 -0.91,-4.86c0,-0.04 0,-0.08 -0.02,-0.11c-0.14,-0.8 -0.28,-1.59 -0.42,-2.39c-0.2,-1.1 -0.38,-2.2 -0.56,-3.3c-0.06,-0.29 -0.1,-0.59 -0.15,-0.88c-0.24,-1.46 -0.48,-2.92 -0.7,-4.38c-0.06,-0.37 -0.12,-0.75 -0.17,-1.13c-0.23,-1.51 -0.46,-3.03 -0.67,-4.55c-0.03,-0.2 -0.06,-0.41 -0.09,-0.61c-0.24,-1.76 -0.48,-3.52 -0.7,-5.28c-0.23,-1.79 -0.45,-3.58 -0.66,-5.37c-0.02,-0.19 -0.04,-0.38 -0.06,-0.58c-0.4,-3.47 -0.75,-6.96 -1.07,-10.46c-0.03,-0.35 -0.06,-0.7 -0.09,-1.05c-0.13,-1.5 -0.25,-3.01 -0.37,-4.52c-0.02,-0.25 -0.04,-0.5 -0.05,-0.75c-0.13,-1.57 -0.24,-3.14 -0.34,-4.72c-0.03,-0.48 -0.06,-0.96 -0.09,-1.44c-0.09,-1.39 -0.17,-2.78 -0.24,-4.18c-0.02,-0.5 -0.05,-1 -0.07,-1.5c-0.08,-1.54 -0.15,-3.08 -0.2,-4.62c-0.01,-0.07 -0.01,-0.15 -0.01,-0.22c-0.08,-1.88 -0.14,-3.77 -0.18,-5.66c-0.05,-1.9 -0.09,-3.81 -0.11,-5.72c-0.03,-1.9 -0.04,-3.82 -0.04,-5.73c0,-235.49 184.1,-428.78 415.91,-443.5c9.41,-0.6 18.9,-0.9 28.46,-0.9c1.91,0 3.83,0.01 5.73,0.04c1.91,0.02 3.82,0.06 5.72,0.11c1.9,0.04 3.8,0.1 5.7,0.18c1.9,0.07 3.79,0.15 5.68,0.25c1.55,0.08 3.09,0.16 4.63,0.26c1.07,0.06 2.14,0.13 3.21,0.21c0.91,0.06 1.81,0.12 2.72,0.2c0.41,0.02 0.83,0.05 1.24,0.09c1.51,0.11 3.02,0.24 4.53,0.37c0.3,0.03 0.59,0.05 0.88,0.08c1.78,0.16 3.56,0.33 5.33,0.51c1.68,0.17 3.35,0.35 5.02,0.54c0.78,0.09 1.55,0.18 2.32,0.28c0.92,0.1 1.83,0.21 2.74,0.33c0.75,0.09 1.49,0.18 2.24,0.29c0.97,0.12 1.95,0.25 2.92,0.39c0.68,0.08 1.36,0.18 2.04,0.28c1.17,0.16 2.34,0.33 3.51,0.51c1.31,0.19 2.61,0.39 3.91,0.61l0,0c0.7,0.1 1.4,0.21 2.09,0.34c1.54,0.24 3.08,0.5 4.61,0.78c1.54,0.26 3.07,0.53 4.6,0.83c1.54,0.27 3.07,0.57 4.59,0.88c6,1.17 11.95,2.47 17.85,3.9c0.16,0.02 0.32,0.06 0.48,0.11c1.15,0.27 2.29,0.55 3.43,0.85c0.55,0.12 1.09,0.26 1.63,0.41c1,0.24 2,0.5 2.99,0.77c0.58,0.14 1.16,0.29 1.74,0.46c1.03,0.26 2.06,0.54 3.08,0.82c0.46,0.12 0.92,0.25 1.38,0.39c1.16,0.31 2.31,0.63 3.46,0.97c2.96,0.84 5.9,1.71 8.83,2.62c1.38,0.42 2.74,0.85 4.11,1.3c0.16,0.04 0.31,0.09 0.47,0.14c1.07,0.34 2.14,0.69 3.2,1.04c0.72,0.23 1.43,0.47 2.14,0.72c0.92,0.29 1.83,0.6 2.74,0.92c0.53,0.17 1.06,0.36 1.58,0.55c1.07,0.36 2.13,0.73 3.18,1.11c2.88,1.01 5.74,2.06 8.59,3.15c1.43,0.53 2.85,1.08 4.27,1.64c1.18,0.45 2.35,0.92 3.52,1.4c1.23,0.48 2.47,0.98 3.69,1.49c0.73,0.29 1.45,0.59 2.17,0.9l0,0c0.34,0.13 0.67,0.27 1,0.42c1.03,0.43 2.06,0.86 3.08,1.31c1.13,0.47 2.25,0.96 3.37,1.46c2.78,1.21 5.54,2.46 8.29,3.74c1.37,0.63 2.74,1.27 4.1,1.93c0.01,0 0.02,0 0.02,0.01c1.17,0.55 2.34,1.11 3.5,1.68c4.28,2.07 8.51,4.22 12.71,6.44c1.33,0.7 2.66,1.41 3.99,2.13c1.11,0.6 2.22,1.2 3.32,1.82c0.4,0.21 0.8,0.43 1.2,0.66c0.92,0.5 1.83,1.01 2.73,1.53c0.45,0.24 0.89,0.5 1.33,0.75c1.03,0.58 2.05,1.17 3.07,1.77c0.26,0.14 0.52,0.29 0.77,0.44c1.09,0.63 2.17,1.27 3.25,1.91c2.61,1.55 5.2,3.12 7.77,4.73c0.9,0.55 1.8,1.12 2.69,1.69c1.06,0.66 2.11,1.33 3.16,2.01c0.9,0.57 1.8,1.16 2.7,1.75c0.95,0.61 1.89,1.24 2.83,1.87c1.2,0.79 2.4,1.59 3.59,2.41c2.53,1.71 5.05,3.46 7.55,5.24c0.97,0.68 1.94,1.37 2.9,2.08c0.99,0.7 1.98,1.42 2.96,2.15c0.9,0.65 1.8,1.32 2.69,1.99c0.39,0.29 0.78,0.58 1.17,0.88c0.75,0.55 1.49,1.11 2.23,1.68c0.84,0.63 1.69,1.28 2.52,1.93c1.19,0.91 2.37,1.83 3.54,2.76c2.36,1.85 4.69,3.73 7.01,5.64c0.85,0.69 1.7,1.39 2.54,2.1c0.55,0.45 1.1,0.91 1.64,1.37c0.85,0.71 1.69,1.43 2.53,2.14c0.1,0.09 0.2,0.18 0.3,0.26c1.1,0.94 2.19,1.88 3.28,2.84c1.13,0.98 2.25,1.97 3.37,2.97c3.35,2.98 6.66,6.02 9.92,9.11c1.09,1.02 2.17,2.05 3.25,3.1c0.96,0.92 1.92,1.85 2.87,2.79c0.39,0.38 0.78,0.77 1.17,1.16c0.79,0.78 1.58,1.56 2.36,2.35c2.12,2.12 4.21,4.27 6.27,6.43c0.85,0.87 1.68,1.75 2.5,2.63c0.21,0.22 0.41,0.44 0.6,0.65c2.34,2.48 4.64,4.99 6.9,7.53c1.15,1.27 2.28,2.54 3.39,3.83c3.38,3.84 6.68,7.75 9.9,11.71c1.09,1.32 2.16,2.64 3.21,3.98c1.07,1.33 2.13,2.67 3.17,4.02c1.03,1.31 2.04,2.62 3.04,3.94c0.1,0.13 0.21,0.27 0.3,0.4c0.95,1.24 1.88,2.48 2.8,3.73c0.06,0.07 0.11,0.13 0.15,0.2c0.99,1.33 1.97,2.66 2.93,4c1.97,2.7 3.89,5.42 5.79,8.16c0.28,0.4 0.55,0.8 0.82,1.2c0.74,1.07 1.48,2.15 2.2,3.23c2.26,3.35 4.47,6.73 6.63,10.14c1.3,2.03 2.58,4.08 3.82,6.13c1.11,1.79 2.2,3.59 3.26,5.4c0.85,1.42 1.69,2.85 2.51,4.28c1.75,3.02 3.46,6.06 5.13,9.12c0.83,1.5 1.65,3.01 2.45,4.53c0.75,1.4 1.48,2.8 2.2,4.2c0.11,0.19 0.21,0.38 0.3,0.57c0.74,1.43 1.48,2.87 2.19,4.31c0.03,0.03 0.05,0.06 0.05,0.1c0.56,1.08 1.1,2.18 1.63,3.27c0.4,0.79 0.79,1.59 1.17,2.39c0.54,1.1 1.07,2.2 1.59,3.3c0.06,0.12 0.12,0.25 0.18,0.38c0.58,1.23 1.16,2.46 1.73,3.7c0.33,0.7 0.65,1.4 0.96,2.11c0.4,0.86 0.8,1.72 1.17,2.59c0.24,0.5 0.46,1 0.68,1.51c0.54,1.2 1.07,2.42 1.59,3.63c0.23,0.5 0.44,1 0.65,1.5c0.35,0.81 0.7,1.62 1.04,2.44c0.54,1.26 1.06,2.53 1.58,3.8c0.13,0.31 0.26,0.62 0.38,0.93c0.44,1.07 0.87,2.14 1.29,3.21c0.29,0.71 0.57,1.41 0.85,2.12c0.33,0.85 0.67,1.7 0.99,2.55c0.36,0.93 0.72,1.86 1.07,2.8c0.54,1.42 1.07,2.84 1.59,4.26c0.6,1.64 1.19,3.28 1.77,4.93c0.47,1.33 0.94,2.67 1.39,4.01c3.07,8.96 5.86,18.06 8.36,27.27c0.48,1.77 0.95,3.54 1.4,5.31c0.46,1.77 0.91,3.55 1.34,5.33c0.81,3.28 1.57,6.58 2.3,9.89c0.19,0.86 0.38,1.72 0.56,2.58c0.22,1.01 0.43,2.02 0.64,3.04c0.13,0.62 0.26,1.25 0.38,1.88c0.29,1.39 0.57,2.79 0.83,4.19c0.29,1.47 0.56,2.94 0.83,4.41c0.15,0.86 0.31,1.72 0.45,2.58c0.21,1.16 0.41,2.32 0.6,3.48c0.06,0.33 0.11,0.65 0.16,0.98c0.24,1.39 0.46,2.78 0.67,4.18c0.12,0.7 0.22,1.4 0.32,2.1c0.16,0.99 0.3,1.98 0.44,2.98c0.1,0.68 0.2,1.37 0.29,2.06c0.2,1.4 0.39,2.81 0.56,4.21c0.05,0.34 0.09,0.68 0.13,1.02c0.16,1.24 0.31,2.47 0.46,3.71c0.09,0.74 0.17,1.48 0.25,2.23c0.14,1.16 0.26,2.32 0.38,3.48c0.08,0.72 0.15,1.44 0.22,2.16c0.08,0.73 0.15,1.46 0.21,2.2c0.13,1.26 0.24,2.52 0.35,3.79c0.14,1.61 0.27,3.23 0.39,4.85c0.07,0.9 0.14,1.79 0.19,2.69c0.09,1.15 0.16,2.29 0.23,3.44c0.1,1.63 0.19,3.27 0.27,4.91c0.09,1.65 0.16,3.3 0.22,4.95c0.01,0.18 0.02,0.35 0.02,0.53c0.08,1.87 0.14,3.74 0.18,5.62c0.1,3.81 0.15,7.62 0.15,11.45c0,245.02 -199.35,444.37 -444.37,444.37l0.02,0z" class="f"/>
     <path id="svg_12" fill="#721800" d="m833.06,329.95c-19.34,-45.71 -47.01,-86.76 -82.26,-122.01s-76.3,-62.92 -122.01,-82.26c-5.06,-2.14 -10.15,-4.17 -15.28,-6.07c-17.97,-6.73 -36.35,-12.05 -55.04,-15.96c-16.23,-3.4 -32.69,-5.74 -49.35,-7.01l0,0c-9.85,-0.75 -19.77,-1.13 -29.74,-1.13c-26.05,0 -51.71,2.57 -76.81,7.67l0,0c-24.81,5.03 -49.07,12.55 -72.6,22.5c-45.71,19.34 -86.76,47.01 -122.01,82.26s-62.92,76.3 -82.26,122.01c-20.02,47.33 -30.17,97.61 -30.17,149.42c0,15.83 0.95,31.53 2.85,47.04c4.28,35.23 13.42,69.52 27.32,102.38c0.12,0.28 0.24,0.56 0.36,0.83c6.54,15.38 14.03,30.21 22.43,44.48c9.7,16.46 20.61,32.16 32.7,47.03c8.36,10.29 17.29,20.19 26.77,29.67c35.25,35.25 76.3,62.92 122.01,82.26c1.66,0.7 3.32,1.39 4.99,2.07c0.25,0.1 0.49,0.2 0.73,0.29c1.32,0.54 2.64,1.07 3.96,1.58c0.67,0.26 1.35,0.53 2.02,0.78c0.81,0.32 1.62,0.63 2.44,0.93c0.91,0.35 1.83,0.69 2.75,1.02c0.94,0.35 1.89,0.7 2.84,1.03c0.45,0.17 0.89,0.33 1.33,0.48c0.81,0.29 1.63,0.58 2.44,0.86c0.98,0.35 1.96,0.68 2.94,1.01c0.55,0.19 1.11,0.38 1.66,0.56c1.12,0.38 2.24,0.74 3.37,1.11c1.27,0.41 2.54,0.81 3.82,1.21c0.4,0.12 0.8,0.25 1.2,0.37c1.37,0.42 2.74,0.84 4.11,1.24c1.39,0.41 2.77,0.81 4.16,1.21c1.68,0.47 3.36,0.93 5.04,1.38c1.4,0.38 2.81,0.75 4.23,1.11c1.75,0.45 3.51,0.89 5.27,1.31c1.46,0.35 2.93,0.7 4.4,1.03c1.31,0.3 2.62,0.59 3.94,0.88c1.79,0.39 3.59,0.77 5.39,1.13c1.43,0.29 2.87,0.57 4.31,0.85c0.15,0.03 0.3,0.05 0.46,0.09c1.48,0.27 2.97,0.54 4.46,0.8c0.08,0.02 0.16,0.04 0.24,0.04c1.54,0.28 3.08,0.54 4.63,0.79c1.24,0.2 2.49,0.4 3.73,0.58c0.59,0.1 1.18,0.19 1.77,0.27c0.21,0.04 0.41,0.07 0.61,0.09c1.07,0.16 2.13,0.31 3.2,0.46c1.13,0.16 2.27,0.31 3.4,0.44c0.68,0.1 1.35,0.18 2.02,0.26c1.03,0.13 2.06,0.26 3.09,0.37c1.03,0.12 2.06,0.23 3.09,0.34c1.04,0.11 2.07,0.22 3.1,0.32c1.06,0.11 2.12,0.21 3.19,0.3c0.86,0.08 1.72,0.15 2.58,0.22c0.37,0.04 0.74,0.07 1.12,0.09c1.1,0.1 2.2,0.18 3.3,0.26c3.29,0.24 6.6,0.44 9.91,0.58c1,0.06 2.01,0.1 3.01,0.13c0.68,0.03 1.37,0.06 2.05,0.07c1.31,0.06 2.63,0.09 3.95,0.12c1.23,0.03 2.48,0.06 3.72,0.07c1.81,0.03 3.63,0.04 5.45,0.04c51.81,0 102.09,-10.15 149.42,-30.17c1.43,-0.6 2.85,-1.22 4.27,-1.84c1.1,-0.48 2.19,-0.96 3.28,-1.45c1.09,-0.49 2.17,-0.98 3.25,-1.48c0.82,-0.37 1.64,-0.75 2.46,-1.14c0.96,-0.44 1.91,-0.89 2.85,-1.35c0.72,-0.34 1.44,-0.68 2.15,-1.04c0.18,-0.08 0.37,-0.17 0.55,-0.26c1,-0.48 2,-0.97 2.99,-1.47c1.14,-0.57 2.28,-1.14 3.41,-1.72c1.38,-0.7 2.74,-1.41 4.11,-2.13c1.71,-0.9 3.41,-1.82 5.11,-2.75c1.01,-0.54 2.01,-1.09 3.01,-1.65c1.28,-0.71 2.57,-1.44 3.84,-2.17c1.02,-0.59 2.04,-1.17 3.05,-1.77c0.69,-0.39 1.37,-0.8 2.05,-1.2c0.53,-0.32 1.06,-0.63 1.58,-0.95c0.77,-0.46 1.54,-0.92 2.31,-1.4c2.33,-1.41 4.65,-2.86 6.95,-4.33c1.3,-0.83 2.59,-1.66 3.87,-2.51c1.03,-0.68 2.06,-1.36 3.08,-2.04c0.81,-0.55 1.62,-1.09 2.42,-1.64c0.35,-0.24 0.7,-0.48 1.05,-0.72c0.94,-0.64 1.87,-1.29 2.8,-1.94c2.6,-1.82 5.19,-3.68 7.74,-5.57c0.75,-0.55 1.5,-1.11 2.25,-1.67c3.23,-2.42 6.42,-4.89 9.58,-7.42c0.8,-0.64 1.6,-1.28 2.39,-1.93c10.28,-8.35 20.15,-17.26 29.61,-26.72c35.25,-35.25 62.92,-76.3 82.26,-122.01c0.72,-1.7 1.42,-3.39 2.11,-5.1c0.61,-1.5 1.21,-3 1.8,-4.5c0.29,-0.75 0.59,-1.5 0.87,-2.26c0.3,-0.77 0.6,-1.55 0.88,-2.32c0.32,-0.83 0.63,-1.66 0.93,-2.5c0.43,-1.15 0.85,-2.3 1.26,-3.45c0.07,-0.19 0.14,-0.38 0.2,-0.56c0.59,-1.65 1.17,-3.31 1.74,-4.98c0,-0.02 0,-0.03 0,-0.04c0.59,-1.73 1.17,-3.46 1.73,-5.19c0.56,-1.71 1.1,-3.41 1.63,-5.13c0.49,-1.58 0.97,-3.17 1.43,-4.75c0.21,-0.7 0.41,-1.39 0.61,-2.09c0.31,-1.07 0.62,-2.15 0.92,-3.22c0.17,-0.62 0.34,-1.23 0.5,-1.85c0.31,-1.08 0.6,-2.16 0.87,-3.25c0.14,-0.46 0.26,-0.92 0.37,-1.39c0.35,-1.3 0.68,-2.61 1,-3.92c0.11,-0.39 0.2,-0.79 0.29,-1.19c0.37,-1.47 0.72,-2.94 1.05,-4.41c0.07,-0.21 0.12,-0.42 0.15,-0.64c0.41,-1.71 0.79,-3.42 1.16,-5.14c0.37,-1.71 0.73,-3.43 1.08,-5.15c0.03,-0.16 0.07,-0.31 0.09,-0.47c0.34,-1.7 0.67,-3.4 0.99,-5.11c0.32,-1.73 0.63,-3.46 0.92,-5.19c0.05,-0.21 0.09,-0.43 0.12,-0.65c0.2,-1.19 0.4,-2.38 0.59,-3.58c0.9,-5.56 1.67,-11.14 2.31,-16.75c0.13,-1.14 0.26,-2.29 0.38,-3.43c0.01,-0.06 0.02,-0.12 0.02,-0.18c0.13,-1.24 0.26,-2.48 0.37,-3.72c0.41,-4.19 0.75,-8.39 1.01,-12.6c0.04,-0.59 0.08,-1.19 0.11,-1.79c0.07,-1.19 0.14,-2.38 0.19,-3.57c0.08,-1.46 0.14,-2.92 0.19,-4.38c0.02,-0.24 0.02,-0.47 0.03,-0.71c0.05,-1.32 0.09,-2.64 0.12,-3.96c0.05,-1.87 0.09,-3.75 0.11,-5.64c0.02,-1.55 0.03,-3.1 0.03,-4.66c0,-51.81 -10.15,-102.09 -30.17,-149.42l-0.01,0zm-353.69,503.28c-1.52,0 -3.05,-0.01 -4.57,-0.03c-1.51,-0.02 -3.01,-0.05 -4.52,-0.09l-0.1,0c-0.2,0 -0.39,0 -0.59,-0.02c-1.05,-0.02 -2.11,-0.06 -3.16,-0.1l-0.1,0c-0.67,-0.02 -1.34,-0.05 -2.01,-0.08c-0.54,-0.02 -1.08,-0.04 -1.61,-0.07c-0.94,-0.04 -1.87,-0.09 -2.8,-0.14c-1.25,-0.07 -2.5,-0.14 -3.74,-0.23c-0.7,-0.04 -1.39,-0.08 -2.09,-0.14c-0.87,-0.06 -1.73,-0.12 -2.6,-0.19c-1.31,-0.1 -2.62,-0.21 -3.94,-0.33c-2.68,-0.24 -5.35,-0.51 -8.02,-0.81c-0.86,-0.1 -1.73,-0.2 -2.59,-0.31c-1.18,-0.13 -2.36,-0.28 -3.54,-0.44c-0.95,-0.12 -1.9,-0.24 -2.85,-0.38c-0.02,0 -0.05,0 -0.07,0c-0.32,-0.04 -0.64,-0.09 -0.96,-0.13c-0.18,-0.03 -0.37,-0.05 -0.55,-0.08c-0.02,0 -0.04,-0.01 -0.06,-0.01c-0.65,-0.09 -1.3,-0.18 -1.95,-0.29c-0.06,0 -0.11,-0.01 -0.17,-0.02c-0.84,-0.12 -1.69,-0.25 -2.53,-0.39c-0.07,-0.01 -0.15,-0.02 -0.22,-0.03c-1.24,-0.2 -2.47,-0.4 -3.71,-0.61c-1.28,-0.21 -2.55,-0.43 -3.83,-0.67c-2.55,-0.45 -5.1,-0.94 -7.63,-1.46c-1.23,-0.25 -2.46,-0.5 -3.68,-0.77c-0.05,-0.01 -0.1,-0.02 -0.15,-0.03c-0.91,-0.19 -1.82,-0.39 -2.73,-0.6c-0.75,-0.16 -1.51,-0.33 -2.26,-0.51c-0.32,-0.07 -0.63,-0.14 -0.95,-0.22c-1,-0.23 -2,-0.46 -2.99,-0.71c-0.47,-0.11 -0.94,-0.22 -1.4,-0.34c-0.76,-0.18 -1.52,-0.37 -2.27,-0.57c-0.79,-0.19 -1.58,-0.4 -2.37,-0.61c-0.82,-0.22 -1.65,-0.43 -2.47,-0.66c-0.43,-0.11 -0.87,-0.23 -1.3,-0.35c-1.26,-0.34 -2.5,-0.69 -3.75,-1.04c-1.2,-0.34 -2.39,-0.69 -3.58,-1.04c-1.23,-0.36 -2.45,-0.73 -3.67,-1.11c-0.95,-0.29 -1.89,-0.58 -2.83,-0.88c-0.48,-0.15 -0.95,-0.3 -1.42,-0.46c-0.9,-0.28 -1.79,-0.58 -2.68,-0.88c-0.22,-0.07 -0.44,-0.14 -0.65,-0.21c-0.95,-0.31 -1.88,-0.63 -2.82,-0.95c-1.15,-0.4 -2.3,-0.8 -3.44,-1.2c-1.21,-0.43 -2.42,-0.86 -3.62,-1.31c-0.24,-0.08 -0.47,-0.17 -0.71,-0.26c-0.66,-0.24 -1.32,-0.49 -1.98,-0.74c-2.87,-1.07 -5.72,-2.19 -8.55,-3.34c-0.65,-0.26 -1.31,-0.53 -1.96,-0.8c-0.16,-0.07 -0.32,-0.13 -0.48,-0.2c-0.03,0 -0.06,-0.02 -0.09,-0.04c-0.55,-0.22 -1.09,-0.45 -1.63,-0.68c-0.11,-0.04 -0.21,-0.09 -0.32,-0.13c-0.08,-0.04 -0.17,-0.07 -0.25,-0.11c-0.82,-0.35 -1.63,-0.69 -2.44,-1.05c-0.06,-0.02 -0.11,-0.05 -0.17,-0.07c-0.96,-0.41 -1.93,-0.83 -2.88,-1.26c-0.87,-0.39 -1.73,-0.77 -2.59,-1.17c-0.91,-0.4 -1.82,-0.82 -2.73,-1.24c-0.23,-0.11 -0.47,-0.22 -0.7,-0.33c-0.83,-0.38 -1.65,-0.77 -2.47,-1.16c-0.21,-0.1 -0.42,-0.2 -0.62,-0.3c-1.33,-0.63 -2.66,-1.27 -3.97,-1.93c-1.41,-0.69 -2.81,-1.4 -4.21,-2.11c-0.12,-0.06 -0.23,-0.12 -0.35,-0.18c-0.78,-0.4 -1.57,-0.8 -2.35,-1.21c-0.68,-0.35 -1.36,-0.71 -2.04,-1.07c-0.19,-0.1 -0.38,-0.2 -0.57,-0.31c-0.88,-0.46 -1.76,-0.93 -2.63,-1.41c-0.07,-0.03 -0.14,-0.07 -0.21,-0.11c-0.08,-0.04 -0.16,-0.09 -0.23,-0.13c-1.21,-0.65 -2.41,-1.32 -3.61,-1.99c-0.31,-0.17 -0.62,-0.34 -0.93,-0.52c-0.31,-0.18 -0.62,-0.36 -0.93,-0.53c-0.62,-0.35 -1.24,-0.71 -1.86,-1.06c-1.02,-0.59 -2.04,-1.18 -3.05,-1.78c-0.66,-0.39 -1.32,-0.78 -1.98,-1.17c-0.02,-0.02 -0.04,-0.03 -0.06,-0.04c-0.73,-0.43 -1.46,-0.87 -2.19,-1.32c-1.07,-0.65 -2.14,-1.3 -3.2,-1.97c-0.87,-0.54 -1.74,-1.08 -2.6,-1.63c-0.26,-0.17 -0.52,-0.33 -0.78,-0.5c-0.63,-0.4 -1.25,-0.8 -1.87,-1.2c-0.81,-0.53 -1.62,-1.06 -2.43,-1.59c-1.02,-0.67 -2.04,-1.35 -3.05,-2.03c-0.32,-0.22 -0.64,-0.43 -0.96,-0.64c-0.97,-0.67 -1.95,-1.33 -2.91,-2.01c-0.08,-0.05 -0.15,-0.09 -0.21,-0.14c-1.05,-0.72 -2.08,-1.45 -3.12,-2.19c-0.78,-0.55 -1.55,-1.1 -2.32,-1.67c-1.63,-1.17 -3.25,-2.36 -4.85,-3.56c-0.57,-0.43 -1.14,-0.85 -1.7,-1.28c-0.51,-0.38 -1.03,-0.77 -1.54,-1.16c-0.05,-0.04 -0.1,-0.08 -0.15,-0.12c-2.26,-1.74 -4.51,-3.51 -6.73,-5.3c-0.76,-0.61 -1.52,-1.23 -2.28,-1.85c-0.6,-0.49 -1.19,-0.98 -1.78,-1.47c-0.18,-0.15 -0.36,-0.29 -0.53,-0.44c-1.04,-0.86 -2.07,-1.73 -3.09,-2.61c-0.3,-0.25 -0.6,-0.51 -0.89,-0.76c-0.93,-0.79 -1.85,-1.59 -2.76,-2.4c-0.48,-0.42 -0.95,-0.83 -1.42,-1.25c-0.85,-0.75 -1.69,-1.5 -2.53,-2.27c-0.19,-0.17 -0.38,-0.35 -0.57,-0.52c-0.08,-0.06 -0.16,-0.13 -0.23,-0.2c-1,-0.91 -2,-1.82 -2.98,-2.74c-0.53,-0.49 -1.06,-0.98 -1.58,-1.48c-0.04,-0.03 -0.07,-0.07 -0.11,-0.1c-0.81,-0.76 -1.61,-1.52 -2.4,-2.28c-0.3,-0.29 -0.6,-0.57 -0.89,-0.86c-0.82,-0.78 -1.63,-1.57 -2.43,-2.37c-0.51,-0.5 -1.02,-1.01 -1.53,-1.51c-3.25,-3.24 -6.44,-6.54 -9.56,-9.91c-0.53,-0.56 -1.05,-1.13 -1.56,-1.7c-0.53,-0.57 -1.05,-1.14 -1.57,-1.71c-0.08,-0.09 -0.16,-0.18 -0.25,-0.27c-0.57,-0.63 -1.13,-1.27 -1.7,-1.91c-0.02,-0.03 -0.05,-0.05 -0.07,-0.08c-0.77,-0.85 -1.52,-1.72 -2.28,-2.58c-0.05,-0.06 -0.1,-0.11 -0.15,-0.17c-1.09,-1.25 -2.17,-2.51 -3.23,-3.77c-1.11,-1.3 -2.2,-2.61 -3.28,-3.92c-0.08,-0.1 -0.16,-0.2 -0.24,-0.3c-0.09,-0.11 -0.18,-0.21 -0.26,-0.32c-0.66,-0.8 -1.31,-1.6 -1.96,-2.41c-0.05,-0.07 -0.1,-0.14 -0.16,-0.21c-0.38,-0.46 -0.75,-0.93 -1.12,-1.4c-0.09,-0.11 -0.18,-0.22 -0.26,-0.33c-0.05,-0.06 -0.1,-0.12 -0.14,-0.18c-0.06,-0.07 -0.11,-0.14 -0.17,-0.21c-0.42,-0.52 -0.83,-1.04 -1.22,-1.56c-0.06,-0.07 -0.11,-0.13 -0.16,-0.2c-0.04,-0.05 -0.08,-0.1 -0.12,-0.15c-0.16,-0.19 -0.31,-0.39 -0.46,-0.59c-0.1,-0.11 -0.19,-0.23 -0.27,-0.34c-0.06,-0.06 -0.1,-0.13 -0.15,-0.19c-0.87,-1.13 -1.74,-2.25 -2.59,-3.39c-0.13,-0.17 -0.27,-0.35 -0.39,-0.53c-0.71,-0.92 -1.39,-1.85 -2.07,-2.78c-0.7,-0.93 -1.38,-1.87 -2.05,-2.81c-0.68,-0.93 -1.35,-1.87 -2.01,-2.82c-1.34,-1.89 -2.66,-3.79 -3.96,-5.71c-0.65,-0.96 -1.3,-1.92 -1.93,-2.89c-0.65,-0.96 -1.29,-1.93 -1.91,-2.91c-0.64,-0.97 -1.27,-1.94 -1.88,-2.92c-1.27,-1.98 -2.51,-3.97 -3.73,-5.98c-1.19,-1.96 -2.36,-3.93 -3.51,-5.91c-0.47,-0.79 -0.92,-1.58 -1.37,-2.37c-0.04,-0.07 -0.08,-0.15 -0.12,-0.22c-1.35,-2.35 -2.66,-4.71 -3.95,-7.1l0,0s-0.03,-0.07 -0.05,-0.1c-0.44,-0.8 -0.87,-1.6 -1.29,-2.41c-0.55,-1.02 -1.09,-2.04 -1.61,-3.07c-0.01,0 -0.02,-0.02 -0.01,-0.03c-0.08,-0.15 -0.16,-0.3 -0.24,-0.45c-0.46,-0.88 -0.91,-1.76 -1.35,-2.65c-0.53,-1.04 -1.05,-2.08 -1.56,-3.13c-1.04,-2.09 -2.05,-4.2 -3.04,-6.31c-0.3,-0.63 -0.59,-1.26 -0.87,-1.89c-0.34,-0.72 -0.67,-1.44 -0.99,-2.16c-0.12,-0.25 -0.23,-0.51 -0.35,-0.77c-0.05,-0.11 -0.1,-0.22 -0.14,-0.33c-0.25,-0.54 -0.49,-1.08 -0.73,-1.63c-0.06,-0.14 -0.13,-0.27 -0.19,-0.41c-0.29,-0.64 -0.57,-1.29 -0.85,-1.94c-0.42,-0.96 -0.83,-1.93 -1.25,-2.91c-0.28,-0.66 -0.56,-1.33 -0.83,-2c-0.08,-0.19 -0.16,-0.37 -0.23,-0.56c-0.21,-0.49 -0.41,-0.98 -0.61,-1.47c-0.35,-0.82 -0.68,-1.63 -1,-2.46l0,0s-0.03,-0.08 -0.04,-0.11c-0.05,-0.13 -0.11,-0.27 -0.16,-0.4c-0.51,-1.27 -1.01,-2.55 -1.5,-3.84c-0.3,-0.76 -0.59,-1.51 -0.86,-2.27c-0.1,-0.26 -0.2,-0.51 -0.3,-0.77c-0.23,-0.61 -0.46,-1.22 -0.68,-1.83c-0.04,-0.1 -0.07,-0.21 -0.11,-0.31s-0.08,-0.2 -0.12,-0.31l0,0c-0.36,-1 -0.72,-2 -1.07,-2.99c-0.48,-1.35 -0.95,-2.7 -1.42,-4.06c-0.46,-1.36 -0.92,-2.72 -1.37,-4.08c-0.27,-0.84 -0.55,-1.68 -0.82,-2.53c-0.1,-0.32 -0.21,-0.66 -0.31,-0.99c-0.29,-0.89 -0.57,-1.79 -0.84,-2.69c-0.07,-0.22 -0.14,-0.44 -0.21,-0.67c-0.3,-1 -0.61,-2 -0.9,-3.01c-0.31,-1.05 -0.62,-2.1 -0.92,-3.15c-0.02,-0.1 -0.05,-0.2 -0.08,-0.3c-0.03,-0.09 -0.05,-0.19 -0.08,-0.28c-0.25,-0.85 -0.48,-1.7 -0.72,-2.55c-0.11,-0.44 -0.23,-0.87 -0.35,-1.31c-0.39,-1.41 -0.76,-2.82 -1.12,-4.24c-0.05,-0.17 -0.1,-0.34 -0.13,-0.52c-0.37,-1.42 -0.73,-2.84 -1.07,-4.26c-0.31,-1.26 -0.61,-2.52 -0.9,-3.78c-0.36,-1.56 -0.71,-3.12 -1.06,-4.69c-0.25,-1.2 -0.51,-2.4 -0.75,-3.6c-0.05,-0.23 -0.1,-0.45 -0.14,-0.68c-0.24,-1.13 -0.46,-2.26 -0.68,-3.4c-0.06,-0.32 -0.13,-0.65 -0.19,-0.98c-0.21,-1.1 -0.42,-2.21 -0.61,-3.32c-0.25,-1.39 -0.5,-2.77 -0.73,-4.16c-0.09,-0.54 -0.18,-1.08 -0.27,-1.62c-0.14,-0.85 -0.28,-1.71 -0.41,-2.56c-0.16,-0.99 -0.31,-1.98 -0.45,-2.97c-0.14,-0.92 -0.27,-1.84 -0.4,-2.77c-0.02,-0.11 -0.03,-0.21 -0.04,-0.32c-0.03,-0.25 -0.07,-0.51 -0.11,-0.77c-0.04,-0.26 -0.07,-0.52 -0.1,-0.77c-0.07,-0.51 -0.14,-1.03 -0.2,-1.54c-0.15,-1.21 -0.31,-2.42 -0.45,-3.64c0,-0.04 -0.02,-0.08 -0.02,-0.12c0,-0.02 0,-0.04 0,-0.06c-0.01,-0.13 -0.03,-0.27 -0.05,-0.4c-0.06,-0.6 -0.13,-1.19 -0.2,-1.79c-0.11,-0.96 -0.22,-1.93 -0.31,-2.9c-0.11,-1 -0.21,-2.01 -0.3,-3.01c-0.04,-0.37 -0.08,-0.74 -0.11,-1.11c-0.08,-0.88 -0.16,-1.76 -0.23,-2.64c-0.03,-0.3 -0.05,-0.6 -0.07,-0.89c-0.09,-1.08 -0.18,-2.16 -0.25,-3.24c-0.09,-1.21 -0.17,-2.42 -0.25,-3.63c0,-0.05 0,-0.1 -0.01,-0.15c-0.06,-1.03 -0.12,-2.06 -0.17,-3.1c-0.02,-0.26 -0.03,-0.53 -0.05,-0.8c-0.03,-0.73 -0.07,-1.46 -0.1,-2.19c-0.02,-0.5 -0.04,-1.01 -0.06,-1.51c-0.03,-0.53 -0.05,-1.06 -0.06,-1.59l-0.06,-1.59c-0.02,-0.53 -0.03,-1.06 -0.04,-1.59c0,-0.16 -0.02,-0.31 -0.02,-0.47l0,-0.15s0,-0.07 0,-0.11l0,0l0,-0.06c-0.02,-0.5 -0.03,-0.99 -0.04,-1.49c-0.02,-0.62 -0.02,-1.24 -0.03,-1.85c-0.02,-0.74 -0.03,-1.49 -0.03,-2.23c-0.02,-1.12 -0.02,-2.24 -0.02,-3.36c0,-1.3 0,-2.6 0.03,-3.89c0,-0.54 0.01,-1.08 0.02,-1.62l0,-0.1c0.01,-0.8 0.02,-1.62 0.05,-2.42c0,-0.14 0,-0.27 0,-0.41c0,-0.15 0,-0.29 0,-0.44c0,-0.14 0,-0.28 0.01,-0.41c0,-0.19 0,-0.38 0,-0.57c0.02,-1 0.06,-1.99 0.09,-2.98c0.02,-0.57 0.04,-1.14 0.07,-1.71c0.04,-0.93 0.08,-1.85 0.12,-2.78c0.03,-0.5 0.05,-1.01 0.08,-1.51c0.02,-0.35 0.03,-0.7 0.06,-1.04c0,-0.15 0,-0.3 0.02,-0.45c0.04,-0.67 0.08,-1.34 0.12,-2c0.03,-0.44 0.06,-0.88 0.09,-1.32c0,-0.17 0.02,-0.33 0.03,-0.5c0.04,-0.71 0.09,-1.41 0.15,-2.12c0,-0.1 0.01,-0.21 0.02,-0.31c0.06,-0.88 0.13,-1.76 0.21,-2.64l0,-0.03c0.01,-0.13 0.02,-0.26 0.03,-0.4c0.02,-0.19 0.03,-0.38 0.05,-0.57c0,-0.02 0,-0.04 0.01,-0.06c0.05,-0.67 0.11,-1.33 0.17,-1.99c0,-0.12 0.02,-0.25 0.03,-0.37c0.01,-0.1 0.02,-0.2 0.03,-0.3c0.03,-0.28 0.05,-0.55 0.08,-0.83c0.02,-0.23 0.04,-0.46 0.07,-0.69c0.07,-0.77 0.15,-1.54 0.23,-2.31c0,-0.11 0.02,-0.23 0.04,-0.34c0,-0.15 0.03,-0.31 0.05,-0.46c0.06,-0.7 0.14,-1.39 0.22,-2.08c0,-0.03 0,-0.06 0,-0.09c0.07,-0.6 0.14,-1.2 0.21,-1.79c0.12,-1.09 0.25,-2.18 0.39,-3.27c0.04,-0.26 0.07,-0.52 0.11,-0.79c0.01,-0.09 0.02,-0.18 0.03,-0.27c0.11,-0.84 0.22,-1.67 0.34,-2.5c0.02,-0.14 0.04,-0.29 0.06,-0.43c0.05,-0.4 0.1,-0.8 0.16,-1.19c0.12,-0.87 0.25,-1.73 0.38,-2.59c0.1,-0.67 0.2,-1.33 0.3,-2c0.04,-0.26 0.08,-0.52 0.13,-0.79c0.28,-1.82 0.58,-3.64 0.9,-5.45c0.12,-0.69 0.24,-1.38 0.37,-2.07c0.21,-1.21 0.44,-2.43 0.67,-3.64c0.05,-0.29 0.11,-0.58 0.17,-0.87c0.21,-1.08 0.42,-2.16 0.64,-3.24c0.06,-0.3 0.12,-0.59 0.18,-0.89c0.24,-1.17 0.49,-2.35 0.75,-3.52c0.06,-0.32 0.13,-0.63 0.2,-0.94c0.58,-2.63 1.19,-5.25 1.82,-7.86c0.08,-0.3 0.15,-0.59 0.22,-0.89c0.23,-0.92 0.46,-1.84 0.69,-2.75c0.5,-1.94 1.01,-3.88 1.54,-5.82c0.62,-2.28 1.27,-4.56 1.94,-6.83c0.02,-0.08 0.05,-0.15 0.07,-0.23c0.17,-0.57 0.34,-1.15 0.52,-1.72c0.23,-0.79 0.47,-1.58 0.72,-2.37c0.34,-1.1 0.69,-2.21 1.05,-3.31c0.23,-0.75 0.47,-1.49 0.72,-2.24c0.88,-2.7 1.8,-5.39 2.75,-8.06c0.41,-1.17 0.83,-2.33 1.26,-3.48c0.49,-1.36 0.99,-2.7 1.51,-4.05c0.51,-1.35 1.03,-2.69 1.56,-4.03c0.37,-0.95 0.75,-1.89 1.14,-2.83c0.23,-0.6 0.47,-1.18 0.71,-1.77c0.04,-0.09 0.08,-0.19 0.12,-0.28c0.04,-0.09 0.07,-0.17 0.11,-0.26c0.39,-0.95 0.79,-1.89 1.19,-2.84c0.39,-0.91 0.78,-1.83 1.18,-2.74c0.27,-0.65 0.55,-1.29 0.84,-1.93c0.47,-1.08 0.95,-2.15 1.44,-3.22c0.46,-1.03 0.93,-2.05 1.4,-3.07c0.03,-0.05 0.06,-0.11 0.08,-0.16c0.48,-1.03 0.97,-2.07 1.47,-3.1c0.1,-0.23 0.22,-0.47 0.33,-0.71c0.54,-1.12 1.08,-2.24 1.64,-3.36c0.32,-0.67 0.65,-1.33 0.98,-1.99c0.51,-1.03 1.03,-2.06 1.56,-3.08c0.65,-1.27 1.31,-2.54 1.98,-3.8c0.69,-1.31 1.4,-2.63 2.11,-3.93c0.65,-1.2 1.31,-2.4 1.98,-3.59c0.55,-0.99 1.11,-1.99 1.68,-2.97c0.47,-0.82 0.94,-1.64 1.42,-2.45c0.49,-0.85 0.99,-1.7 1.49,-2.54c1.36,-2.29 2.75,-4.57 4.16,-6.82c0.6,-0.97 1.21,-1.93 1.83,-2.89c0.45,-0.71 0.9,-1.41 1.36,-2.11c0.45,-0.7 0.91,-1.4 1.37,-2.1c0.78,-1.19 1.57,-2.37 2.36,-3.55c1.71,-2.52 3.44,-5.01 5.2,-7.48c0.71,-0.99 1.43,-1.98 2.15,-2.97c0.83,-1.15 1.68,-2.29 2.53,-3.42c1.01,-1.35 2.02,-2.69 3.05,-4.02c0.02,-0.03 0.05,-0.06 0.07,-0.09c0.08,-0.1 0.16,-0.21 0.24,-0.31c0.74,-0.96 1.48,-1.9 2.23,-2.85l0.21,-0.27c0.67,-0.85 1.34,-1.7 2.03,-2.54c0.64,-0.8 1.28,-1.59 1.93,-2.38c0.06,-0.07 0.12,-0.14 0.17,-0.21c0.37,-0.45 0.74,-0.9 1.11,-1.34c1.34,-1.62 2.69,-3.22 4.06,-4.81c0.07,-0.08 0.13,-0.15 0.2,-0.23c0.4,-0.47 0.82,-0.95 1.23,-1.42c0.78,-0.9 1.57,-1.79 2.36,-2.68c0.68,-0.78 1.38,-1.55 2.07,-2.31c0.55,-0.61 1.09,-1.21 1.65,-1.81c1.02,-1.12 2.04,-2.22 3.08,-3.32c0.22,-0.24 0.44,-0.48 0.67,-0.71c1.05,-1.11 2.11,-2.21 3.17,-3.31c0.4,-0.41 0.8,-0.83 1.2,-1.24c0.4,-0.41 0.81,-0.82 1.22,-1.23c0.8,-0.82 1.61,-1.63 2.43,-2.44c0,-0.02 0.02,-0.03 0.03,-0.03l0.05,-0.05c0.39,-0.4 0.79,-0.79 1.2,-1.18c0.4,-0.4 0.8,-0.79 1.2,-1.18c1.07,-1.04 2.15,-2.07 3.23,-3.1c0.08,-0.08 0.16,-0.16 0.25,-0.24c1.04,-0.99 2.1,-1.97 3.16,-2.95c0.94,-0.87 1.88,-1.74 2.83,-2.59c0.08,-0.08 0.17,-0.15 0.25,-0.23c1.23,-1.11 2.47,-2.21 3.71,-3.3c1.38,-1.21 2.76,-2.41 4.16,-3.59c0.99,-0.85 1.98,-1.69 2.98,-2.51c0.63,-0.53 1.27,-1.06 1.91,-1.58c0.07,-0.06 0.13,-0.12 0.2,-0.17c1.41,-1.15 2.82,-2.3 4.25,-3.42c0.57,-0.46 1.14,-0.91 1.72,-1.36c0.57,-0.44 1.14,-0.89 1.71,-1.33c0.57,-0.45 1.14,-0.89 1.71,-1.32c1.14,-0.88 2.3,-1.75 3.45,-2.6c0.82,-0.61 1.64,-1.22 2.46,-1.82c1.03,-0.76 2.06,-1.5 3.1,-2.24c0.61,-0.44 1.21,-0.87 1.82,-1.3c0.89,-0.63 1.77,-1.25 2.66,-1.86c0.89,-0.62 1.79,-1.23 2.68,-1.84c0.8,-0.55 1.61,-1.09 2.41,-1.62c1.32,-0.89 2.64,-1.76 3.97,-2.62c0.12,-0.08 0.24,-0.16 0.36,-0.23c0.65,-0.43 1.3,-0.85 1.96,-1.26c1.43,-0.91 2.86,-1.81 4.3,-2.69c0.11,-0.07 0.21,-0.14 0.32,-0.2c1.45,-0.9 2.91,-1.78 4.37,-2.65c0.42,-0.25 0.83,-0.5 1.24,-0.74c0.42,-0.24 0.83,-0.48 1.25,-0.73c0.88,-0.52 1.77,-1.04 2.67,-1.55c0.81,-0.46 1.62,-0.93 2.44,-1.39c1.29,-0.72 2.58,-1.44 3.88,-2.15c0.93,-0.51 1.86,-1.02 2.8,-1.51c0.28,-0.16 0.57,-0.31 0.85,-0.46c1,-0.53 2.01,-1.06 3.02,-1.58c0.86,-0.45 1.72,-0.89 2.58,-1.33c0.38,-0.2 0.76,-0.39 1.14,-0.58c0.04,-0.02 0.07,-0.04 0.11,-0.06c0.4,-0.2 0.8,-0.4 1.2,-0.6c0.4,-0.2 0.8,-0.4 1.2,-0.59c1.04,-0.52 2.09,-1.03 3.14,-1.53c1.05,-0.51 2.1,-1.01 3.16,-1.51c0.43,-0.2 0.86,-0.4 1.29,-0.6c0.43,-0.21 0.87,-0.41 1.3,-0.6c1.3,-0.6 2.62,-1.2 3.93,-1.78c0.04,-0.02 0.07,-0.03 0.11,-0.05c0.02,0 0.05,-0.02 0.07,-0.03c0.83,-0.38 1.66,-0.74 2.5,-1.1c2.27,-0.99 4.55,-1.96 6.84,-2.9c1.08,-0.44 2.17,-0.88 3.26,-1.31c0.89,-0.36 1.78,-0.72 2.68,-1.06c0.09,-0.04 0.19,-0.07 0.28,-0.11c0.89,-0.35 1.78,-0.69 2.67,-1.03c1.17,-0.44 2.35,-0.88 3.53,-1.31c1.1,-0.41 2.2,-0.8 3.31,-1.2c1.37,-0.48 2.73,-0.96 4.11,-1.43c0.72,-0.25 1.44,-0.49 2.16,-0.73c0.59,-0.2 1.19,-0.4 1.79,-0.6c0.75,-0.24 1.5,-0.49 2.26,-0.73c0.3,-0.1 0.61,-0.19 0.91,-0.29c0.14,-0.05 0.29,-0.09 0.43,-0.13c0.82,-0.27 1.65,-0.53 2.48,-0.78c2.45,-0.76 4.91,-1.49 7.39,-2.19c1.37,-0.39 2.75,-0.77 4.13,-1.15l0,0c1.13,-0.31 2.27,-0.61 3.41,-0.9c1.35,-0.36 2.71,-0.7 4.07,-1.04c0.06,-0.02 0.12,-0.03 0.18,-0.04c0.68,-0.18 1.36,-0.34 2.05,-0.5c2.2,-0.53 4.42,-1.05 6.64,-1.54c0.59,-0.13 1.19,-0.26 1.79,-0.38c0.6,-0.13 1.2,-0.26 1.8,-0.38c0.7,-0.15 1.41,-0.3 2.11,-0.44c0.78,-0.16 1.56,-0.32 2.35,-0.47c0.04,0 0.09,-0.02 0.13,-0.03c0.6,-0.12 1.19,-0.23 1.79,-0.34c2.37,-0.45 4.74,-0.88 7.12,-1.28c0.02,0 0.03,-0.01 0.05,-0.01c0.61,-0.1 1.23,-0.21 1.84,-0.31c0.07,0 0.14,-0.02 0.21,-0.03c1.24,-0.2 2.49,-0.4 3.74,-0.59c1.28,-0.19 2.57,-0.38 3.86,-0.56c1.47,-0.21 2.94,-0.4 4.41,-0.59c1.09,-0.14 2.18,-0.27 3.28,-0.4l0.03,0c0.51,-0.07 1.02,-0.13 1.53,-0.18c1.1,-0.13 2.2,-0.25 3.3,-0.36c0.88,-0.09 1.76,-0.18 2.63,-0.26c0.35,-0.04 0.7,-0.07 1.05,-0.1c0.84,-0.08 1.69,-0.16 2.53,-0.23c0.06,0 0.12,0 0.18,-0.02c0.14,0 0.28,-0.02 0.42,-0.03c1.3,-0.12 2.61,-0.22 3.91,-0.31c0.73,-0.06 1.45,-0.1 2.17,-0.15c0.73,-0.05 1.46,-0.09 2.18,-0.14c0.92,-0.06 1.84,-0.11 2.76,-0.16c0.59,-0.03 1.19,-0.07 1.78,-0.09c0.45,-0.03 0.89,-0.05 1.34,-0.06c0.8,-0.04 1.6,-0.07 2.4,-0.1c0.3,-0.02 0.6,-0.03 0.9,-0.03c1.17,-0.05 2.33,-0.08 3.5,-0.11c1.34,-0.04 2.69,-0.06 4.03,-0.08l0.02,0c0.42,-0.01 0.84,-0.01 1.27,-0.02c1.26,-0.01 2.53,-0.02 3.8,-0.02c1.44,0 2.87,0 4.31,0.03c0.66,0 1.33,0.01 2,0.03c0.87,0 1.73,0.03 2.6,0.06c0.77,0.02 1.54,0.04 2.31,0.06c0.78,0.02 1.55,0.05 2.32,0.08c0.09,0 0.18,0 0.27,0.01c1.46,0.05 2.92,0.12 4.37,0.19c0.63,0.03 1.25,0.07 1.88,0.1c0.88,0.05 1.75,0.1 2.63,0.16c1.11,0.07 2.21,0.14 3.31,0.23c0.63,0.04 1.26,0.09 1.89,0.14c1.57,0.12 3.13,0.25 4.7,0.4c0.8,0.07 1.61,0.15 2.4,0.22c0.13,0.02 0.25,0.03 0.38,0.04c0.13,0.02 0.25,0.03 0.38,0.04c0.57,0.06 1.14,0.12 1.7,0.18c0.7,0.07 1.39,0.15 2.08,0.22l1.05,0.12c1.42,0.16 2.83,0.34 4.25,0.52c0.11,0 0.22,0.02 0.33,0.04c1.3,0.16 2.59,0.34 3.89,0.52c0.25,0.03 0.5,0.07 0.75,0.1c0.86,0.12 1.71,0.25 2.56,0.38c0.23,0.03 0.47,0.07 0.7,0.1c0.7,0.1 1.4,0.21 2.1,0.32c0.39,0.06 0.79,0.13 1.18,0.19c0.82,0.13 1.64,0.27 2.46,0.41c0.32,0.05 0.64,0.1 0.96,0.16c1.12,0.19 2.24,0.39 3.36,0.59c1.07,0.19 2.14,0.39 3.2,0.59c0.15,0.03 0.29,0.06 0.44,0.09c1.05,0.2 2.1,0.4 3.15,0.62c1.3,0.26 2.59,0.53 3.89,0.8c0.2,0.04 0.41,0.09 0.61,0.13c0.77,0.17 1.54,0.33 2.31,0.51c2.02,0.44 4.03,0.91 6.03,1.39c0.96,0.23 1.91,0.46 2.85,0.7c0.04,0.01 0.07,0.01 0.09,0.02c1.94,0.48 3.87,0.98 5.8,1.51c0.85,0.22 1.7,0.45 2.55,0.69c0.12,0.03 0.24,0.07 0.36,0.1c0.97,0.27 1.95,0.54 2.91,0.82c1.88,0.53 3.74,1.08 5.6,1.65c0.93,0.28 1.86,0.57 2.79,0.86c1.78,0.56 3.55,1.13 5.31,1.72c0.18,0.05 0.36,0.11 0.53,0.17c0.82,0.27 1.64,0.55 2.45,0.83c0.64,0.21 1.27,0.43 1.9,0.65c0.15,0.05 0.29,0.1 0.43,0.15c0.14,0.04 0.28,0.1 0.42,0.15c0.64,0.22 1.28,0.44 1.91,0.67c2.11,0.75 4.2,1.52 6.29,2.32c0.06,0.02 0.13,0.05 0.19,0.07c0.84,0.31 1.66,0.63 2.49,0.96c0.88,0.33 1.75,0.67 2.62,1.02c0.92,0.37 1.84,0.74 2.76,1.11c0.73,0.29 1.46,0.59 2.18,0.9c0.32,0.13 0.63,0.26 0.94,0.39c0.74,0.3 1.48,0.62 2.21,0.94c1.67,0.7 3.34,1.43 4.99,2.17c0.3,0.13 0.6,0.26 0.89,0.4c1.56,0.69 3.11,1.4 4.66,2.12c0.76,0.35 1.53,0.71 2.29,1.08c0.21,0.09 0.41,0.19 0.62,0.3c0.76,0.35 1.53,0.72 2.29,1.1c0.86,0.41 1.72,0.83 2.58,1.26c0.86,0.42 1.72,0.85 2.57,1.29c0.86,0.43 1.71,0.86 2.56,1.31l2.88,1.5c0.96,0.5 1.91,1.02 2.86,1.53c0.62,0.33 1.24,0.67 1.86,1.01c0.84,0.45 1.68,0.91 2.51,1.39c0.52,0.28 1.04,0.57 1.56,0.87c0.09,0.05 0.17,0.1 0.26,0.15c1.38,0.78 2.76,1.57 4.13,2.37c0.72,0.42 1.45,0.85 2.17,1.28c0.73,0.42 1.45,0.86 2.17,1.3c1.43,0.86 2.86,1.73 4.27,2.61c0.18,0.11 0.36,0.22 0.53,0.33c1.4,0.87 2.79,1.76 4.18,2.65c0.28,0.18 0.55,0.36 0.83,0.54c1.22,0.79 2.44,1.59 3.65,2.4c0.35,0.23 0.69,0.46 1.03,0.69c0.05,0.03 0.1,0.07 0.15,0.1c1.11,0.74 2.2,1.48 3.29,2.24c0.04,0.03 0.09,0.06 0.13,0.09c0.11,0.07 0.21,0.15 0.32,0.22c0.48,0.33 0.96,0.66 1.44,1c1.04,0.72 2.08,1.46 3.12,2.19c0.66,0.48 1.32,0.95 1.98,1.43c0.59,0.43 1.17,0.85 1.75,1.28c0.01,0.01 0.03,0.02 0.04,0.03c0.83,0.6 1.65,1.21 2.47,1.83c1.21,0.9 2.42,1.81 3.62,2.73c1.31,1.01 2.62,2.03 3.92,3.06c0.38,0.29 0.75,0.59 1.12,0.89c0.11,0.08 0.22,0.17 0.33,0.26c1.05,0.84 2.1,1.68 3.14,2.53c0.13,0.11 0.26,0.21 0.38,0.31c1.44,1.18 2.87,2.37 4.29,3.57c0.02,0.02 0.04,0.03 0.06,0.05c1.19,1.01 2.36,2.01 3.53,3.03c0.13,0.12 0.27,0.23 0.4,0.35c0.29,0.26 0.59,0.51 0.88,0.77c0.68,0.59 1.35,1.18 2.02,1.79c0.13,0.11 0.26,0.23 0.39,0.35c0.61,0.53 1.21,1.07 1.81,1.61c1.23,1.12 2.46,2.25 3.68,3.38l0.01,0c0.8,0.75 1.59,1.5 2.38,2.26c0.2,0.18 0.39,0.37 0.58,0.56c0.19,0.16 0.38,0.34 0.57,0.54c0.17,0.15 0.33,0.31 0.5,0.47c0.09,0.08 0.17,0.16 0.25,0.23c1.32,1.28 2.63,2.56 3.93,3.85c1.32,1.31 2.64,2.63 3.94,3.96c1.4,1.44 2.8,2.89 4.17,4.35c0.02,0.02 0.03,0.03 0.05,0.05c0.8,0.84 1.6,1.7 2.38,2.55c0.24,0.25 0.47,0.5 0.71,0.76c0.2,0.22 0.41,0.44 0.61,0.67c0.45,0.49 0.89,0.98 1.33,1.47c0.08,0.09 0.16,0.18 0.24,0.27c0.5,0.54 0.99,1.08 1.47,1.63c0.05,0.05 0.09,0.11 0.14,0.16c0.16,0.18 0.32,0.35 0.47,0.53c0.62,0.69 1.23,1.38 1.82,2.07c0.1,0.11 0.2,0.22 0.29,0.33c0.69,0.77 1.36,1.55 2.01,2.33c0.58,0.67 1.15,1.34 1.72,2.01c0.57,0.68 1.14,1.35 1.7,2.03c0.53,0.63 1.05,1.27 1.58,1.91c0.59,0.72 1.17,1.45 1.76,2.18c0.53,0.64 1.04,1.28 1.55,1.93c0.67,0.83 1.33,1.68 1.99,2.52c0.61,0.78 1.22,1.57 1.82,2.35c0.86,1.13 1.72,2.26 2.57,3.4c1.19,1.59 2.38,3.2 3.54,4.82c0.6,0.82 1.18,1.64 1.77,2.46c0.08,0.11 0.16,0.23 0.24,0.34c0.13,0.18 0.25,0.36 0.38,0.54c0.49,0.7 0.98,1.39 1.47,2.1c0.02,0.02 0.03,0.05 0.05,0.07c0.64,0.92 1.28,1.85 1.91,2.79c0.64,0.93 1.27,1.87 1.89,2.81c0.99,1.48 1.97,2.98 2.94,4.48c0.38,0.59 0.76,1.18 1.14,1.78c0.04,0.07 0.09,0.14 0.13,0.21c0.44,0.68 0.86,1.36 1.29,2.05c1.01,1.61 2.01,3.23 2.99,4.87c0.45,0.73 0.89,1.47 1.34,2.21c0.22,0.38 0.44,0.77 0.67,1.15c0.54,0.92 1.08,1.83 1.6,2.75c0.09,0.14 0.17,0.29 0.25,0.43c0.05,0.08 0.09,0.16 0.13,0.24c0.53,0.92 1.06,1.85 1.58,2.77c0.03,0.05 0.05,0.09 0.08,0.14c0.05,0.08 0.09,0.17 0.14,0.25c0.02,0.04 0.04,0.08 0.06,0.12c0.34,0.61 0.68,1.22 1.02,1.83c0.34,0.61 0.68,1.23 1.01,1.84c0.34,0.63 0.68,1.25 1.02,1.88c0.33,0.63 0.67,1.26 1,1.89c0.67,1.27 1.33,2.53 1.98,3.8c0.54,1.05 1.07,2.1 1.6,3.16c0.32,0.64 0.63,1.27 0.95,1.91c0.47,0.96 0.94,1.93 1.41,2.9c0.04,0.07 0.07,0.15 0.11,0.22l0.27,0.57s0.01,0.01 0.01,0.02c0.39,0.8 0.76,1.61 1.14,2.41c0.12,0.25 0.23,0.49 0.35,0.74c0.01,0.02 0.02,0.04 0.03,0.06c0.04,0.08 0.07,0.16 0.11,0.24c0.5,1.08 1,2.16 1.48,3.24c0.45,0.98 0.89,1.96 1.33,2.95c0.05,0.13 0.11,0.26 0.17,0.39c0.18,0.41 0.36,0.82 0.54,1.24c0,0.03 0.03,0.07 0.04,0.1c0.47,1.07 0.92,2.13 1.38,3.21c0.48,1.12 0.94,2.23 1.4,3.35c0.17,0.42 0.34,0.84 0.52,1.26l0.12,0.3l0,0c0.06,0.17 0.13,0.33 0.19,0.49c0.3,0.75 0.59,1.49 0.89,2.24c0.08,0.2 0.16,0.41 0.25,0.62c0.03,0.08 0.06,0.15 0.09,0.23c0,0.04 0.03,0.07 0.04,0.11c0.36,0.91 0.72,1.82 1.06,2.74c0.07,0.16 0.13,0.32 0.19,0.48c0.04,0.11 0.09,0.23 0.13,0.36c0.5,1.29 0.98,2.58 1.45,3.88c0.42,1.13 0.83,2.27 1.23,3.41c0.17,0.47 0.34,0.94 0.5,1.42c0.3,0.82 0.58,1.65 0.86,2.48c0.15,0.43 0.3,0.87 0.45,1.31c0.01,0.02 0.02,0.05 0.02,0.07c0.15,0.44 0.3,0.88 0.45,1.33c0.16,0.46 0.31,0.93 0.46,1.4c0.36,1.09 0.71,2.19 1.06,3.29c0.3,0.92 0.59,1.84 0.87,2.77c0.13,0.43 0.27,0.86 0.4,1.3c0.29,0.95 0.57,1.9 0.85,2.85c0.31,1.05 0.61,2.1 0.91,3.15c0.4,1.4 0.79,2.8 1.17,4.2c0.38,1.38 0.74,2.76 1.1,4.14c0.01,0.05 0.02,0.1 0.04,0.15c0.35,1.38 0.7,2.75 1.04,4.14c0,0.02 0,0.04 0,0.07c0.16,0.66 0.32,1.32 0.49,1.98c0.17,0.75 0.35,1.5 0.52,2.26l0.51,2.25c0.05,0.18 0.09,0.37 0.13,0.55c0.02,0.11 0.05,0.22 0.07,0.33c0.15,0.66 0.29,1.32 0.44,1.99c0.25,1.18 0.5,2.37 0.75,3.56c0.02,0.12 0.05,0.25 0.07,0.37c0.16,0.8 0.32,1.6 0.48,2.41c0.06,0.28 0.11,0.56 0.17,0.84c0.05,0.29 0.11,0.58 0.17,0.87c0.26,1.36 0.51,2.73 0.75,4.09c0.15,0.82 0.29,1.64 0.43,2.46c0.05,0.24 0.09,0.49 0.13,0.73c0.02,0.15 0.05,0.3 0.07,0.45c0.15,0.88 0.29,1.77 0.44,2.66c0.14,0.88 0.28,1.76 0.42,2.65c0.2,1.36 0.4,2.72 0.59,4.08c0,0.05 0.02,0.09 0.02,0.14c0.07,0.44 0.13,0.89 0.19,1.33c0,0.03 0,0.06 0,0.09c0.09,0.62 0.17,1.24 0.24,1.86c0.15,1.04 0.28,2.08 0.4,3.12c0.12,0.99 0.24,1.98 0.35,2.97c0.12,1.03 0.23,2.07 0.33,3.1c0.1,0.83 0.18,1.67 0.26,2.5c0.02,0.18 0.03,0.35 0.05,0.53c0.09,0.91 0.17,1.82 0.25,2.72c0.26,2.94 0.48,5.88 0.66,8.84c0.1,1.48 0.18,2.96 0.25,4.44c0.08,1.48 0.14,2.96 0.2,4.45c0.1,2.7 0.17,5.41 0.21,8.13c0,0.32 0,0.65 0,0.97c0.02,1.45 0.03,2.89 0.03,4.34c0,195.12 -158.74,353.86 -353.86,353.86l0.08,-0.01z" class="f"/>
    </g>
    <path id="svg_13" opacity="0.5" mix-blend-mode="multiply" fill="#c57009" d="m923.74,479.37c0,245.02 -199.35,444.37 -444.37,444.37c-169.27,0 -316.75,-95.14 -391.75,-234.76c10.37,18.05 122.73,108.47 262.9,152.09c31.16,9.69 63.56,18.46 96.78,20.84c104.07,7.46 203.07,-17.54 290.01,-98.25c71.63,-66.5 104.47,-145.46 120.38,-218.87c41.57,-191.81 -52.95,-366.82 -54.17,-369.06c74.53,79.51 120.22,186.34 120.22,303.64z" class="d"/>
    <path id="svg_14" mix-blend-mode="overlay" fill="#fff" d="m551.54,40.87s-473.17,-40.87 -511.82,503.25c0,0 -0.01,0 -0.02,0c-3.1,-21.14 -4.7,-42.76 -4.7,-64.74c0,-245.03 199.35,-444.38 444.37,-444.38c24.57,0 48.68,2 72.17,5.87z" class="c"/>
    <path id="svg_15" opacity="0.5" mix-blend-mode="multiply" fill="#c57009" d="m576.68,139.12s-237.5,-38.96 -370.31,165.25c-50.23,77.23 -87.33,228.67 -10.02,387.17c-44.47,-59.16 -70.84,-132.64 -70.84,-212.17c0,-195.12 158.74,-353.86 353.86,-353.86c33.73,0 66.38,4.74 97.31,13.61z" class="d"/>
    <path id="svg_16" opacity="0.5" mix-blend-mode="multiply" fill="#c57009" d="m833.23,479.37c0,195.12 -158.74,353.86 -353.86,353.86c-71.64,0 -138.37,-21.39 -194.14,-58.13c0,0 0,0 0,-0.01c2.07,0.95 241.9,111.46 425.23,-69.14c179.12,-176.45 64.17,-421.08 64.17,-421.08l0.11,-0.19c36.96,55.88 58.5,122.81 58.5,194.69l-0.01,0z" class="d"/>
    <path id="svg_17" mix-blend-mode="overlay" fill="#fff" d="m537.66,169.52c-7.65,-20.22 -54.5,-21.23 -104.64,-2.26c-50.14,18.98 -84.58,50.75 -76.92,70.97c7.65,20.22 54.5,21.23 104.64,2.26c50.14,-18.98 84.58,-50.75 76.92,-70.97z" class="c"/>
    <path id="svg_18" mix-blend-mode="overlay" fill="#fff" d="m327.91,253.12c-7.25,-9.81 -32.24,-3.63 -55.82,13.8c-23.58,17.43 -36.82,39.51 -29.57,49.31c7.25,9.81 32.24,3.63 55.82,-13.8c23.58,-17.43 36.82,-39.51 29.57,-49.31z" class="c"/>
   </g>
  </g>
 </g>
</svg>