<svg width="28" height="28" viewBox="0 0 28 28" fill="none" xmlns="http://www.w3.org/2000/svg">
<circle cx="14" cy="14" r="14" fill="#FF4200"/>
<path fill-rule="evenodd" clip-rule="evenodd" d="M7 23.6141H9.021L10.3291 20.1674C10.7234 19.032 11.1747 17.9172 11.6814 16.8273C12.1172 16.0053 12.6691 15.2504 13.3202 14.5858C13.9325 13.8941 14.6628 13.3168 15.4772 12.8808C16.0317 12.5783 16.6469 12.4038 17.2777 12.37C17.5257 12.3518 17.773 12.4136 17.9832 12.5464C18.061 12.6081 18.1224 12.6879 18.1622 12.7789C18.2019 12.8699 18.2187 12.9692 18.211 13.0682C18.211 13.4626 17.8779 14.3947 17.2115 15.8645L15.7675 19.0908C15.1318 20.5165 14.8157 21.5049 14.8157 22.0635C14.8038 22.2995 14.8447 22.5351 14.9357 22.7532C15.0266 22.9713 15.1652 23.1663 15.3412 23.3238C15.7168 23.6403 16.195 23.8088 16.6861 23.7979C17.5113 23.7564 18.3017 23.4526 18.9423 22.9307C19.7737 22.3121 20.4733 21.5338 21 20.6414H20.1659C19.8253 21.215 19.3819 21.7207 18.8577 22.1333C18.4863 22.4859 18.0078 22.7044 17.4982 22.7543C17.4052 22.7609 17.3119 22.7483 17.2241 22.7173C17.1362 22.6864 17.0557 22.6376 16.9874 22.5742C16.8631 22.4258 16.8023 22.2344 16.8184 22.0414C16.8184 21.8283 17.1087 21.0346 17.6856 19.6677L19.1811 16.1622C19.8474 14.587 20.1806 13.59 20.1806 13.1711C20.1955 12.9422 20.1521 12.7132 20.0544 12.5056C19.9567 12.298 19.808 12.1186 19.622 11.9842C19.1082 11.6819 18.5158 11.5399 17.9207 11.5763C16.2476 11.5763 14.3907 12.5905 12.3501 14.6189L14.1609 9.72984L19.5412 8.31936L19.243 7.18194L14.6595 8.38353L16.2084 4.20154H15.7822C14.9101 4.49795 13.5738 4.66453 11.7732 4.70128L11.5711 5.2892H12.126C12.5088 5.25644 12.8943 5.304 13.2577 5.42883C13.3337 5.47768 13.3949 5.54618 13.435 5.62705C13.4752 5.70792 13.4926 5.79815 13.4856 5.88815C13.3675 6.43461 13.1977 6.96859 12.9785 7.4829L12.4279 8.96858L8.41974 10.0193L8.71792 11.1568L11.9289 10.315L7 23.6141Z" fill="#F9F9F9"/>
</svg>
