<svg width="28" height="28" viewBox="0 0 28 28" fill="none" xmlns="http://www.w3.org/2000/svg">
<circle cx="14" cy="14" r="14" fill="black"/>
<path fill-rule="evenodd" clip-rule="evenodd" d="M8.55029 26.8992C10.2781 27.6301 12.1095 28 14 28C15.8876 28 17.7219 27.6301 19.4497 26.9051C21.1183 26.2008 22.6154 25.1888 23.8994 23.9045C25.1864 22.6172 26.1953 21.1198 26.8994 19.4538C27.6302 17.7256 28 15.8939 28 14.003C28 12.112 27.6302 10.2773 26.8994 8.5521C26.1953 6.88311 25.1834 5.38575 23.8994 4.10146C22.6124 2.8142 21.1154 1.80512 19.4497 1.10082C17.7219 0.369901 15.8905 0 14 0C12.1095 0 10.2781 0.369901 8.55029 1.09491C6.88166 1.7992 5.38461 2.81124 4.10059 4.09554C2.81361 5.38279 1.80473 6.88015 1.10059 8.54618C0.369822 10.2744 0 12.1061 0 13.997C0 15.888 0.369822 17.7227 1.10059 19.4479C1.80473 21.1169 2.81657 22.6142 4.10059 23.8985C5.38757 25.1858 6.88461 26.1949 8.55029 26.8992ZM8.85799 1.82879C10.4882 1.13929 12.216 0.790108 14 0.790108C15.784 0.790108 17.5118 1.13929 19.142 1.82879C20.716 2.49461 22.1272 3.44747 23.3402 4.66075C24.5533 5.87402 25.5059 7.28556 26.1716 8.85986C26.8609 10.4904 27.2101 12.2186 27.2101 14.003C27.2101 15.7874 26.8609 17.5185 26.1716 19.1461C25.5059 20.7204 24.5533 22.1319 23.3402 23.3452C22.1272 24.5584 20.716 25.5113 19.142 26.1771C17.5118 26.8666 15.784 27.2158 14 27.2158C12.216 27.2158 10.4852 26.8666 8.85799 26.1771C7.28402 25.5113 5.87278 24.5584 4.65976 23.3452C3.44674 22.1319 2.49408 20.7204 1.8284 19.1461C1.13905 17.5155 0.789941 15.7874 0.789941 14.003C0.789941 12.2186 1.13905 10.4874 1.8284 8.85986C2.49408 7.28556 3.44674 5.87402 4.65976 4.66075C5.87278 3.44747 7.28402 2.49461 8.85799 1.82879ZM17.4497 19.3975C17.8284 19.1015 18.1509 18.7316 18.4201 18.2907H19.0326C18.6036 18.995 18.0977 19.5602 17.5089 19.9893C16.9201 20.4184 16.3639 20.6315 15.8343 20.6315C15.4497 20.6315 15.1184 20.5131 14.8403 20.2793C14.5651 20.0455 14.4261 19.7348 14.4261 19.3472C14.4261 18.9358 14.6598 18.199 15.1302 17.1425L16.2012 14.7515C16.6953 13.6536 16.9438 12.9642 16.9438 12.6801C16.9438 12.5084 16.8846 12.3782 16.7722 12.2924C16.6568 12.2066 16.4823 12.1622 16.2485 12.1622C15.8698 12.1622 15.4261 12.2895 14.9142 12.541C14.4024 12.7925 13.8698 13.2157 13.3166 13.8046C12.7604 14.3964 12.358 14.9498 12.1006 15.4676C11.8462 15.9855 11.5119 16.8082 11.1006 17.9415L10.145 20.4983H8.64795L12.2929 10.6353L9.9231 11.2567L9.7012 10.4133L12.6598 9.638L13.0681 8.53422C13.3195 7.85656 13.4468 7.46299 13.4468 7.3535C13.4468 7.19666 13.3906 7.08125 13.2781 7.01319C13.1657 6.94513 12.8846 6.90962 12.4408 6.90962H12.0385L12.1894 6.47461C13.5237 6.44798 14.5119 6.32369 15.1598 6.10175H15.4734L14.3255 9.203L17.7219 8.30932L17.9438 9.15269L13.9556 10.2003L12.6124 13.8282C14.1243 12.322 15.5 11.5704 16.7426 11.5704C17.3048 11.5704 17.7249 11.668 18.003 11.8604C18.2781 12.0527 18.4172 12.3457 18.4172 12.7393C18.4172 13.05 18.1687 13.7898 17.6746 14.9557L16.5651 17.5539C16.1361 18.5689 15.9231 19.1548 15.9231 19.3146C15.9231 19.4862 15.9675 19.6194 16.0503 19.7082C16.1361 19.797 16.2604 19.8413 16.429 19.8413C16.7308 19.8413 17.071 19.6934 17.4497 19.3975Z" fill="white"/>
</svg>
