<svg width="28" height="28" viewBox="0 0 28 28" fill="none" xmlns="http://www.w3.org/2000/svg">
<circle cx="14" cy="14" r="14" fill="#9797C2"/>
<path d="M9.344 18.224H13.024V20H7.104V8.832H9.344V18.224ZM22.5918 12.288C22.5918 12.8853 22.4478 13.4453 22.1597 13.968C21.8824 14.4907 21.4398 14.912 20.8318 15.232C20.2344 15.552 19.4771 15.712 18.5598 15.712H16.6878V20H14.4478V8.832H18.5598C19.4238 8.832 20.1598 8.98133 20.7678 9.28C21.3758 9.57867 21.8291 9.98933 22.1278 10.512C22.4371 11.0347 22.5918 11.6267 22.5918 12.288ZM18.4638 13.904C19.0824 13.904 19.5411 13.7653 19.8398 13.488C20.1384 13.2 20.2878 12.8 20.2878 12.288C20.2878 11.2 19.6798 10.656 18.4638 10.656H16.6878V13.904H18.4638Z" fill="white"/>
<path d="M14 28C12.1095 28 10.2781 27.6301 8.55029 26.8992C6.88461 26.1949 5.38757 25.1858 4.10059 23.8985C2.81657 22.6142 1.80473 21.1169 1.10059 19.4479C0.369822 17.7227 0 15.888 0 13.997C0 12.1061 0.369822 10.2744 1.10059 8.54618C1.80473 6.88015 2.81361 5.38279 4.10059 4.09554C5.38461 2.81124 6.88166 1.7992 8.55029 1.09491C10.2781 0.369901 12.1095 0 14 0C15.8905 0 17.7219 0.369901 19.4497 1.10082C21.1154 1.80512 22.6124 2.8142 23.8994 4.10146C25.1834 5.38575 26.1953 6.88311 26.8994 8.5521C27.6302 10.2773 28 12.112 28 14.003C28 15.8939 27.6302 17.7256 26.8994 19.4538C26.1953 21.1198 25.1864 22.6172 23.8994 23.9045C22.6154 25.1888 21.1183 26.2008 19.4497 26.9051C17.7219 27.6301 15.8876 28 14 28ZM14 0.790108C12.216 0.790108 10.4882 1.13929 8.85799 1.82879C7.28402 2.49461 5.87278 3.44747 4.65976 4.66075C3.44674 5.87402 2.49408 7.28556 1.8284 8.85986C1.13905 10.4874 0.789941 12.2186 0.789941 14.003C0.789941 15.7874 1.13905 17.5155 1.8284 19.1461C2.49408 20.7204 3.44674 22.1319 4.65976 23.3452C5.87278 24.5584 7.28402 25.5113 8.85799 26.1771C10.4852 26.8666 12.216 27.2158 14 27.2158C15.784 27.2158 17.5118 26.8666 19.142 26.1771C20.716 25.5113 22.1272 24.5584 23.3402 23.3452C24.5533 22.1319 25.5059 20.7204 26.1716 19.1461C26.8609 17.5185 27.2101 15.7874 27.2101 14.003C27.2101 12.2186 26.8609 10.4904 26.1716 8.85986C25.5059 7.28556 24.5533 5.87402 23.3402 4.66075C22.1272 3.44747 20.716 2.49461 19.142 1.82879C17.5118 1.13929 15.784 0.790108 14 0.790108Z" fill="#FAFAFF"/>
</svg>
