<svg width="28" height="28" viewBox="0 0 28 28" fill="none" xmlns="http://www.w3.org/2000/svg">
<circle cx="14" cy="14" r="14" fill="white"/>
<path d="M18.4201 18.2908C18.1509 18.7317 17.8284 19.1016 17.4497 19.3975C17.071 19.6934 16.7308 19.8414 16.429 19.8414C16.2604 19.8414 16.1361 19.797 16.0503 19.7082C15.9675 19.6195 15.9231 19.4863 15.9231 19.3147C15.9231 19.1549 16.1361 18.5689 16.5651 17.5539L17.6746 14.9557C18.1687 13.7898 18.4172 13.05 18.4172 12.7393C18.4172 12.3457 18.2781 12.0528 18.003 11.8604C17.7249 11.6681 17.3048 11.5704 16.7426 11.5704C15.5 11.5704 14.1243 12.3221 12.6124 13.8283L13.9556 10.2003L17.9438 9.15275L17.7219 8.30937L14.3255 9.20305L15.4734 6.10181H15.1598C14.5119 6.32375 13.5237 6.44803 12.1894 6.47467L12.0385 6.90967H12.4408C12.8846 6.90967 13.1657 6.94518 13.2781 7.01324C13.3906 7.0813 13.4468 7.19671 13.4468 7.35355C13.4468 7.46304 13.3195 7.85662 13.0681 8.53427L12.6598 9.63806L9.7012 10.4134L9.9231 11.2567L12.2929 10.6353L8.64795 20.4983H10.145L11.1006 17.9416C11.5119 16.8082 11.8462 15.9856 12.1006 15.4677C12.358 14.9498 12.7604 14.3965 13.3166 13.8046C13.8698 13.2157 14.4024 12.7926 14.9142 12.541C15.4261 12.2895 15.8698 12.1623 16.2485 12.1623C16.4823 12.1623 16.6568 12.2066 16.7722 12.2925C16.8846 12.3783 16.9438 12.5085 16.9438 12.6801C16.9438 12.9642 16.6953 13.6537 16.2012 14.7516L15.1302 17.1426C14.6598 18.199 14.4261 18.9359 14.4261 19.3472C14.4261 19.7349 14.5651 20.0456 14.8403 20.2794C15.1184 20.5131 15.4497 20.6315 15.8343 20.6315C16.3639 20.6315 16.9201 20.4184 17.5089 19.9894C18.0977 19.5603 18.6036 18.9951 19.0326 18.2908H18.4201Z" fill="black"/>
<path d="M14 28C12.1095 28 10.2781 27.6301 8.55029 26.8992C6.88461 26.1949 5.38757 25.1858 4.10059 23.8985C2.81657 22.6142 1.80473 21.1169 1.10059 19.4479C0.369822 17.7227 0 15.888 0 13.997C0 12.1061 0.369822 10.2744 1.10059 8.54618C1.80473 6.88015 2.81361 5.38279 4.10059 4.09554C5.38461 2.81124 6.88166 1.7992 8.55029 1.09491C10.2781 0.369901 12.1095 0 14 0C15.8905 0 17.7219 0.369901 19.4497 1.10082C21.1154 1.80512 22.6124 2.8142 23.8994 4.10146C25.1834 5.38575 26.1953 6.88311 26.8994 8.5521C27.6302 10.2773 28 12.112 28 14.003C28 15.8939 27.6302 17.7256 26.8994 19.4538C26.1953 21.1198 25.1864 22.6172 23.8994 23.9045C22.6154 25.1888 21.1183 26.2008 19.4497 26.9051C17.7219 27.6301 15.8876 28 14 28ZM14 0.790108C12.216 0.790108 10.4882 1.13929 8.85799 1.82879C7.28402 2.49461 5.87278 3.44747 4.65976 4.66075C3.44674 5.87402 2.49408 7.28556 1.8284 8.85986C1.13905 10.4874 0.789941 12.2186 0.789941 14.003C0.789941 15.7874 1.13905 17.5155 1.8284 19.1461C2.49408 20.7204 3.44674 22.1319 4.65976 23.3452C5.87278 24.5584 7.28402 25.5113 8.85799 26.1771C10.4852 26.8666 12.216 27.2158 14 27.2158C15.784 27.2158 17.5118 26.8666 19.142 26.1771C20.716 25.5113 22.1272 24.5584 23.3402 23.3452C24.5533 22.1319 25.5059 20.7204 26.1716 19.1461C26.8609 17.5185 27.2101 15.7874 27.2101 14.003C27.2101 12.2186 26.8609 10.4904 26.1716 8.85986C25.5059 7.28556 24.5533 5.87402 23.3402 4.66075C22.1272 3.44747 20.716 2.49461 19.142 1.82879C17.5118 1.13929 15.784 0.790108 14 0.790108Z" fill="black"/>
</svg>
