<svg width="28" height="28" viewBox="0 0 28 28" fill="none" xmlns="http://www.w3.org/2000/svg">
<circle cx="14" cy="14" r="14" fill="#9797C2"/>
<path d="M14 28C12.1095 28 10.2781 27.6301 8.55029 26.8992C6.88461 26.1949 5.38757 25.1858 4.10059 23.8985C2.81657 22.6142 1.80473 21.1169 1.10059 19.4479C0.369822 17.7227 0 15.888 0 13.997C0 12.1061 0.369822 10.2744 1.10059 8.54618C1.80473 6.88015 2.81361 5.38279 4.10059 4.09554C5.38461 2.81124 6.88166 1.7992 8.55029 1.09491C10.2781 0.369901 12.1095 0 14 0C15.8905 0 17.7219 0.369901 19.4497 1.10082C21.1154 1.80512 22.6124 2.8142 23.8994 4.10146C25.1834 5.38575 26.1953 6.88311 26.8994 8.5521C27.6302 10.2773 28 12.112 28 14.003C28 15.8939 27.6302 17.7256 26.8994 19.4538C26.1953 21.1198 25.1864 22.6172 23.8994 23.9045C22.6154 25.1888 21.1183 26.2008 19.4497 26.9051C17.7219 27.6301 15.8876 28 14 28ZM14 0.790108C12.216 0.790108 10.4882 1.13929 8.85799 1.82879C7.28402 2.49461 5.87278 3.44747 4.65976 4.66075C3.44674 5.87402 2.49408 7.28556 1.8284 8.85986C1.13905 10.4874 0.789941 12.2186 0.789941 14.003C0.789941 15.7874 1.13905 17.5155 1.8284 19.1461C2.49408 20.7204 3.44674 22.1319 4.65976 23.3452C5.87278 24.5584 7.28402 25.5113 8.85799 26.1771C10.4852 26.8666 12.216 27.2158 14 27.2158C15.784 27.2158 17.5118 26.8666 19.142 26.1771C20.716 25.5113 22.1272 24.5584 23.3402 23.3452C24.5533 22.1319 25.5059 20.7204 26.1716 19.1461C26.8609 17.5185 27.2101 15.7874 27.2101 14.003C27.2101 12.2186 26.8609 10.4904 26.1716 8.85986C25.5059 7.28556 24.5533 5.87402 23.3402 4.66075C22.1272 3.44747 20.716 2.49461 19.142 1.82879C17.5118 1.13929 15.784 0.790108 14 0.790108Z" fill="white"/>
<path d="M13.9829 8C15.1886 8 16.1567 8.31276 16.887 8.93827C17.629 9.55281 18 10.4033 18 11.4897C18 12.5652 17.6348 13.3882 16.9044 13.9588C16.1741 14.5185 15.206 14.7984 14.0003 14.7984L13.9308 16.0658H11.7918L11.7048 13.2675H12.4874C13.496 13.2675 14.2728 13.1413 14.8176 12.8889C15.3625 12.6365 15.635 12.1756 15.635 11.5062C15.635 11.0233 15.4843 10.6392 15.1828 10.3539C14.893 10.0686 14.493 9.92593 13.9829 9.92593C13.4496 9.92593 13.0323 10.0631 12.7308 10.3374C12.441 10.6118 12.2961 10.9904 12.2961 11.4733H10.0006C9.98903 10.8038 10.1397 10.2058 10.4528 9.67901C10.7658 9.15226 11.2237 8.74074 11.8266 8.44444C12.441 8.14815 13.1598 8 13.9829 8ZM12.8526 20C12.412 20 12.0468 19.8738 11.757 19.6214C11.4788 19.358 11.3396 19.0343 11.3396 18.6502C11.3396 18.2661 11.4788 17.9479 11.757 17.6955C12.0468 17.4321 12.412 17.3004 12.8526 17.3004C13.2815 17.3004 13.6351 17.4321 13.9134 17.6955C14.1916 17.9479 14.3307 18.2661 14.3307 18.6502C14.3307 19.0343 14.1916 19.358 13.9134 19.6214C13.6351 19.8738 13.2815 20 12.8526 20Z" fill="#F9F9F9"/>
</svg>
