<svg width="28" height="28" viewBox="0 0 28 28" fill="none" xmlns="http://www.w3.org/2000/svg">
<circle cx="14" cy="14" r="14" fill="#9D9DAA"/>
<circle cx="14" cy="14" r="11" stroke="#F9F9F9" stroke-width="2"/>
<path d="M13.9829 8C15.1886 8 16.1567 8.31276 16.887 8.93827C17.629 9.55281 18 10.4033 18 11.4897C18 12.5652 17.6348 13.3882 16.9044 13.9588C16.1741 14.5185 15.206 14.7984 14.0003 14.7984L13.9308 16.0658H11.7918L11.7048 13.2675H12.4874C13.496 13.2675 14.2728 13.1413 14.8176 12.8889C15.3625 12.6365 15.635 12.1756 15.635 11.5062C15.635 11.0233 15.4843 10.6392 15.1828 10.3539C14.893 10.0686 14.493 9.92593 13.9829 9.92593C13.4496 9.92593 13.0323 10.0631 12.7308 10.3374C12.441 10.6118 12.2961 10.9904 12.2961 11.4733H10.0006C9.98903 10.8038 10.1397 10.2058 10.4528 9.67901C10.7658 9.15226 11.2237 8.74074 11.8266 8.44444C12.441 8.14815 13.1598 8 13.9829 8ZM12.8526 20C12.412 20 12.0468 19.8738 11.757 19.6214C11.4788 19.358 11.3396 19.0343 11.3396 18.6502C11.3396 18.2661 11.4788 17.9479 11.757 17.6955C12.0468 17.4321 12.412 17.3004 12.8526 17.3004C13.2815 17.3004 13.6351 17.4321 13.9134 17.6955C14.1916 17.9479 14.3307 18.2661 14.3307 18.6502C14.3307 19.0343 14.1916 19.358 13.9134 19.6214C13.6351 19.8738 13.2815 20 12.8526 20Z" fill="#F9F9F9"/>
</svg>
