<svg width="159" height="48" viewBox="0 0 159 48" fill="none" xmlns="http://www.w3.org/2000/svg">
<g clip-path="url(#clip0_1856_15554)">
<path fill-rule="evenodd" clip-rule="evenodd" d="M44.0929 12.2995L55.2673 17.8867C55.7836 18.1449 55.7917 18.879 55.2811 19.1484L40.7682 26.808C39.959 27.2351 38.9935 27.2457 38.1751 26.8365L29.0631 22.2804C27.953 21.8345 26.7118 22.649 26.7118 23.8758C26.7118 24.8622 27.2691 25.764 28.1513 26.2051L37.2869 30.7728C37.8445 30.205 38.621 29.8528 39.4798 29.8528C40.314 29.8528 41.0706 30.1852 41.6244 30.7246L53.0031 24.7192C52.9719 24.5437 52.9557 24.3629 52.9557 24.1784C52.9557 22.4809 54.3318 21.1048 56.0293 21.1048C57.7267 21.1048 59.1029 22.4809 59.1029 24.1784C59.1029 25.8759 57.7267 27.252 56.0293 27.252C55.1993 27.252 54.4461 26.923 53.893 26.3883L42.508 32.397C42.5378 32.569 42.5534 32.7459 42.5534 32.9264C42.5534 34.6239 41.1773 36 39.4798 36C37.7823 36 36.4062 34.6239 36.4062 32.9264C36.4062 32.7694 36.418 32.6152 36.4407 32.4645L27.1728 27.8306C25.7311 27.1097 24.8203 25.6361 24.8203 24.0241V23.1263C24.8203 21.8986 25.4998 20.7718 26.5855 20.1988L41.4998 12.328C42.309 11.9009 43.2745 11.8903 44.0929 12.2995ZM39.4798 34.1085C40.1327 34.1085 40.662 33.5793 40.662 32.9264C40.662 32.2735 40.1327 31.7443 39.4798 31.7443C38.8269 31.7443 38.2977 32.2735 38.2977 32.9264C38.2977 33.5793 38.8269 34.1085 39.4798 34.1085ZM57.2114 24.1784C57.2114 24.8313 56.6821 25.3605 56.0293 25.3605C55.3764 25.3605 54.8471 24.8313 54.8471 24.1784C54.8471 23.5255 55.3764 22.9962 56.0293 22.9962C56.6821 22.9962 57.2114 23.5255 57.2114 24.1784Z" fill="white"/>
<path d="M83.1116 19.4179C83.1116 20.1083 82.552 20.668 81.8615 20.668C81.171 20.668 80.6113 20.1083 80.6113 19.4179C80.6113 18.7276 81.171 18.168 81.8615 18.168C82.552 18.168 83.1116 18.7276 83.1116 19.4179Z" fill="white"/>
<path d="M80.8203 21.5V30.6666H82.9034V21.5H80.8203Z" fill="white"/>
<path d="M85.8197 28.0623C85.8197 29.8039 86.6063 30.6653 88.4414 30.6653H89.9864V28.8863H88.8957C88.1654 28.8863 87.9033 28.6054 87.9033 27.8563V23.1653H89.9864V21.4987H87.9033V18.582H85.8197V21.4987H84.1533V23.1653H85.8197V28.0623Z" fill="white"/>
<path d="M91.6533 17.334V30.6673H96.6347C99.7993 30.6673 101.467 29.0498 101.467 26.8213C101.467 24.9112 100.374 24.1961 98.6325 23.8965C100.187 23.5594 100.998 22.4464 100.998 20.8546C100.998 18.701 99.3497 17.334 96.466 17.334H91.6533ZM93.8068 19.1317H96.5222C98.0204 19.1317 98.8444 19.9557 98.8444 21.1168C98.8444 22.2965 98.0016 23.1673 96.5222 23.1673H93.8068V19.1317ZM93.8068 24.834H96.6535C98.3199 24.834 99.2574 25.4168 99.2574 26.709C99.2574 28.0385 98.3761 28.8508 96.6535 28.8508H93.8068V24.834Z" fill="white"/>
<path d="M107.694 30.666C110.683 30.666 112.695 28.6622 112.695 25.666C112.695 22.6889 110.683 20.666 107.694 20.666C104.706 20.666 102.694 22.6889 102.694 25.666C102.694 28.6622 104.706 30.666 107.694 30.666ZM107.694 28.9103C105.951 28.9103 104.821 27.5553 104.821 25.666C104.821 23.7767 105.951 22.4218 107.694 22.4218C109.438 22.4218 110.587 23.7767 110.587 25.666C110.587 27.5553 109.438 28.9103 107.694 28.9103Z" fill="white"/>
<path d="M118.944 30.666C121.933 30.666 123.945 28.6622 123.945 25.666C123.945 22.6889 121.933 20.666 118.944 20.666C115.956 20.666 113.944 22.6889 113.944 25.666C113.944 28.6622 115.956 30.666 118.944 30.666ZM118.944 28.9103C117.201 28.9103 116.071 27.5553 116.071 25.666C116.071 23.7767 117.201 22.4218 118.944 22.4218C120.688 22.4218 121.837 23.7767 121.837 25.666C121.837 27.5553 120.688 28.9103 118.944 28.9103Z" fill="white"/>
<path d="M128.817 26.304L127.217 28.1017V30.6673H125.194V17.334H127.217V25.6486L131.812 20.6673H134.153L130.259 24.8246L134.153 30.6673H131.756L128.817 26.304Z" fill="white"/>
<path d="M73.2678 30.6672C69.5974 30.6672 67.0693 27.9894 67.0693 24.0006C67.0693 20.0119 69.5412 17.334 73.4366 17.334C76.3203 17.334 78.3753 18.9589 78.957 21.5007H76.7759C76.2542 20.0751 75.0453 19.2253 73.3803 19.2253C70.8896 19.2253 69.2791 21.1917 69.2791 24.0006C69.2791 26.8096 70.8521 28.7759 73.3616 28.7759C75.3837 28.7759 77.0131 27.6335 77.1256 25.5175V24.8339H73.3194V23.1673H79.1525V30.6672H77.5564L77.3314 28.6822C76.6948 29.6186 75.3462 30.6672 73.2678 30.6672Z" fill="white"/>
</g>
<rect x="1.32031" y="0.5" width="156.359" height="47" rx="7.5" stroke="#9797C2"/>
<defs>
<clipPath id="clip0_1856_15554">
<rect width="109.359" height="24" fill="white" transform="translate(24.8203 12)"/>
</clipPath>
</defs>
</svg>
