<svg width="196" height="42" viewBox="0 0 196 42" fill="none" xmlns="http://www.w3.org/2000/svg">
<path fill-rule="evenodd" clip-rule="evenodd" d="M124.012 27.6144C123.236 27.2834 122.624 26.8065 122.172 26.1837C121.72 25.5608 121.488 24.8241 121.474 23.977H124.457C124.496 24.5465 124.699 24.9985 125.062 25.3295C125.425 25.6605 125.927 25.8278 126.564 25.8278C127.201 25.8278 127.724 25.6712 128.094 25.3615C128.464 25.0483 128.653 24.6426 128.653 24.1372C128.653 23.7243 128.528 23.3862 128.276 23.1228C128.023 22.8594 127.71 22.6495 127.333 22.4964C126.955 22.3434 126.432 22.1761 125.77 21.9875C124.87 21.7241 124.136 21.4607 123.571 21.2009C123.008 20.9411 122.524 20.5531 122.118 20.0264C121.713 19.5032 121.513 18.802 121.513 17.9265C121.513 17.1043 121.72 16.3889 122.129 15.7768C122.538 15.1682 123.119 14.6983 123.859 14.3745C124.603 14.0506 125.45 13.8869 126.404 13.8869C127.834 13.8869 128.998 14.2357 129.895 14.9332C130.792 15.6308 131.283 16.6025 131.376 17.8482H128.311C128.283 17.3713 128.084 16.9762 127.706 16.663C127.329 16.3498 126.827 16.1967 126.204 16.1967C125.66 16.1967 125.226 16.3355 124.902 16.6132C124.578 16.8908 124.414 17.2965 124.414 17.8268C124.414 18.197 124.535 18.5066 124.781 18.7522C125.026 18.9978 125.332 19.1971 125.695 19.3501C126.058 19.5032 126.574 19.6776 127.236 19.8769C128.137 20.1438 128.874 20.4072 129.443 20.6741C130.013 20.9411 130.504 21.3361 130.917 21.8664C131.326 22.3968 131.532 23.0943 131.532 23.9557C131.532 24.6995 131.34 25.3864 130.956 26.0235C130.571 26.6606 130.009 27.166 129.265 27.5468C128.521 27.9241 127.639 28.1127 126.621 28.1127C125.653 28.1127 124.781 27.949 124.005 27.6144H124.012ZM80.7115 19.8128V16.3319H85.9826V14.0648H77.9247V27.9668H85.9826V25.6996H80.7115V22.0194H85.3882V19.8128H80.7115ZM69.429 27.974V14.0863H66.6422V19.7952H60.6949V14.0863H57.9081V27.974H60.6949V22.0659H66.6422V27.974H69.429ZM97.265 25.7638H101.838V27.9705H94.4782V14.0863H97.265V25.7638ZM113.117 27.974V14.0863H110.331V27.974H113.117ZM158.478 14.0899L158.479 14.0863V14.0899H158.478ZM158.478 14.0899L154.599 27.974H151.318L148.712 18.0868L145.986 27.974L142.722 27.9954L138.982 14.0899H141.964L144.413 24.874L147.239 14.0899H150.342L153.008 24.8135L155.475 14.0899H158.478ZM174.164 25.3259H168.633L167.718 27.9703H164.792L169.786 14.0648H173.028L178.022 27.9703H175.078L174.164 25.3259ZM173.409 23.0979L171.398 17.2893L169.387 23.0979H173.406H173.409ZM193.807 22.0445C194.558 21.6459 195.106 21.1227 195.458 20.4714H195.454C195.807 19.8201 195.981 19.126 195.981 18.3822C195.981 17.56 195.793 16.8268 195.415 16.1755C195.038 15.5278 194.469 15.0188 193.714 14.6451C192.959 14.2714 192.045 14.0863 190.97 14.0863H185.855V27.974H188.642V22.6425H190.97C192.112 22.6425 193.056 22.4432 193.807 22.0445ZM193.123 18.3857C193.123 19.0193 192.935 19.514 192.564 19.8663L192.568 19.8699C192.194 20.2223 191.625 20.3966 190.856 20.3966H188.649V16.357H190.856C192.369 16.357 193.123 17.0333 193.123 18.3857Z" fill="#F9F9F9"/>
<path d="M31.7342 1.23791V13.4529L22.7759 19.1475C22.3168 19.4393 21.7295 19.4393 21.2704 19.1475L12.312 13.4529V1.17028C12.312 0.248466 11.2941 -0.310318 10.5147 0.184402L1.10433 6.16731C0.428092 6.59796 0.0187912 7.34182 0.0187912 8.14263V33.8574C0.0187912 34.6582 0.428092 35.402 1.10433 35.8327L10.5147 41.8156C11.2941 42.3103 12.312 41.7515 12.312 40.8297V28.5614L21.2704 22.8632C21.7295 22.5714 22.3168 22.5714 22.7759 22.8632L31.7342 28.5614V40.7407C31.7342 41.6626 32.7522 42.2213 33.5316 41.7266L42.942 35.7437C43.6182 35.3131 44.0275 34.5692 44.0275 33.7684V8.20669C44.0275 7.40589 43.6182 6.66203 42.942 6.23137L33.5316 0.248466C32.7522 -0.246253 31.7342 0.312531 31.7342 1.23435V1.23791ZM41.7034 32.1419L34.0548 27.2801V14.7306L41.7034 9.86525V32.1419ZM34.0548 3.3378L40.8492 7.65859L34.0548 11.9758V3.3378ZM9.98793 3.27017V11.9794L3.14015 7.62299L9.98793 3.26661V3.27017ZM9.98793 27.2837L2.33935 32.1454V9.86525L9.98793 14.7306V27.2801V27.2837ZM9.98793 38.7298L3.15083 34.3841L9.98793 30.0384V38.7334V38.7298ZM12.312 25.8066V16.2112L19.861 21.0089L12.312 25.8066ZM24.1889 21.0089L31.7378 16.2112V25.8066L24.1889 21.0089ZM34.0584 38.6444V30.0384L40.8278 34.3414L34.0584 38.6444Z" fill="url(#paint0_linear_133_375)"/>
<defs>
<linearGradient id="paint0_linear_133_375" x1="11.2123" y1="-0.17863" x2="32.7664" y2="42.1181" gradientUnits="userSpaceOnUse">
<stop stop-color="#F62ED6"/>
<stop offset="1" stop-color="#2D46FC"/>
</linearGradient>
</defs>
</svg>
