<svg width="44" height="42" viewBox="0 0 44 42" fill="none" xmlns="http://www.w3.org/2000/svg">
<path d="M31.7092 1.23791V13.4529L22.7526 19.1475C22.2936 19.4393 21.7064 19.4393 21.2474 19.1475L12.2908 13.4529V1.17028C12.2908 0.248466 11.2731 -0.310318 10.4938 0.184402L1.08532 6.16731C0.40922 6.59796 0 7.34182 0 8.14263V33.8574C0 34.6582 0.40922 35.402 1.08532 35.8327L10.4938 41.8156C11.2731 42.3103 12.2908 41.7515 12.2908 40.8297V28.5614L21.2474 22.8632C21.7064 22.5714 22.2936 22.5714 22.7526 22.8632L31.7092 28.5614V40.7407C31.7092 41.6626 32.7269 42.2213 33.5062 41.7266L42.9147 35.7437C43.5908 35.3131 44 34.5692 44 33.7684V8.20669C44 7.40589 43.5908 6.66203 42.9147 6.23137L33.5062 0.248466C32.7269 -0.246253 31.7092 0.312531 31.7092 1.23435V1.23791ZM41.6763 32.1419L34.0293 27.2801V14.7306L41.6763 9.86525V32.1419ZM34.0293 3.3378L40.8223 7.65859L34.0293 11.9758V3.3378ZM9.96716 3.27017V11.9794L3.12074 7.62299L9.96716 3.26661V3.27017ZM9.96716 27.2837L2.3201 32.1454V9.86525L9.96716 14.7306V27.2801V27.2837ZM9.96716 38.7298L3.13142 34.3841L9.96716 30.0384V38.7334V38.7298ZM12.2908 25.8066V16.2112L19.8383 21.0089L12.2908 25.8066ZM24.1653 21.0089L31.7127 16.2112V25.8066L24.1653 21.0089ZM34.0328 38.6444V30.0384L40.801 34.3414L34.0328 38.6444Z" fill="url(#paint0_linear_260_637)"/>
<defs>
<linearGradient id="paint0_linear_260_637" x1="11.1913" y1="-0.17863" x2="32.7479" y2="42.1147" gradientUnits="userSpaceOnUse">
<stop stop-color="#F62ED6"/>
<stop offset="1" stop-color="#2D46FC"/>
</linearGradient>
</defs>
</svg>
