<svg width="26" height="32" viewBox="0 0 26 32" fill="none" xmlns="http://www.w3.org/2000/svg">
<g clip-path="url(#clip0_215_10523)">
<path d="M15.2281 18.0201C21.4209 16.9421 26.0162 11.4391 26.0003 5.12244C25.9931 2.27067 23.7553 0.00145346 20.9494 6.98947e-07C18.1392 -0.00145206 15.8855 2.26195 15.8769 5.10065C15.8726 6.57666 15.8769 8.05412 15.8769 9.53158C15.8769 11.009 15.8596 12.6303 15.887 14.179C15.8956 14.6656 15.7918 14.8908 15.2598 15.0012C13.7573 15.315 12.2765 15.3339 10.7726 15.0041C10.268 14.8937 10.1195 14.7136 10.1238 14.2022C10.1469 11.1514 10.1411 8.1006 10.1339 5.0498C10.1281 2.737 8.49879 0.668271 6.29127 0.151088C3.97129 -0.393698 1.6686 0.668272 0.585751 2.75008C-0.175562 4.21011 -0.0573278 5.74422 0.183466 7.27689C1.29804 14.3518 8.1686 19.2491 15.2281 18.0201ZM18.7996 5.03237C18.8097 3.8905 19.7613 2.96509 20.8629 2.93603C21.9818 2.90698 23.0503 3.77282 23.0647 4.88419C23.105 8.33886 21.7353 11.1311 19.0043 13.2347C18.9726 13.2594 18.9164 13.2492 18.7924 13.2666C18.7924 10.4904 18.7751 7.76066 18.7996 5.03237ZM5.05991 2.93168C6.27541 2.93022 7.2184 3.88178 7.22417 5.15731C7.23571 7.74613 7.22705 10.335 7.22561 12.9238C7.22561 13.0356 7.21119 13.1475 7.19677 13.3669C6.01587 12.5606 5.14786 11.5872 4.44999 10.4599C3.45365 8.85023 2.93313 7.08948 2.92737 5.18927C2.92448 3.90793 3.86026 2.93458 5.05991 2.93168Z" fill="#FAFAFF"/>
<path d="M25.9987 15.2422V14.4185C25.122 15.3497 24.303 16.1836 23.5345 17.0625C23.3096 17.3196 23.1077 17.7032 23.1034 18.03C23.0702 20.9341 23.0889 23.8396 23.0832 26.7437C23.0803 28.0802 22.1532 29.0623 20.9276 29.0565C19.689 29.0507 18.7936 28.0831 18.7893 26.7277C18.7835 24.7665 18.7878 22.8067 18.7878 20.8455V19.9724C14.8976 21.4295 11.104 21.4106 7.22682 19.9869V20.7859C7.22682 22.7471 7.2297 24.7069 7.22393 26.6681C7.22393 26.9311 7.2124 27.2042 7.1403 27.4541C6.83174 28.5291 5.83108 29.196 4.79004 29.0492C3.71007 28.8967 2.93001 27.9814 2.92713 26.8178C2.91848 23.889 2.92713 20.9602 2.91703 18.0315C2.91703 17.7831 2.89541 17.4591 2.74689 17.2978C1.87744 16.3521 0.966169 15.4427 0.0174115 14.4693V15.0373C0.0174115 19.0077 0.00731833 22.9767 0.0202953 26.9471C0.0318303 30.3102 3.29913 32.7451 6.49434 31.792C8.66005 31.1456 10.1279 29.1596 10.1322 26.873C10.1336 25.8706 10.1322 24.8667 10.1322 23.9239H15.8738C15.8738 24.8972 15.8709 25.8619 15.8738 26.8265C15.8824 29.7306 18.1072 31.9925 20.9521 31.9911C23.7839 31.9896 25.9958 29.7102 25.9958 26.7887C25.9958 22.9404 25.9958 19.0905 25.9958 15.2422H25.9987Z" fill="#FAFAFF"/>
</g>
<defs>
<clipPath id="clip0_215_10523">
<rect width="26" height="32" fill="white"/>
</clipPath>
</defs>
</svg>
