<svg width="250" height="250" viewBox="0 0 250 250" fill="none" xmlns="http://www.w3.org/2000/svg">
<path fill-rule="evenodd" clip-rule="evenodd" d="M228.586 97.4036H196.992V103.023C196.992 103.989 197.776 104.773 198.742 104.773H226.836C227.802 104.773 228.586 103.989 228.586 103.023V97.4036ZM229.836 96.1536V96.1536H228.586H196.992H195.742V96.1536H190.49C184.967 96.1536 180.49 100.631 180.49 106.154V193.817C180.49 199.34 184.967 203.817 190.49 203.817H235.088C240.611 203.817 245.088 199.34 245.088 193.817V106.154C245.088 100.631 240.611 96.1536 235.088 96.1536H229.836ZM229.836 97.4036H235.088C239.921 97.4036 243.838 101.321 243.838 106.154V193.817C243.838 198.65 239.921 202.567 235.088 202.567H190.49C185.658 202.567 181.74 198.65 181.74 193.817V106.154C181.74 101.321 185.658 97.4036 190.49 97.4036H195.742V103.023C195.742 104.68 197.086 106.023 198.742 106.023H226.836C228.493 106.023 229.836 104.68 229.836 103.023V97.4036Z" fill="#FAFAFF"/>
<path fill-rule="evenodd" clip-rule="evenodd" d="M13.8838 63.8078C13.8838 54.0738 21.7747 46.1828 31.5088 46.1828H202.069C211.804 46.1828 219.695 54.0738 219.695 63.8078V96.1536H218.445V63.8078C218.445 54.7641 211.113 47.4328 202.069 47.4328H31.5088C22.4651 47.4328 15.1338 54.7641 15.1338 63.8078V175.379H88.351H88.976H144.602H145.227H180.49V176.629H145.227V179.976C145.227 183.083 142.709 185.601 139.602 185.601H93.976C90.8694 185.601 88.351 183.083 88.351 179.976V176.629H14.5088H13.8838H6.1618V182.154C6.1618 187.331 10.3591 191.529 15.5368 191.529H173.312H180.49V192.779H173.312H15.5368C9.66877 192.779 4.9118 188.022 4.9118 182.154V176.004V175.379H5.5368H13.8838V63.8078ZM208.031 96.1536V61.3685C208.031 59.9188 206.856 58.7435 205.406 58.7435H28.1723C26.7226 58.7435 25.5473 59.9188 25.5473 61.3685V104.596C25.5473 104.941 25.8271 105.221 26.1723 105.221C26.5175 105.221 26.7973 104.941 26.7973 104.596V61.3685C26.7973 60.6092 27.4129 59.9935 28.1723 59.9935H205.406C206.165 59.9935 206.781 60.6092 206.781 61.3685V96.1536H208.031ZM180.49 169.099V170.349H28.1723C26.7226 170.349 25.5473 169.173 25.5473 167.724V126.305C25.5473 125.96 25.8271 125.68 26.1723 125.68C26.5175 125.68 26.7973 125.96 26.7973 126.305V167.724C26.7973 168.483 27.4129 169.099 28.1723 169.099H180.49ZM89.601 176.629V179.976C89.601 182.392 91.5598 184.351 93.976 184.351H139.602C142.018 184.351 143.977 182.392 143.977 179.976V176.629H89.601Z" fill="#FAFAFF"/>
</svg>
